<?xml version="1.0" encoding="UTF-8"?>
<svg id="Layer_1" data-name="Layer 1" xmlns="http://www.w3.org/2000/svg" viewBox="0 0 300 300">
  <defs>
    <style>
      .cls-1 {
        fill: #fff;
      }
    </style>
  </defs>
  <g id="_Слой_1" data-name="Слой 1">
    <path class="cls-1" d="m261.13478,75.5554c-1.0634-.38002-2.21348-.82005-3.24354-1.23341-.74338-2.61016-2.13013-6.17372-4.54362-11.19737-.86673-1.80345-2.35015-3.23353-4.18359-4.03025-1.6201-.70338-15.98767-6.93377-21.75804-8.67055-6.35706-1.91679-24.33821-4.2036-26.36831-4.45695-1.98679-.25335-3.99358.22335-5.65702,1.33342l-10.40065,6.93377h-69.9611l-10.40065-6.93377c-1.66344-1.11007-3.6769-1.5901-5.65702-1.33342-2.03013.25335-20.01126,2.54016-26.36833,4.45695-5.76703,1.73678-20.13794,7.96717-21.75471,8.67055-1.83678.79672-3.32021,2.2268-4.18693,4.03025-2.41682,5.02365-3.80358,8.58721-4.54362,11.19737-1.03006.41336-2.1768.85339-3.24354,1.23341-2.30014.82005-4.12693,2.61017-4.99365,4.89364C30.11358,90.333-2.71516,177.90518.18169,208.24042c2.84018,29.76188,13.42751,38.34241,34.63551,45.36953,2.85685.9534,6.03038.27668,8.25385-1.76677l51.8366-47.533h110.19027l51.83661,47.533c1.56011,1.43009,3.57689,2.19013,5.63036,2.19013.88006,0,1.76344-.14001,2.62018-.42336,21.20467-7.02711,31.79534-15.60765,34.63551-45.36953,2.8935-30.33857-29.93187-117.90742-33.68547-127.79138-.87339-2.28348-2.70019-4.07358-5.00034-4.89364Zm22.09141,131.10492c-1.9768,20.7013-7.06379,25.29825-18.68785,29.54519l-50.56985-46.37292c-1.53676-1.41009-3.54357-2.19014-5.63036-2.19014h-116.67401c-2.0868,0-4.09692.78005-5.63035,2.19014l-50.56985,46.37292c-11.62406-4.24694-16.71439-8.84389-18.68784-29.54519-2.0468-21.46468,20.77798-88.37557,31.33864-116.73735,5.7537-2.20347,10.20064-4.71363,10.37065-10.23398.01666-.53337-.02-1.0634-.10667-1.58677.43003-1.24008,1.1734-3.06686,2.01346-4.97365,5.22366-2.23014,13.65753-5.73703,17.00774-6.74709,3.29021-.99007,13.32418-2.51016,20.57463-3.48022l9.90396,6.60041c1.36675.91339,2.98019,1.40009,4.62363,1.40009h75.00472c1.64344,0,3.25688-.4867,4.62363-1.40009l9.90395-6.60041c7.25047.97006,17.28441,2.49016,20.57462,3.48022,3.35353,1.01006,11.78073,4.51362,17.0044,6.74376.81004,1.83345,1.57676,3.70024,2.0168,4.97698-.08668.52003-.12335,1.0534-.10667,1.58677.17335,5.52035,4.6203,8.03051,10.37065,10.23398,10.554,28.35512,33.37877,95.26268,31.33198,116.73735Z"/>
    <path class="cls-1" d="m104.16157,112.5744c0-13.78754-11.21403-25.00157-25.00157-25.00157s-25.00157,11.21403-25.00157,25.00157,11.21404,25.00157,25.00157,25.00157,25.00157-11.21403,25.00157-25.00157Zm-25.00157,8.33386c-4.59696,0-8.33386-3.74024-8.33386-8.33386s3.7369-8.33386,8.33386-8.33386,8.33386,3.74024,8.33386,8.33386-3.7369,8.33386-8.33386,8.33386Z"/>
    <path class="cls-1" d="m129.23315,145.90983h-8.40386v-8.33386c0-4.60362-3.73023-8.33386-8.33386-8.33386s-8.33386,3.73023-8.33386,8.33386v8.33386h-8.33386c-4.60362,0-8.33386,3.73023-8.33386,8.33386s3.73023,8.33386,8.33386,8.33386h8.33386v8.33386c0,4.60362,3.73023,8.33386,8.33386,8.33386s8.33386-3.73023,8.33386-8.33386v-8.33386h8.40386c4.60362,0,8.33386-3.73023,8.33386-8.33386s-3.73023-8.33386-8.33386-8.33386Z"/>
    <circle class="cls-1" cx="241.67023" cy="112.92109" r="8.33386"/>
    <circle class="cls-1" cx="137.49701" cy="116.74133" r="8.33386"/>
    <circle class="cls-1" cx="162.49858" cy="116.74133" r="8.33386"/>
    <circle class="cls-1" cx="225.00252" cy="129.24212" r="8.33386"/>
    <circle class="cls-1" cx="225.00252" cy="95.90668" r="8.33386"/>
    <circle class="cls-1" cx="208.3348" cy="112.5744" r="8.33386"/>
    <path class="cls-1" d="m187.50015,129.24212c-13.78754,0-25.00157,11.21403-25.00157,25.00157s11.21403,25.00157,25.00157,25.00157,25.00157-11.21403,25.00157-25.00157-11.21403-25.00157-25.00157-25.00157Zm0,33.33543c-4.59696,0-8.33386-3.74024-8.33386-8.33386s3.7369-8.33386,8.33386-8.33386,8.33386,3.74024,8.33386,8.33386-3.7369,8.33386-8.33386,8.33386Z"/>
    <path class="cls-1" d="m162.49858,87.57282c0-6.89377-5.61035-12.50079-12.50079-12.50079s-12.50079,5.60702-12.50079,12.50079,5.61035,12.50079,12.50079,12.50079,12.50079-5.60702,12.50079-12.50079Z"/>
  </g>
</svg>