<svg width="300" height="300" viewBox="0 0 300 300" fill="none" xmlns="http://www.w3.org/2000/svg">
<g clip-path="url(#clip0_95_73)">
<path fill-rule="evenodd" clip-rule="evenodd" d="M-10 -10H310V310H-10V-10Z" fill="white"/>
<path fill-rule="evenodd" clip-rule="evenodd" d="M166.777 54.3118C237.89 54.3118 295.882 97.3158 295.882 150.032C295.882 202.686 237.89 245.69 166.777 245.69C143.98 245.69 122.538 241.257 103.9 233.506C102.693 234.019 101.428 234.411 100.31 234.803L95.5458 236.01C83.3621 238.362 70.8165 238.541 58.8453 234.954C53.9297 233.144 50.4916 231.335 47.2045 227.143C45.9378 224.85 45.4547 223.313 45.0331 220.72C45.6955 218.248 42.923 217.222 41.3243 216.166C39.7795 215.023 38.2991 213.794 36.8901 212.487C27.5419 203.68 20.063 192.463 17.0466 179.857C10.5621 179.889 5.64647 177.143 4.41134 170.599C3.68752 164.116 4.26027 157.693 6.49148 151.57C8.93353 145.539 12.7037 140.562 17.7106 136.311C15.2669 133.475 17.0167 130.369 16.4141 127.143C16.1717 126.21 15.4794 125.968 14.7556 125.485C15.8712 123.737 18.1323 120.509 16.5037 118.67C15.1773 116.59 16.776 115.534 18.6453 114.81C19.7011 114.148 21.9025 111.644 21.4493 110.348L20.757 108.962C22.6877 108.751 26.4562 108.419 26.9393 106.096C26.4562 104.408 27.4822 103.472 29.1108 103.682C30.2264 103.955 30.4671 103.925 31.2208 102.99C32.8494 100.94 35.323 98.6173 38.1269 99.3411C38.4888 99.4009 38.7893 99.2199 39.0915 99.0689C40.6603 98.1641 42.0764 96.929 43.8876 97.9234C44.4304 98.1359 44.5815 97.8636 44.8521 97.4718C47.1132 95.3004 51.4876 100.337 53.357 99.5221C55.4072 98.6173 57.4575 97.7125 59.5393 96.8692C82.7296 71.2302 122.178 54.3118 166.777 54.3118Z" fill="#E6E6E7"/>
<path fill-rule="evenodd" clip-rule="evenodd" d="M103.87 232.45C88.8526 239.205 47.4755 239.81 46.0295 220.78C46.0295 220.78 46.8131 217.976 43.2256 216.196C39.6663 214.416 22.3561 199.698 17.804 178.83C17.804 178.83 6.07354 180.037 5.2883 169.511C4.47317 158.958 6.07188 147.075 19.1902 136.34C19.1902 136.34 16.959 135.165 17.3209 131.093C17.6828 127.052 17.4421 126.056 16.0841 125.181C16.0841 125.181 19.3114 120.146 17.5616 118.396C15.8434 116.678 18.4365 115.952 19.0392 115.682C19.6733 115.439 23.5016 111.882 22.2664 109.772C22.2664 109.772 25.3427 109.41 26.699 108.173C28.0553 106.936 27.9358 105.942 27.9358 105.942C27.9358 105.942 27.1821 104.102 29.2921 104.705C31.3723 105.338 32.0064 103.227 33.2432 102.142C34.48 101.026 36.1983 99.7894 37.9182 100.272C39.6364 100.785 41.5057 97.5581 43.4663 98.7949C43.4663 98.7949 44.7031 99.4274 45.4269 98.3118C46.1806 97.1962 46.6637 98.5542 47.6581 98.7949C48.6542 99.0357 52.8444 100.515 53.4487 100.515C53.4487 100.515 57.2786 98.8547 60.0527 97.7092C83.0637 72.1648 122.327 55.2763 166.777 55.2763C237.346 55.2763 294.886 97.8287 294.886 150.03C294.886 202.171 237.346 244.724 166.777 244.724C143.951 244.725 122.479 240.261 103.87 232.45Z" fill="black"/>
<path fill-rule="evenodd" clip-rule="evenodd" d="M22.8091 146.683C22.8091 146.683 22.8091 127.323 48.2008 107.78C73.5626 88.2681 106.946 89.7456 114.787 92.2491C114.787 92.2491 112.977 93.607 108.304 92.943C103.631 92.2491 77.9038 89.4152 51.1857 106.966C24.8295 125.482 22.8091 146.683 22.8091 146.683Z" fill="#929496"/>
<path fill-rule="evenodd" clip-rule="evenodd" d="M63.0391 214.023C63.0391 214.023 74.0457 226.208 101.881 220.418C101.881 220.418 103.508 220.116 103.508 222.045C103.508 223.975 99.195 224.429 91.3244 224.429C83.4238 224.429 67.4998 221.322 65.5708 219.362C65.5708 219.362 75.8237 229.796 102.635 225.634C102.635 225.634 106.797 224.729 106.797 226.96C106.797 229.193 106.946 229.796 104.112 229.947C101.279 230.098 96.2118 231.727 93.8295 232.479C91.4472 233.204 61.11 238.722 51.8797 226.356C42.651 214.021 49.7995 217.429 49.7995 217.429C49.7995 217.429 48.5926 209.257 52.3329 210.283C52.3329 210.283 53.0567 207.025 55.2879 208.352C55.2879 208.352 49.4974 205.518 56.7953 199.728C56.7953 199.728 59.7504 196.743 61.2578 194.51C62.7369 192.279 67.1994 189.896 69.1301 189.594C71.0608 189.323 71.0608 189.745 69.4306 190.65C67.8037 191.555 62.4348 194.661 61.4088 198.401C60.353 202.11 55.8889 201.356 55.8889 203.738C55.8889 206.122 55.5884 206.574 57.8196 204.041C60.0508 201.509 60.3513 201.809 60.0508 203.738C59.7487 205.669 59.4482 207.63 60.0508 208.352C60.6551 209.106 61.6794 210.434 61.8305 207.025C61.9816 203.587 64.9665 200.481 63.7911 202.563C62.5842 204.643 63.0374 206.272 63.0374 207.328C63.0374 208.352 64.5149 212.092 60.6551 213.419C56.7937 214.747 54.5641 213.268 54.5641 215.651C54.5641 218.034 52.9056 217.582 52.9056 216.103C52.9056 214.596 51.5792 210.885 51.4265 214.021C51.2754 217.127 52.3312 218.485 50.9749 219.09C49.6485 219.662 51.5792 223.673 54.9858 224.427C58.4239 225.181 58.8771 214.747 59.9014 219.662C60.9573 224.578 60.2036 229.191 66.024 229.494C71.8145 229.796 65.8729 221.744 71.0608 226.96C76.2786 232.18 78.3588 230.247 79.8662 230.247C81.3437 230.247 82.3696 230.247 78.6609 228.016C74.9505 225.783 71.5124 223.673 67.5015 223.554C63.4906 223.403 61.9832 219.091 61.9832 217.883C61.9832 216.709 63.0391 214.023 63.0391 214.023Z" fill="#75AC51"/>
<path fill-rule="evenodd" clip-rule="evenodd" d="M73.533 216.618C73.8949 216.558 87.8882 222.197 100.826 217.733C100.826 217.733 91.3263 222.046 80.5902 220.117C69.884 218.185 73.1412 216.709 73.533 216.618ZM76.7304 215.2C76.7304 215.2 94.5835 215.502 99.348 213.118C99.348 213.118 101.881 212.667 102.335 214.023C102.335 214.023 98.7454 215.049 97.419 215.954C96.0626 216.827 91.7496 216.556 88.9457 216.556C86.1085 216.558 78.96 216.407 76.7304 215.2ZM64.5168 209.258C64.5168 209.258 86.1085 214.597 95.4882 208.656L98.8965 210.889C98.8965 210.889 86.4106 213.573 78.8122 212.969C71.2105 212.364 64.5168 209.258 64.5168 209.258Z" fill="#3A5D42"/>
<path fill-rule="evenodd" clip-rule="evenodd" d="M63.7927 205.822C63.7927 205.822 81.1925 208.807 91.0238 204.343L93.104 205.822C93.104 205.822 87.2852 207.751 76.7285 208.053C76.7285 208.053 82.9705 210.738 91.4455 208.053C91.4455 208.053 89.0931 210.286 82.8211 210.286C76.579 210.286 74.0457 208.506 69.8837 208.506C65.7218 208.505 64.6676 206.576 63.7927 205.822Z" fill="#3A5D42"/>
<path fill-rule="evenodd" clip-rule="evenodd" d="M74.0459 205.247C74.0459 205.247 78.8105 204.645 81.9465 203.137L83.575 204.344C83.575 204.343 79.5642 206.124 74.0459 205.247Z" fill="#AF6137"/>
<path fill-rule="evenodd" clip-rule="evenodd" d="M64.9683 203.137C64.9683 203.137 73.2921 202.113 78.5083 199.729L80.5901 202.113C80.5901 202.113 71.9657 205.247 64.9683 203.137Z" fill="#3A5D42"/>
<path fill-rule="evenodd" clip-rule="evenodd" d="M81.7652 180.671C81.7652 180.671 84.8415 179.042 83.7856 180.792C82.7298 182.51 81.8549 185.495 81.7652 186.641C81.6739 187.818 79.8345 189.265 80.2263 186.641C80.6197 184.048 81.7652 180.671 81.7652 180.671ZM97.8386 177.322C97.8386 177.322 98.1109 175.393 99.2863 177.02C100.432 178.647 103.327 181.454 101.577 190.592C101.577 190.592 101.788 183.083 100.251 180.669C98.7135 178.289 97.8386 177.322 97.8386 177.322ZM100.342 199.64C100.342 199.64 101.398 201.75 99.2863 201.388C97.1746 200.996 93.4957 200.212 93.4957 200.212C93.4957 200.212 95.8166 193.879 95.8166 191.948C95.8166 191.948 98.7118 197.617 98.0196 193.666C97.3555 189.717 96.0888 186.852 96.6915 185.012C96.6915 185.012 97.1746 187.605 97.837 189.053C98.4993 190.501 98.9824 189.627 98.7102 187.426C98.4097 185.195 97.656 181.274 97.9266 179.735C97.9266 179.735 98.8911 185.796 99.5535 187.215C100.247 188.661 99.8557 191.556 99.8557 193.306C99.859 195.026 100.042 198.011 100.342 199.64Z" fill="#929496"/>
<path fill-rule="evenodd" clip-rule="evenodd" d="M95.5179 175.485C95.5179 175.485 98.2322 189.838 88.2199 203.772C88.2199 203.772 87.0446 204.163 85.5056 203.108C83.9683 202.053 81.103 200.998 79.2635 198.584C77.4241 196.172 73.2024 190.985 73.2024 188.18C73.2024 185.406 75.2228 187.034 74.65 187.909C74.0773 188.782 74.831 191.073 76.941 187.426C76.941 187.426 77.7262 191.648 78.6908 184.622C78.6908 184.622 79.4445 183.294 79.1739 186.28C78.8734 189.267 77.7262 192.222 77.7262 192.222C77.7262 192.222 76.2786 196.474 79.6553 192.222C83.0038 187.999 85.5056 178.77 85.5056 178.77C85.5056 178.77 87.6472 175.966 87.4363 177.112C87.2554 178.289 86.1099 180.671 85.8078 181.635C85.5056 182.602 82.3397 191.648 80.8008 194.06C79.2635 196.472 79.9276 198.976 82.4294 195.688C84.9312 192.431 88.1286 184.922 88.6117 182.328C88.6117 182.328 87.8265 188.57 86.7723 191.286C85.7165 193.969 85.1454 197.226 84.571 198.282C83.9683 199.367 83.7857 202.141 86.1082 199.067C88.4009 195.989 89.4567 192.823 90.9027 189.267C89.9382 193.879 88.19 198.404 86.9532 199.852C85.7165 201.27 87.2554 204.466 90.2403 198.584C93.2252 192.704 95.0348 181.846 94.9435 176.449C94.8538 171.05 95.5179 175.485 95.5179 175.485Z" fill="#929496"/>
<path fill-rule="evenodd" clip-rule="evenodd" d="M49.1969 215.291C49.1969 215.291 45.0649 212.758 42.8934 211.31C40.722 209.893 45.2458 206.456 42.8934 203.591C42.8934 203.591 47.0255 201.781 43.7982 197.832C43.7982 197.832 47.5683 196.563 45.9397 192.401C44.3427 188.271 44.3427 186.279 44.522 185.376C44.522 185.376 47.4488 189.929 49.5887 185.919C49.5887 185.919 54.0511 187.999 54.6853 183.837C54.6853 183.837 58.0637 185.767 59.3602 181.305C59.3602 181.305 63.6118 182.301 68.979 177.986C74.3778 173.705 75.8553 168.547 77.6947 167.916C77.6947 167.916 83.1532 168.849 82.1588 161.161C82.1588 161.161 87.4662 162.76 89.9996 162.76C92.5313 162.76 94.0702 163.15 94.9136 163.995C94.9136 163.995 105.56 163.543 108.394 161.613C108.394 161.613 99.1652 171.082 96.3928 171.925C96.3928 171.925 93.3763 170.388 91.5369 171.836C91.5369 171.836 86.6229 172.832 83.0021 175.061C79.3831 177.294 71.3015 179.223 68.3747 187.999C68.3747 187.999 58.6049 192.552 58.2114 194.936C58.2114 194.936 54.9841 196.925 56.2807 199.097C56.2807 199.097 54.1391 199.791 52.9936 202.626C51.8183 205.491 50.4304 206.486 52.904 207.782C52.904 207.782 48.591 209.018 48.1992 211.099C47.8389 213.181 49.016 214.386 49.1969 215.291Z" fill="#CFD1D2"/>
<path fill-rule="evenodd" clip-rule="evenodd" d="M50.4021 116.103C50.4021 116.103 52.5437 119.874 54.2619 120.325C55.9818 120.748 56.1013 121.834 56.1926 122.588C56.3138 123.342 57.9424 125.362 57.7 121.17C57.7 121.17 59.3286 120.416 59.2091 118.486C59.2091 118.486 60.5056 120.206 61.5914 117.189C62.6771 114.173 66.7477 108.474 71.6036 107.056C71.6036 107.056 73.1127 107.811 71.8144 108.231C70.5179 108.683 63.3096 113.298 61.2593 120.747C61.2593 120.747 58.5749 123.972 59.8731 126.114C61.1697 128.285 61.3805 129.039 61.0485 131.511C60.7165 133.985 62.6771 139.051 63.4308 140.468C64.1861 141.855 65.5724 147.254 65.481 148.521C65.3599 149.817 67.4118 152.711 69.13 153.767C69.13 153.767 64.2741 154.22 63.0988 155.063C61.9234 155.938 60.084 155.515 58.5749 155.515C57.0675 155.515 52.6648 155.817 50.7042 156.36C48.7735 156.903 47.9003 157.446 47.2661 158.533C46.6037 159.589 43.5873 162.723 42.6227 163.268C41.6582 163.811 39.3058 165.74 39.6079 168.213C39.9399 170.687 41.1153 171.23 43.0759 171.983C45.0067 172.737 46.7249 173.914 47.5998 175.209C48.4448 176.506 52.0025 178.558 50.9167 175.118C50.9167 175.118 54.8064 176.627 57.612 177.47C60.416 178.345 65.0295 178.767 66.7494 176.203C68.4992 173.61 70.6391 172.101 70.6391 172.101C70.6391 172.101 71.3928 169.387 69.7642 170.894C68.1655 172.402 65.9044 175.329 60.5056 175.329C55.1384 175.329 54.3831 174.362 53.0882 172.945C51.7916 171.557 47.9003 168.421 47.1466 165.858C46.3912 163.264 45.0963 161.545 52.122 158.409C52.122 158.409 44.673 163.807 48.0215 163.475C48.0215 163.475 46.5124 165.526 48.986 164.35C48.986 164.35 46.5124 169.296 51.0363 164.772C51.0363 164.772 47.6894 170.684 52.3345 165.736C56.948 160.791 64.397 158.53 66.1152 158.317C66.1152 158.317 66.2364 159.373 64.4866 159.916C62.7667 160.459 54.2635 165.406 52.4241 167.456C50.6146 169.505 51.0363 169.839 55.1384 166.913C55.1384 166.913 56.5246 166.371 55.4389 167.576C54.3831 168.753 53.4185 170.259 53.4185 170.259C53.4185 170.259 52.122 172.852 54.5939 170.38C57.0675 167.876 66.1136 161.213 68.5871 160.338C71.0607 159.493 68.3763 160.035 67.8334 159.28C67.8334 159.28 69.6729 158.83 70.3054 157.985C70.3054 157.985 71.5123 159.161 70.7569 160.127C70.0032 161.091 67.1993 162.929 65.4794 163.684C63.7296 164.438 56.523 170.38 55.7693 171.436C55.0139 172.521 54.9243 174.904 56.9447 172.642C58.9949 170.381 62.5542 167.244 64.7257 166.279C66.8673 165.315 71.8128 161.755 72.3556 160.789C72.8985 159.825 72.0552 157.323 73.3218 157.864C74.6184 158.407 75.4933 157.653 74.5288 156.808C73.5642 155.935 75.0716 155.601 75.915 156.265C76.7898 156.899 77.6349 157.232 77.0007 158.407C76.3383 159.584 77.092 160.127 79.2634 160.457C81.405 160.788 81.1029 166.369 77.6349 165.524C74.1967 164.651 79.1423 164.106 79.1423 163.14C79.1423 162.175 77.2115 162.718 76.7898 163.261C76.3383 163.804 76.7899 161.754 76.0362 161.09C75.2825 160.455 74.0755 159.913 73.443 161.541C72.8105 163.138 71.3031 164.647 69.2512 165.19C67.2009 165.731 66.7494 166.696 65.5724 167.662C64.397 168.627 60.7165 172.518 60.084 172.848C59.4498 173.15 57.7 175.744 61.4702 174.145C65.2403 172.518 67.2009 167.451 69.13 167.571C71.0607 167.662 71.934 167.662 71.0607 168.416C70.2157 169.17 72.5681 168.748 72.2677 169.923C71.9356 171.13 67.0798 182.318 56.9463 178.337C56.9463 178.337 55.5601 178.878 55.5601 180.055C55.5601 181.23 52.7561 180.387 51.6688 180.477C50.6129 180.598 51.2471 182.437 48.7735 181.562C46.2999 180.717 46.2999 182.105 46.1804 183.493C46.0907 184.911 43.5873 182.859 42.9531 183.402C42.3206 183.943 42.3206 185.542 42.3206 186.961C42.3206 188.347 46.2999 196.761 43.1639 195.796C40.0578 194.8 39.9366 198.149 42.0782 200.32C42.0782 200.32 38.6401 201.376 39.8171 203.335C41.024 205.266 41.8674 208.613 41.024 209.668C41.024 209.668 34.4499 203.124 32.5192 202.37C32.5192 202.37 36.5002 203.124 36.0486 200.533C35.6253 197.94 32.398 197.184 31.9763 196.218C31.5248 195.253 30.1385 195.464 30.4689 196.43C30.4689 196.43 30.2581 196.218 28.9615 194.591C28.9615 194.591 27.5438 191.696 26.3684 191.365C26.3684 191.365 27.2117 189.646 25.7043 189.435C25.7043 189.435 25.4022 185.875 24.529 184.368C24.529 184.368 27.7546 187.263 27.7546 189.858C27.7546 192.451 30.2581 193.959 31.5248 194.38C32.8213 194.804 36.5018 198.15 35.4161 195.044C35.4161 195.044 34.0282 193.205 35.7481 193.205C35.7481 193.205 35.0841 191.033 33.155 189.858C31.2243 188.681 30.4706 185.666 29.5957 184.702C29.5957 184.702 28.51 184.702 28.6295 186.511C28.6295 186.511 27.0009 185.877 28.4186 183.735C29.8065 181.564 24.1969 179.092 25.6147 182.651C25.6147 182.651 22.8107 178.971 23.5644 176.951C23.5644 176.951 21.8445 175.201 22.057 172.397C22.057 172.397 24.1986 173.272 22.3891 169.834C22.3891 169.834 23.7753 168.749 22.3891 166.908C20.9713 165.097 22.6912 162.506 23.5644 162.082C23.5644 162.082 25.9467 164.556 25.4952 162.082C25.0735 159.581 25.4952 158.193 24.9523 157.107C24.4393 156.051 24.5306 155.057 25.2843 153.881C25.2843 153.881 26.7917 150.352 26.2489 146.705C26.2489 146.705 29.3848 152.374 30.5619 153.247C31.7688 154.092 31.9796 155.508 33.0355 157.228C34.1212 158.946 37.3485 162.082 37.8 161.088C38.2217 160.123 36.7143 159.368 36.7143 158.525C36.7143 158.525 39.5183 160.784 43.2884 160.334C43.2884 160.334 39.8204 156.805 39.8204 154.212C39.8204 154.212 41.4473 153.759 40.6936 152.372C39.9399 150.984 40.272 149.055 40.272 149.055C40.272 149.055 37.0447 147.246 36.9235 145.828C36.9235 145.828 38.3097 145.287 38.9738 144.653C38.9738 144.653 37.7984 142.179 37.7984 141.306C37.7984 141.306 40.0611 142.933 40.3616 144.231C40.6936 145.498 41.5685 149.389 42.4119 146.794C42.4119 146.794 44.1318 148.845 45.5495 147.668C45.5495 147.668 47.0569 149.598 48.6556 149.598C50.2826 149.598 51.2488 150.774 51.2488 152.492C51.2488 152.492 53.1795 150.35 54.476 151.829C54.476 151.829 52.9686 148 54.6869 147.759C54.6869 147.759 51.1591 141.636 50.163 140.551C49.1985 139.465 47.8106 136.238 44.7958 135.273C44.7958 135.273 43.7101 136.691 43.1672 133.885C42.6244 131.081 40.3633 130.96 39.3971 129.361C38.4309 127.733 39.0651 125.681 39.5166 124.837C39.9383 123.963 40.9045 124.505 40.4828 126.013C40.0611 127.52 41.1153 130.115 42.4119 130.537C43.7084 130.958 44.6746 132.046 43.3781 129.119C43.3781 129.119 45.0963 126.858 43.3781 125.349C43.3781 125.349 44.8855 123.75 44.6746 122.121C44.4638 120.523 44.1318 118.262 44.6746 117.508C44.6746 117.508 46.6054 120.825 47.1482 118.683C47.6894 116.555 48.8648 114.385 50.4021 116.103Z" fill="#629E57"/>
<path fill-rule="evenodd" clip-rule="evenodd" d="M79.9876 146.23C79.9876 146.23 80.1088 148.19 82.2786 148.19C84.4799 148.19 83.605 149.939 82.5193 149.849C81.4037 149.729 79.4431 149.399 78.027 149.729C76.6092 150.06 74.4079 148.644 73.201 147.105C71.9957 145.567 66.7481 141.857 64.907 129.403C64.907 129.403 66.7165 130.218 66.8975 126.688C67.0784 123.161 66.3546 120.989 66.3546 120.989C66.3546 120.989 68.0729 120.627 67.4403 119.723C66.8078 118.818 67.4403 118.094 67.8919 118.003C68.3435 117.911 67.1681 115.38 68.6157 116.284C70.0633 117.189 70.6062 115.923 70.4253 114.837C70.2443 113.751 70.6959 112.574 71.0578 111.128C71.0578 111.128 70.4253 118.094 72.3244 119.18C74.2253 120.265 72.6864 120.989 71.6006 120.989C70.5149 120.989 70.9681 123.071 70.9681 125.332C70.9681 127.593 70.5166 139.083 72.2348 141.797C73.9547 144.512 74.5872 149.035 77.6634 149.035C80.7413 149.035 79.9577 147.136 79.9876 146.23Z" fill="#3A5D42"/>
<path fill-rule="evenodd" clip-rule="evenodd" d="M62.2856 127.864C62.2856 127.864 63.2502 126.446 63.2502 128.075C63.2502 129.703 67.955 147.648 74.0759 149.939C80.1984 152.231 82.6106 151.899 85.2336 150.935C87.8583 149.939 88.3098 150.392 88.7315 151.569C89.1831 152.776 89.7259 153.317 90.39 153.86C91.054 154.403 90.39 155.488 88.9722 156.061C87.5246 156.604 84.5994 158.445 81.1912 156.815C77.8145 155.186 73.7422 153.196 72.7777 152.774C71.7832 152.321 67.7425 148.763 66.5356 144.601C65.3303 140.441 62.9182 134.861 62.2856 127.864Z" fill="#59595B"/>
<path fill-rule="evenodd" clip-rule="evenodd" d="M94.1 102.202C94.1 102.202 95.9395 101.146 95.5775 100.541C95.5775 100.541 96.7529 99.3959 98.1723 99.9986C99.5901 100.601 101.097 101.808 100.795 103.407C100.493 104.974 99.4075 106.905 96.8758 106.694C94.3424 106.483 93.4061 104.222 94.1 102.202Z" fill="#E6E6E7"/>
<path fill-rule="evenodd" clip-rule="evenodd" d="M96.9056 145.778C96.4541 143.788 95.6688 139.928 96.2416 138.872C96.9953 137.425 97.2078 136.852 98.926 137.425C100.646 138.027 103.058 138.48 104.293 136.852C104.293 136.852 100.374 131.001 101.7 128.709C103.056 126.386 106.886 124.577 108.033 123.704C108.033 123.704 106.797 120.749 106.797 117.762C106.797 114.775 105.741 108.744 107.188 108.352C107.188 108.352 106.885 105.186 107.942 104.131C107.942 104.131 106.405 104.312 105.922 104.793C105.922 104.793 106.314 101.84 107.942 100.392C107.942 100.392 107.55 97.1348 104.957 97.4054C102.364 97.7076 102.575 98.6721 102.575 98.6721C102.575 98.6721 104.023 101.717 104.776 101.717C105.56 101.717 104.504 103.164 104.204 103.648C103.901 104.129 102.183 109.106 97.7805 109.106C97.7805 109.106 103.812 105.366 102.094 99.9072C102.094 99.9072 99.6814 99.8176 98.5342 98.9427C97.3871 98.0678 96.7247 99.5154 94.9749 99.2448C93.2567 98.9427 91.9302 97.0136 91.1433 99.8176C90.3896 102.592 90.964 105.095 91.6264 106.149C91.6264 106.149 90.6619 107.386 90.1788 106.241C89.6957 105.093 88.942 102.983 88.5502 103.737C88.1584 104.521 87.9774 105.487 89.0333 106.632C90.0875 107.778 90.5706 110.462 92.5926 110.462C94.6146 110.462 94.7939 112.664 94.7939 113.236C94.7939 113.809 93.8294 114.111 93.4376 112.964C93.0757 111.819 91.9302 111.819 91.5368 112.481C91.145 113.145 89.2159 110.942 89.8185 112.662C90.3913 114.412 91.4471 116.04 92.2921 115.466C93.167 114.863 93.2583 114.591 94.0402 115.466C94.7939 116.311 94.1315 116.792 93.5588 116.311C92.9844 115.828 91.3259 116.884 93.9207 119.387C93.9207 119.387 93.4376 122.736 95.7601 123.7C95.7601 123.7 97.3887 116.613 97.3887 115.738C97.3887 114.865 98.3533 111.125 100.555 109.797C102.756 108.44 105.078 106.239 105.078 106.239C105.078 106.239 100.071 112.571 99.1983 116.703C98.3533 120.835 97.9615 125.629 98.6255 127.922C99.3195 130.243 100.164 134.377 100.164 134.377C100.164 134.377 95.6688 135.13 94.6146 137.634C93.5588 140.136 93.4376 142.822 94.1315 145.415C94.1315 145.415 91.9302 146.952 89.699 146.952C87.4977 146.952 84.4214 146.258 83.0037 146.65C83.0037 146.65 80.2894 141.855 78.6625 140.497C77.0339 139.171 74.6499 135.703 74.3478 133.502C74.3478 133.502 73.775 137.723 75.4933 140.889C77.243 144.055 77.243 145.592 76.6703 145.685C76.6703 145.685 75.5846 144.54 74.9205 142.7C74.2581 140.891 72.8105 137.423 73.2919 132.356C73.775 127.26 73.0197 123.038 75.9764 116.977C75.9764 116.977 76.7599 117.188 77.8158 116.796C77.8158 116.796 76.7599 116.042 76.7599 114.867C76.7599 113.72 76.3682 112.091 76.3682 112.091C76.3682 112.091 75.0102 114.292 74.9205 115.257C74.9205 115.257 74.8292 112.181 74.0755 112.001C74.0755 112.001 76.2768 111.518 75.1314 109.227C75.1314 109.227 75.1314 107.477 76.2769 107.688C76.2769 107.688 75.8851 106.151 75.8851 104.703C75.8851 104.703 74.0755 105.578 72.9001 105.186C72.9001 105.186 76.066 103.739 76.4595 101.84C76.4595 101.84 77.243 106.151 77.243 108.444C77.243 110.766 80.0171 113.54 79.4444 110.645C78.8716 107.78 78.3885 107.298 79.2335 106.244C80.1084 105.188 80.4089 105.761 80.6812 107.298C80.9817 108.835 81.2539 107.208 81.737 106.423C82.2185 105.67 83.0037 104.222 85.9587 102.504C85.9587 102.504 87.4064 103.951 87.8895 101.629C87.8895 101.629 89.8202 103.168 90.0908 100.181C90.3929 97.2261 89.9115 97.9798 91.5384 96.9256C93.167 95.8698 93.9224 95.3867 96.1536 96.4425C98.3549 97.4984 100.737 98.282 102.366 97.4071C104.024 96.5621 105.08 96.3512 102.577 95.9594C100.073 95.5975 100.164 94.9036 97.3887 95.2971C97.3887 95.2971 99.8009 93.2767 102.273 94.2412C104.776 95.2057 105.078 95.2057 107.19 94.633C109.3 94.0603 108.727 95.6888 107.461 95.6888C106.224 95.6888 105.168 96.2616 107.069 97.1365C109 97.9798 108.819 98.6738 109 99.2465C109.179 99.8192 110.356 99.5171 111.02 98.3716C111.684 97.2261 114.277 94.4504 115.062 95.3867C115.816 96.3512 113.704 96.3512 113.132 97.9798C112.559 99.6084 109.001 101.448 108.91 102.895C108.819 104.313 108.427 104.705 108.337 106.244C108.246 107.781 108.337 115.169 108.82 118.155C109.303 121.11 108.128 125.545 107.765 128.138C107.373 130.731 107.281 134.953 107.945 136.762C108.61 138.602 106.498 140.14 104.688 140.019C102.849 139.93 100.737 138.392 103.452 142.342C104.295 143.579 104.718 144.422 104.929 144.996C103.541 145.026 102.215 144.724 100.646 144.332C97.7805 143.638 97.7805 145.901 97.7805 145.901C97.7805 145.901 97.4468 145.778 96.9056 145.778Z" fill="#629E57"/>
<path fill-rule="evenodd" clip-rule="evenodd" d="M106.495 158.716C106.495 158.716 108.183 158.203 109.088 157.298C109.963 156.393 111.47 155.429 112.798 155.88C112.798 155.88 110.867 156.938 110.414 157.6C109.961 158.262 108.123 159.68 106.495 158.716ZM94.613 159.229C94.613 159.229 98.3832 157.662 99.1369 156.846C99.8607 156.031 102.484 154.313 103.75 154.765C103.75 154.765 103.359 155.429 101.67 156.272C99.9504 157.087 98.1724 159.229 94.613 159.229Z" fill="#929496"/>
<path fill-rule="evenodd" clip-rule="evenodd" d="M137.166 136.55C137.166 136.55 138.401 135.947 137.406 137.335C136.38 138.753 134.511 140.682 134.511 141.527C134.511 142.402 133.576 143.487 132.882 143.879C132.188 144.271 127.273 147.86 126.097 149.097C124.952 150.334 120.426 153.197 117.925 153.651C115.453 154.134 115.904 152.112 117.865 151.479C119.796 150.875 123.626 148.463 120.519 148.946C117.383 149.399 116.841 149.489 115.512 150.183C114.186 150.875 113.1 151.328 111.864 151.328C110.627 151.328 105.168 151.328 103.842 152.022C102.514 152.714 102.062 154.132 101.038 154.585C100.042 155.067 97.4486 156.395 96.9954 156.997C96.5123 157.63 93.8893 159.197 92.3221 159.197C90.7549 159.197 91.0853 158.473 92.4732 158.173C93.8909 157.871 96.3031 155.459 97.2378 155.218C98.1724 154.975 102.124 153.349 99.9521 153.651C97.7806 153.983 94.1018 154.828 93.6486 155.611C93.6486 155.611 94.2827 156.607 92.6243 156.939C90.9957 157.241 89.0649 158.417 88.3411 158.628C87.6488 158.87 86.0203 158.417 87.8896 157.632C89.7589 156.848 91.2978 155.762 92.4134 155.522C92.4134 155.522 91.5385 155.522 91.7792 154.438C92.0216 153.352 90.7533 152.264 90.3017 151.934C89.8186 151.632 89.6095 149.402 87.6488 149.402C85.7181 149.402 83.3657 149.1 83.6064 148.074C83.8488 147.078 84.8432 147.682 85.3861 147.863C85.929 148.015 91.7793 148.707 93.9507 146.989C96.1222 145.27 97.7806 145.903 97.7806 145.903C97.7806 145.903 97.7806 143.64 100.646 144.334C103.541 145.059 105.621 145.511 108.759 144.034C111.865 142.554 120.34 138.967 122.209 138.032C124.079 137.097 128.06 136.344 129.235 134.775C130.381 133.206 132.433 132.755 132.824 133.297C133.186 133.84 132.643 134.926 131.558 135.469C130.472 136.012 127.125 136.795 125.888 138.122C124.622 139.45 122.601 138.424 117.383 141.168C117.383 141.168 123.536 139.118 123.536 140.142C123.536 141.166 122.601 141.469 121.275 141.862C119.978 142.254 112.35 145.813 111.022 146.535C109.695 147.229 104.931 148.014 103.151 147.862C101.342 147.681 96.4558 146.927 97.8437 149.158C97.8437 149.158 98.5675 150.877 101.131 149.884C103.694 148.86 105.804 148.949 107.132 148.949C108.429 148.949 112.499 149.341 114.762 147.382C116.995 145.451 121.457 143.884 122.845 143.733C124.263 143.582 131.802 140.989 132.494 140.386C133.185 139.747 136.08 138.118 137.166 136.55Z" fill="#E6E6E7"/>
<path fill-rule="evenodd" clip-rule="evenodd" d="M127.122 139.053C127.122 139.053 125.734 137.816 127.605 137.425C129.443 137.033 132.883 136.249 132.883 136.249C132.883 136.249 134.511 135.766 134.511 136.4C134.511 137.034 133.577 137.245 133.034 137.335C132.491 137.425 128.208 138.902 127.122 139.053Z" fill="#929496"/>
<path fill-rule="evenodd" clip-rule="evenodd" d="M147.448 126.599C147.448 126.599 149.288 125.513 148.534 126.66C147.75 127.836 145.881 130.943 143.167 131.485C140.452 132.057 138.945 132.208 137.798 133.143C136.623 134.078 133.968 136.158 133.274 135.706C132.582 135.223 134.119 134.38 134.601 133.897C135.052 133.445 140.512 130.64 142.141 129.854C143.799 129.071 146.965 127.593 147.448 126.599ZM117.865 131.876C117.865 131.876 118.167 131.274 118.107 130.248C118.107 130.248 122.057 128.53 125.103 130.882C125.103 130.882 130.229 127.052 133.367 127.685C133.367 127.685 134.451 128.53 132.642 128.681C130.862 128.862 127.666 131.182 126.731 131.725C125.797 132.268 124.62 131.815 123.625 131.725C122.599 131.664 120.036 131.333 117.865 131.876Z" fill="#D0D1D3"/>
<path fill-rule="evenodd" clip-rule="evenodd" d="M125.312 94.2711C125.312 94.2711 125.553 95.2954 123.986 95.2954C122.389 95.2954 120.488 97.3457 119.462 99.3063C118.436 101.297 116.294 105.248 116.235 108.022C116.143 110.796 115.028 113.48 115.36 114.505C115.662 115.531 115.511 117.432 114.968 118.396C114.395 119.331 115.27 123.944 115.903 125.845C116.535 127.746 117.561 129.795 116.686 132.087C115.811 134.38 115.268 134.38 116.777 135.163C118.287 135.947 117.712 139.928 115.27 138.721C112.826 137.546 111.802 130.097 112.043 128.921C112.254 127.746 112.826 122.256 112.586 121.472C112.345 120.689 113.461 118.396 113.763 117.764C114.095 117.131 114.486 114.898 114.095 113.48C113.701 112.063 114.486 106.845 115.664 103.83C116.869 100.814 118.135 94.1798 121.603 93.9391C122.84 93.6967 124.077 93.8777 125.312 94.2711Z" fill="#E6E6E7"/>
<path fill-rule="evenodd" clip-rule="evenodd" d="M117.803 128.378C117.803 128.378 118.076 127.895 117.895 127.082C117.895 127.082 120.579 126.962 122.178 127.595C120.607 127.504 118.738 127.864 117.803 128.378Z" fill="#D0D1D3"/>
<path fill-rule="evenodd" clip-rule="evenodd" d="M121.091 104.735C121.091 104.735 121.24 103.769 121.936 104.071C122.598 104.343 122.146 104.795 121.995 105.338C121.846 105.851 121.242 114.686 122.6 117.432C123.956 120.206 126.038 122.769 124.32 126.569C124.32 126.569 123.113 127.382 121.635 126.569C120.128 125.755 118.861 125 118.257 125C117.654 125 116.177 124.095 116.69 122.467C117.203 120.808 116.238 118.577 116.238 117.521C116.238 116.465 117.354 113.027 117.354 115.863C117.354 118.728 119.163 122.618 119.827 122.98C120.521 123.342 121.396 124.036 120.793 121.623C120.221 119.241 119.467 117.372 119.678 113.572C119.915 109.74 121.091 104.735 121.091 104.735Z" fill="#59595B"/>
<path fill-rule="evenodd" clip-rule="evenodd" d="M124.016 97.1647C124.016 97.1647 124.799 97.5565 125.553 96.5919C125.553 96.5919 125.644 101.176 125.372 104.522C125.07 107.899 124.016 115.169 125.282 117.762C126.519 120.324 126.036 122.616 128.54 125.784C128.54 125.784 126.911 126.267 126.609 127.412C126.609 127.412 126.428 121.681 124.889 119.359C123.352 117.066 123.169 115.077 123.652 113.147C124.137 111.248 124.318 99.1867 124.016 97.1647Z" fill="#E6E6E7"/>
<path fill-rule="evenodd" clip-rule="evenodd" d="M166.777 59.498C235.024 59.498 290.694 100.15 290.694 150.03C290.694 199.85 235.025 240.5 166.777 240.5C145.577 240.5 125.585 236.581 108.092 229.675C108.907 228.801 109.299 227.897 109.207 226.932C108.211 216.015 100.07 209.258 98.6821 208.266C97.2943 207.27 92.5297 202.897 92.5297 202.897C94.0985 202.294 101.277 201.902 101.277 201.902C101.277 199.699 102.271 191.769 103.267 184.801C104.232 177.835 98.0795 173.283 98.0795 173.283L98.2904 173.463C98.2904 173.463 105.829 166.527 110.203 164.146C114.576 161.762 117.169 155.399 117.169 155.399C122.537 154.403 129.896 148.856 131.674 147.679C133.454 146.472 137.041 144.301 138.429 139.506C139.817 134.742 143.979 134.561 147.176 132.751C150.312 130.972 151.517 125.604 150.915 123.433C150.312 121.232 144.973 121.623 142.802 123.433C140.6 125.213 131.071 125.996 131.071 125.996C126.307 120.627 125.1 114.296 126.518 103.74C127.905 93.2153 124.529 91.4356 124.529 91.4356C121.542 92.2208 110.414 89.2343 110.414 89.2343C108.907 88.4208 106.463 88.6914 103.87 88.5719C101.277 88.4507 95.4864 89.2957 95.4864 89.2957C87.2538 89.387 75.9749 92.4632 68.8579 94.6646C91.5668 73.2804 127.032 59.498 166.777 59.498Z" fill="#A6A8AA"/>
<path fill-rule="evenodd" clip-rule="evenodd" d="M166.777 61.7608C233.757 61.7608 288.402 101.418 288.402 150.032C288.402 198.584 233.757 238.241 166.777 238.241C145.969 238.241 126.338 234.411 109.177 227.656C109.209 227.415 109.239 227.173 109.209 226.932C108.213 216.015 100.072 209.258 98.6837 208.266C97.2958 207.27 92.5313 202.897 92.5313 202.897C94.1001 202.294 101.278 201.902 101.278 201.902C101.278 199.699 102.273 191.769 103.269 184.801C104.233 177.835 98.0811 173.283 98.0811 173.283L98.2919 173.463C98.2919 173.463 105.831 166.527 110.205 164.146C114.578 161.762 117.171 155.399 117.171 155.399C122.538 154.403 129.897 148.856 131.675 147.679C133.455 146.472 137.043 144.301 138.431 139.506C139.818 134.742 143.98 134.561 147.178 132.751C150.314 130.972 151.519 125.604 150.916 123.433C150.314 121.232 144.975 121.623 142.803 123.433C140.602 125.213 131.073 125.996 131.073 125.996C126.308 120.627 125.101 114.296 126.519 103.74C127.907 93.2153 124.53 91.4356 124.53 91.4356C121.544 92.2208 110.416 89.2343 110.416 89.2343C108.908 88.4208 106.465 88.6914 103.872 88.5719C101.278 88.4507 95.4879 89.2957 95.4879 89.2957C89.0051 89.387 80.5899 91.2862 73.8647 93.187C96.2118 74.0042 129.595 61.7608 166.777 61.7608Z" fill="#ECCB3C"/>
<path fill-rule="evenodd" clip-rule="evenodd" d="M48.8648 100.603C48.8648 100.603 51.7302 100.603 52.3627 101.295C52.9952 101.989 52.3627 102.562 51.609 102.079C50.8238 101.567 49.7082 100.663 48.8648 100.603ZM40.3301 101.297C40.3301 101.297 41.7479 99.0655 44.7328 100.814C47.7476 102.563 47.5367 103.468 47.5367 103.468C47.5367 103.468 45.3055 101.718 43.9774 101.567C42.651 101.448 40.3301 101.297 40.3301 101.297ZM39.4851 102.202C39.4851 102.202 44.9436 103.468 46.1505 104.735C47.3259 105.972 45.7886 105.91 45.1544 105.157C44.5203 104.373 40.7518 102.353 39.4851 102.202ZM34.0581 104.101C34.0581 104.101 36.56 101.357 39.2759 103.467C42.0201 105.547 44.3111 108.14 44.3111 108.14C44.3111 108.14 36.198 103.8 34.0581 104.101ZM38.6716 107.298C38.6716 107.298 42.1695 107.811 42.7124 108.716L41.6566 109.891C41.6566 109.891 40.1176 107.388 38.6716 107.298ZM36.2894 106.483C36.2894 106.483 34.8716 106.272 34.3885 106.604C33.9071 106.966 35.1737 105.429 35.1737 105.429L36.2894 106.483ZM28.8088 108.654C28.8088 108.654 30.4673 107.599 30.5586 106.061C30.5586 106.061 36.6197 108.563 38.5803 110.313C36.6214 108.563 30.8292 108.563 28.8088 108.654ZM26.0048 110.192C26.0048 110.192 35.3846 109.408 39.9084 112.906L38.9439 114.081C38.9422 114.083 35.5954 110.887 26.0048 110.192ZM34.5993 116.044C34.5993 116.044 26.0048 115.439 21.9342 115.561C21.9342 115.561 24.1057 112.001 23.4117 110.584C24.104 112.003 33.3327 114.083 34.5993 116.044ZM29.5027 122.918C29.5027 122.918 21.6619 122.497 18.013 124.034C18.013 124.034 19.6416 122.405 18.6455 116.978C18.6455 116.978 30.0456 115.439 34.5379 118.848C34.5379 118.848 31.7937 118.726 29.2902 118.215C26.7585 117.732 23.9828 117.46 20.123 117.583C20.1247 117.583 27.3927 119.058 29.5027 122.918ZM21.9342 124.157C21.9342 124.157 29.1425 124.519 30.0456 124.578L28.2361 125.845C28.2361 125.845 25.7342 124.668 21.9342 124.157ZM26.2157 126.961C26.2157 126.961 20.3355 129.615 19.0091 130.942C19.0091 130.942 18.3766 129.554 18.5874 128.589C18.7982 127.595 18.4363 126.479 18.2255 125.845C18.4347 126.478 25.5218 126.84 26.2157 126.961ZM28.178 128.649C28.178 128.649 26.0663 129.916 23.7736 129.615C23.7736 129.615 25.1001 128.589 26.0663 128.589C27.0607 128.588 28.178 128.649 28.178 128.649ZM24.104 132.268C24.104 132.268 20.1844 135.072 20.0632 135.979C20.0632 135.979 19.6416 132.841 18.6455 132.57C19.6416 132.841 23.3503 132.147 24.104 132.268ZM41.5968 140.079C41.5968 140.079 38.6716 136.822 41.0838 138.45C41.0838 138.45 42.0483 134.742 42.1994 137.937C42.1994 137.937 43.7682 137.516 43.7682 138.63C43.7682 139.747 42.2907 142.402 41.5968 140.079ZM29.7435 148.522C29.7435 148.522 28.3573 144.903 29.6538 145.596C29.6538 145.596 28.7192 140.952 30.4988 141.796C30.4988 141.796 29.2919 139.383 30.2564 138.781C30.2564 138.781 29.1408 138.027 29.3816 136.037C29.3816 136.037 29.2305 137.423 31.2807 138.117C33.3625 138.781 32.4877 141.465 33.8739 140.077C35.2302 138.719 35.5938 137.423 34.9895 136.037C34.3852 134.649 34.7172 133.533 35.6817 134.408C36.6164 135.251 37.9146 134.74 36.9484 133.292C36.0138 131.815 35.0791 130.548 35.7415 129.854C36.4338 129.162 35.9225 130.097 36.887 131.063C37.8217 131.996 39.1199 133.203 38.5156 134.742C37.913 136.309 38.1537 137.245 38.8476 138.542C39.5415 139.838 39.9632 140.954 39.4519 141.105C38.9389 141.286 38.6683 141.045 38.6069 140.26C38.5156 139.476 36.6164 133.988 36.6164 137.425C36.6164 140.861 36.1034 140.59 35.6817 141.195C35.2302 141.797 34.2042 145.235 33.6913 143.426C33.1783 141.648 31.6111 140.501 31.6111 142.07C31.6111 143.607 30.4357 141.708 31.0384 144.211C31.6111 146.715 29.8314 144.995 30.0738 146.955C30.3477 148.944 29.7435 148.522 29.7435 148.522ZM17.7424 175.211C17.7424 175.211 18.1641 171.622 17.5 169.573C17.5 169.573 19.0074 171.14 19.0074 172.77C19.0091 174.367 17.7424 175.151 17.7424 175.211ZM20.0334 143.848C20.0334 143.848 18.9178 144.058 18.013 143.939C17.0783 143.848 18.3151 142.943 19.1286 143.034C19.9437 143.124 20.0334 143.848 20.0334 143.848ZM21.6918 144.663C21.6918 144.663 17.681 147.226 15.5394 147.829C15.5394 147.829 15.8415 145.084 17.5 145.084C19.1286 145.084 21.6918 144.663 21.6918 144.663ZM21.481 146.502C21.481 146.502 16.1736 150.091 14.2129 150.603C12.2822 151.086 13.006 149.276 15.0264 149.276C17.0783 149.276 18.8281 146.291 21.481 146.502ZM20.5463 149.487C20.5463 149.487 15.3286 153.227 13.6103 154.132C11.8605 155.065 10.4428 156.304 11.0471 154.645C11.6497 153.018 11.0471 153.529 13.1886 152.625C15.3286 151.69 19.7329 149.487 20.5463 149.487ZM20.0334 152.201C20.0334 152.201 16.1736 155.488 14.8455 156.181C13.4891 156.906 9.92981 159.259 9.50814 160.494C9.50814 160.494 9.62933 157.628 11.9817 156.604C14.3341 155.578 19.522 152.804 20.0334 152.201ZM19.4307 154.856L18.9178 157.117C18.9178 157.117 13.9108 160.072 12.0714 161.822C10.232 163.54 8.90551 164.777 8.48218 165.592C8.48218 165.592 9.11469 161.31 12.4931 159.348C15.8415 157.419 18.4048 156.093 19.4307 154.856Z" fill="#929496"/>
<path fill-rule="evenodd" clip-rule="evenodd" d="M25.0404 134.469L24.2253 136.37C24.2253 136.37 9.56803 141.618 7.27705 168.036C7.27705 168.036 14.6962 160.255 20.1846 157.964C20.1846 157.964 9.56803 167.252 9.02516 171.686C9.02516 171.686 10.7749 170.752 11.8607 170.33C11.8607 170.33 10.926 173.164 11.5884 174.25C11.5884 174.25 12.5231 171.806 13.3365 171.143C13.3365 171.143 13.1871 175.186 14.0006 175.968C14.0006 175.968 15.2075 174.098 14.8157 170.479C14.8157 170.479 17.1067 175.031 15.4781 177.986C15.4781 177.986 9.29577 178.259 7.00479 173.554C4.74369 168.849 4.92464 152.535 17.5001 139.055C19.4906 136.912 22.1153 135.585 25.0404 134.469ZM43.3766 153.408C43.3766 153.408 42.1697 151.117 43.9194 152.412C45.6676 153.74 46.7533 155.49 45.9996 155.578C45.2459 155.701 43.7069 154.283 43.3766 153.408Z" fill="#929496"/>
<path fill-rule="evenodd" clip-rule="evenodd" d="M46.7532 121.17C46.7532 121.17 47.9601 120.749 48.0498 119.09C48.1693 117.461 49.2567 115.622 50.794 119.09C50.794 119.09 49.0442 121.834 51.7585 122.92C51.7585 122.92 51.2156 119.422 52.5421 120.84C53.8387 122.258 55.9205 123.797 53.5066 123.675C53.5066 123.675 53.6278 125.636 55.2564 125.545C56.885 125.423 57.549 125.423 58.2114 126.511C58.8456 127.597 60.5024 130.43 57.8794 128.923C57.8794 128.923 57.4279 130.341 58.7543 130.973C58.7543 130.973 58.7543 133.266 59.176 134.141C59.6275 135.014 59.176 135.891 58.7543 136.433C58.3027 136.976 58.3027 138.06 58.5136 139.056C58.7543 140.021 58.5136 142.314 58.8456 143.097C59.1776 143.851 58.7543 144.937 57.7599 143.187C56.7937 141.439 53.1746 139.931 51.546 139.387C49.9174 138.844 47.8373 136.643 47.5053 135.135C47.2031 133.596 47.2944 132.391 46.5407 131.425C45.787 130.43 45.2442 128.682 45.455 127.173C45.6675 125.634 47.2961 122.799 46.7532 121.17ZM94.975 102.261C95.0049 102.17 96.1205 101.87 96.2417 100.844C96.2417 100.844 97.8703 100.392 97.6893 101.657C97.5383 102.954 98.6555 100.631 99.4076 102.019C100.193 103.405 99.4989 104.672 98.5941 105.426C97.6893 105.97 94.0387 105.85 94.975 102.261ZM74.7098 125.453C74.7098 125.453 77.5437 129.343 80.4688 130.882C83.3641 132.389 86.1996 135.555 86.5299 136.702C86.862 137.818 86.0784 139.93 84.6922 137.547C83.3043 135.165 81.7969 133.053 80.3792 132.721C78.9913 132.389 77.4225 132.059 78.8103 133.988C80.1982 135.889 81.4649 137.878 81.7952 138.482C82.0974 139.085 83.032 140.864 84.9611 140.984C86.862 141.133 89.2443 141.527 89.5149 142.129C89.7871 142.704 90.6305 143.849 88.0672 143.758C85.4741 143.696 82.5174 143.094 81.0415 140.26C79.5939 137.425 76.5476 133.927 75.7042 132.33C74.8293 130.731 74.4375 128.106 74.7098 125.453ZM78.1479 115.35C78.1479 115.35 77.5437 113.299 78.9315 114.626C80.3177 115.923 81.2524 117.129 80.258 116.978C79.2635 116.857 79.5956 117.852 80.1384 118.184C80.6514 118.516 79.9874 119.693 80.8008 121.502C81.5861 123.282 80.5302 124.276 79.8048 122.739C79.0809 121.23 78.4783 119.18 78.5381 118.245C78.5995 117.31 78.6609 115.922 78.1479 115.35ZM85.8676 111.49C85.8676 111.49 86.8636 113.21 85.6252 112.697C84.3585 112.154 84.6308 113.148 84.7519 113.751C84.903 114.355 85.0242 114.686 84.3004 114.747C83.5766 114.809 83.3657 115.863 83.9684 116.406C84.571 116.919 84.4813 117.732 83.9684 117.732C83.4255 117.732 83.3641 118.365 84.0281 118.848C84.6922 119.299 85.748 119.571 85.4758 118.907C85.2334 118.245 85.5372 116.587 85.8676 117.792C86.1996 118.967 86.9533 119.359 86.9533 119.359C86.9533 119.359 87.0745 120.566 86.2892 119.902C85.4758 119.238 84.9628 120.234 85.3546 120.958C85.7464 121.681 87.013 120.836 87.4048 122.133C87.7966 123.461 89.4551 125.571 89.4551 126.175C89.4551 126.78 89.2443 127.774 88.9122 127.05C88.5802 126.327 87.8564 126.054 87.6754 126.961C87.4646 127.895 87.1326 127.895 86.9516 127.231C86.7408 126.569 86.1381 126.116 86.1381 127.774C86.1381 129.433 85.8061 134.589 85.0823 131C84.3585 127.44 83.7559 127.774 82.9723 127.834C82.1887 127.895 81.3752 125.724 82.6403 125.12C83.9053 124.515 83.7559 122.616 83.3641 121.411C82.9723 120.236 80.59 114.294 81.1926 112.757C81.7952 111.248 80.8008 109.71 82.5805 110.102C84.3585 110.524 83.9069 108.474 84.7519 109.71C85.6252 110.977 85.8676 111.49 85.8676 111.49ZM85.9572 108.716C85.9572 108.716 86.1996 105.821 86.8022 107.479C87.4048 109.139 88.0091 109.772 88.4009 110.042C88.7927 110.315 88.9736 111.822 87.526 111.188C86.0784 110.525 86.0186 109.651 85.9572 108.716ZM87.8879 114.415C87.8879 114.415 88.371 112.244 89.3654 113.872C90.3615 115.499 89.6676 117.068 89.9681 118.546C90.2403 120.023 89.1231 120.928 88.5204 119.299C87.9477 117.671 87.7983 115.712 87.8879 114.415ZM39.0635 183.384C39.0635 183.384 37.254 181.606 39.4852 182.177C41.7463 182.779 41.5055 183.835 41.2947 184.499C41.0839 185.195 40.3302 186.521 39.0635 183.384ZM45.4865 178.528C45.4865 178.528 44.5834 175.905 46.4527 176.809C48.322 177.714 47.5683 178.227 46.9956 178.74C46.3913 179.283 45.3969 180.007 45.4865 178.528ZM41.8973 177.322C41.8973 177.322 41.5952 175.966 43.164 176.96C44.7312 177.925 44.2199 178.74 44.0688 179.583C43.9194 180.399 43.3151 180.098 42.9532 179.132C42.5614 178.136 42.0484 177.322 41.8973 177.322ZM25.3724 169.784C25.3724 169.784 31.3439 176.509 33.605 178.078C33.605 178.078 33.5137 180.007 32.6089 179.193C32.6089 179.193 34.4185 181.365 34.3271 182.872C34.3271 182.872 36.3475 184.893 34.2674 183.897C34.2674 183.897 33.8158 185.465 34.9298 186.31C36.047 187.124 32.9094 186.823 34.4782 187.637C36.047 188.482 34.5695 189.204 33.7544 188.482C32.9111 187.728 30.8292 184.952 32.9111 184.59C32.9111 184.59 29.8647 184.048 29.5626 182.932C29.2604 181.816 28.2062 180.248 27.1504 179.344C26.1244 178.438 26.5478 176.66 25.2197 175.604C23.865 174.548 23.9547 171.864 25.3724 169.784ZM34.6293 174.246C34.6293 174.246 35.1721 172.918 36.7393 173.823C38.3081 174.698 38.6086 175.151 39.1233 176.207C39.6362 177.263 39.0618 178.591 38.1571 177.263C37.254 175.906 37.254 174.85 35.9856 175.153C34.7206 175.453 34.1777 174.791 34.6293 174.246ZM28.8404 165.562C28.8404 165.562 29.5642 168.909 31.3123 169.511C33.0621 170.146 31.4933 171.804 29.624 169.965C27.7846 168.125 25.8538 166.103 27.2716 164.777C28.6578 163.45 27.8742 162.214 27.6933 160.645C27.5123 159.048 28.3258 156.393 27.2716 155.518C26.2157 154.645 26.9097 153.136 27.3612 151.899C27.3612 151.899 27.6036 155.097 30.5288 155.097C30.5288 155.097 32.2785 158.684 33.6946 159.742C35.1124 160.796 34.2989 161.852 36.1682 162.124C38.0077 162.395 36.5899 162.907 36.6812 164.506C36.7725 166.105 38.7016 167.312 37.0431 167.674C35.3531 168.036 36.3176 167.25 33.7859 167.071C31.2227 166.888 29.111 166.706 28.8404 165.562ZM45.1246 150.06C45.1246 150.06 46.8744 152.987 49.5871 152.201C49.5871 152.201 47.2961 154.071 49.9191 155.367C49.9191 155.367 47.6281 155.156 46.8744 153.74C46.0908 152.321 45.1246 150.06 45.1246 150.06ZM57.7615 147.105C57.7615 147.105 57.6702 144.722 59.6308 145.808C61.5915 146.894 62.888 148.642 62.1327 149.608C61.3491 150.603 63.4292 151.569 63.4292 151.569C63.4292 151.569 64.0933 154.283 61.9218 151.658C59.7205 149.065 58.3044 148.765 57.7615 147.105ZM60.8062 143.848C60.8062 143.848 60.0525 140.682 61.6811 142.641C63.3412 144.601 63.7629 148.19 63.7629 148.19C63.7629 148.19 61.3491 146.019 60.8062 143.848ZM247.569 211.823C247.569 208.896 245.185 206.516 242.262 206.516C239.338 206.516 236.954 208.898 236.954 211.823C236.957 213.23 237.516 214.579 238.511 215.573C239.506 216.568 240.855 217.127 242.262 217.129C245.187 217.101 247.569 214.748 247.569 211.823ZM150.282 158.624C150.825 159.259 151.639 159.801 152.816 160.163L134.209 160.223C134.209 160.223 135.205 159.831 136.35 158.684L150.282 158.624ZM171.424 132.147C167.744 137.727 159.388 140.441 152.485 140.622L152.726 139.083C159.149 139.113 167.141 136.912 171.424 132.147ZM143.227 134.499C143.529 134.38 143.859 134.227 144.161 134.108L140.602 151.117C140.029 153.951 138.822 155.82 137.707 156.966C138.528 155.655 139.1 154.203 139.395 152.684L143.227 134.499ZM170.186 168.909L169.644 171.653C169.644 171.653 166.419 164.627 160.475 164.747C157.584 164.778 155.469 165.653 154.023 167.01C155.291 164.747 157.793 163.269 161.681 163.178C166.055 163.118 168.98 166.918 170.186 168.909ZM156.798 199.88C158.306 197.496 158.727 194.905 158.727 194.481C158.727 193.608 157.914 189.627 153.209 188.029C148.566 186.461 142.141 185.525 142.775 175.453C143.046 171.622 144.434 168.607 146.454 166.346C145.096 168.368 144.191 170.899 143.98 173.917C143.348 183.988 149.739 184.924 154.414 186.491C159.119 188.06 159.933 192.041 159.933 192.914C159.933 193.457 159.33 197.197 156.798 199.88Z" fill="black"/>
<path fill-rule="evenodd" clip-rule="evenodd" d="M135.054 205.79L137.227 192.672C137.227 192.672 137.408 193.487 137.829 194.694L136.261 204.255C136.803 203.74 137.619 203.591 139.458 203.469C141.297 203.348 146.816 205.731 153.362 205.641C156.076 205.581 161.35 204.495 165.3 200.001C161.292 205.792 155.166 207.12 152.151 207.18C145.609 207.271 140.091 204.919 138.249 205.008C136.41 205.128 135.597 205.307 135.054 205.79ZM176.608 204.645L176.278 206.214L167.715 206.122L174.709 171.411C174.709 171.411 175.948 166.859 173.383 164.294L175.646 164.325C176.731 166.829 175.914 169.875 175.914 169.875L168.92 204.585L176.608 204.645ZM192.566 204.042C191.657 205.55 190.12 207.12 187.589 207.12C182.611 207.12 182.22 204.285 182.822 199.791L185.598 183.385C185.598 183.385 186.048 179.283 184.33 179.283C183.85 179.283 183.425 179.374 183.033 179.615C183.636 178.259 184.421 177.744 185.537 177.744C187.258 177.744 186.805 181.816 186.805 181.816L184.029 198.252C183.427 202.744 183.818 205.579 188.764 205.579C190.422 205.579 191.657 204.917 192.566 204.042ZM241.237 201.358C237.587 206.725 232.671 207.087 231.406 207.087C229.899 207.087 228.449 206.845 226.973 206.122L227.304 204.072C229.083 205.188 230.802 205.52 232.583 205.52C233.727 205.52 237.801 205.247 241.237 201.358ZM222.207 179.916C221.85 180.405 221.528 180.919 221.244 181.454C221.244 181.454 220.308 181.725 220.819 180.007C221.092 179.041 222.088 176.869 223.595 175.271C222.752 176.507 222.207 177.774 221.996 178.468C221.666 179.615 221.968 179.856 222.207 179.916ZM215.603 215.713C216.417 214.506 217.172 212.909 217.655 210.917L223.715 180.761C223.715 180.761 223.896 178.408 222.84 179.251C225.224 175.362 224.922 179.222 224.922 179.222L218.862 209.38C218.166 212.364 216.75 214.446 215.603 215.713ZM225.615 217.312C226.099 217.914 226.822 218.489 227.908 218.849H212.62C212.62 218.849 213.372 218.367 214.338 217.312H225.615ZM203.599 207.389C198.384 207.661 195.668 204.675 194.523 200.936C194.795 200.181 194.915 199.64 194.915 199.64C194.672 199.759 194.461 199.88 194.251 199.97C193.587 197.196 193.709 194.12 194.221 191.737C195.579 185.645 197.508 181.272 200.041 178.408C198.079 181.212 196.543 185.103 195.428 190.2C194.131 196.142 195.366 206.303 204.776 205.852C209.6 205.641 212.917 203.831 215.301 201.178C212.889 204.675 209.27 207.148 203.599 207.389ZM196.635 160.645C187.225 161.098 185.749 150.906 187.286 145.025C188.913 138.812 190.905 134.44 193.437 131.544C191.447 134.38 189.848 138.299 188.492 143.457C186.951 149.338 188.43 159.561 197.84 159.109C202.664 158.867 205.981 157.089 208.365 154.436C205.953 157.902 202.334 160.374 196.635 160.645ZM190.753 133.867L189.82 135.768C189.82 135.768 187.857 132.572 184.693 135.979C187.798 131.334 190.001 133.022 190.753 133.867ZM171.21 134.44C171.21 134.44 171.965 131.574 173.985 129.433C172.87 131.182 172.42 132.901 172.42 132.901C175.675 129.222 175.584 132.177 175.284 134.197C174.953 136.247 169.674 158.805 169.674 158.805H177.336C177.183 159.77 177.121 160.344 177.121 160.344H168.467C168.467 160.344 173.775 137.786 174.077 135.766C174.377 133.716 174.469 130.761 171.21 134.44ZM265 181.967L263.943 183.897C263.943 183.897 261.562 176.871 258.275 176.871C256.585 176.871 255.26 177.233 254.356 177.897C254.93 176.298 256.736 175.334 259.482 175.334C262.288 175.334 264.459 180.46 265 181.967ZM257.583 202.473C259.454 198.975 256.315 196.442 254.447 195.356C253.028 194.482 248.115 191.405 246.425 187.303C246.727 184.589 246.785 182.447 246.603 180.699C247.147 179.16 247.961 177.772 249.015 176.657C248.052 178.196 247.416 179.974 247.086 181.934C246.181 187.876 253.781 192.7 255.652 193.788C257.52 194.903 260.659 197.435 258.788 200.905C258.425 201.569 258.036 202.082 257.583 202.473Z" fill="black"/>
<path fill-rule="evenodd" clip-rule="evenodd" d="M240.907 202.384L242.142 200.876C242.655 201.539 248.595 208.687 257.1 206.094C259.756 205.281 261.685 203.984 263.04 202.507C261.685 204.617 259.454 206.547 255.893 207.633C246.997 210.346 240.907 202.384 240.907 202.384ZM145.88 122.105C146.09 121.049 146.301 118.396 143.225 116.766H146.301C147.779 118.726 146.935 121.019 146.935 121.019C146.665 122.316 147.025 121.894 145.88 122.105Z" fill="black"/>
<path fill-rule="evenodd" clip-rule="evenodd" d="M144.191 134.078C145.217 133.686 146.243 133.294 147.178 132.751C150.314 130.972 151.519 125.604 150.917 123.433C150.585 122.166 148.685 121.774 146.755 121.987L146.936 121.021C146.936 121.021 148.322 117.282 144.432 115.23L164.729 115.141C164.729 115.141 175.043 115.141 174.53 124.94C173.986 134.712 161.834 139.146 152.725 139.085L150.495 152.414C150.495 152.414 149.137 157.089 154.023 158.626L135.416 158.686C135.416 158.686 139.365 157.089 140.602 151.117L144.191 134.078ZM136.261 204.255L138.432 191.136C138.432 191.136 140.815 202.173 149.562 202.626C158.337 203.048 159.936 193.791 159.936 192.914C159.936 192.041 159.123 188.06 154.418 186.491C149.743 184.924 143.35 183.988 143.984 173.917C144.648 163.814 153.271 159.199 160.268 160.165C167.294 161.129 169.558 163.633 172.271 163.09L170.853 170.116C170.853 170.116 167.628 163.09 161.684 163.18C155.744 163.299 153.03 166.769 153.03 171.082C153.03 175.395 154.781 176.692 158.127 176.902C161.472 177.113 172.271 179.074 169.557 191.166C166.872 203.26 157.375 205.551 153.364 205.643C146.818 205.734 141.3 203.35 139.46 203.471C137.617 203.589 136.802 203.74 136.261 204.255ZM194.917 199.64C194.917 199.64 193.74 205.579 188.763 205.579C183.817 205.579 183.425 202.744 184.028 198.252L186.804 181.816C186.804 181.816 187.257 177.744 185.535 177.744C183.817 177.744 182.974 178.921 182.189 182.419L177.484 204.645L168.921 204.585L175.915 169.875C175.915 169.875 177.153 165.321 174.588 162.758L185.808 162.878L183.366 174.699C183.366 174.699 187.918 171.593 190.962 172.136C193.98 172.649 195.307 175.302 194.13 181.755L191.205 197.528C191.206 197.528 189.971 202.292 194.917 199.64ZM227.304 204.072L225.946 212.607C225.946 212.607 225.433 216.045 229.086 217.312H213.824C213.824 217.312 217.566 214.929 218.862 209.381L224.922 179.223C224.922 179.223 225.252 174.972 222.448 179.917C222.448 179.917 221.485 180.16 221.998 178.47C222.511 176.751 225.166 171.474 228.843 171.804C232.524 172.136 232.854 174.518 232.854 174.518C232.854 174.518 236.865 172.226 240.363 173.162C243.861 174.098 248.476 175.485 246.001 190.17C243.53 204.859 234.393 205.521 232.583 205.521C230.804 205.52 229.086 205.188 227.304 204.072Z" fill="#C3282F"/>
<path fill-rule="evenodd" clip-rule="evenodd" d="M204.776 205.852C195.366 206.303 194.131 196.142 195.428 190.2C198.232 177.414 203.631 172.319 211.712 172.287C220.37 172.287 221.696 182.421 220.551 188.45C218.982 196.834 215.665 205.339 204.776 205.852ZM197.84 159.107C188.43 159.559 186.951 149.336 188.492 143.456C191.839 130.698 196.695 125.573 204.776 125.573C213.434 125.543 214.76 135.706 213.611 141.738C212.046 150.121 208.729 158.596 197.84 159.107ZM172.42 132.902C172.42 132.902 174.469 125.062 180.955 125.664C180.955 125.664 185.446 125.453 185.326 131.274C185.326 131.274 189.307 127.082 194.586 126.901L191.025 134.199C191.025 134.199 188.402 129.946 184.33 136.551C180.261 143.157 178.329 158.807 178.329 158.807H169.674C169.674 158.807 174.954 136.249 175.284 134.199C175.584 132.179 175.676 129.222 172.42 132.902ZM242.112 200.846L245.732 196.412C245.732 196.412 246.664 201.931 253.451 203.621C253.451 203.621 256.917 204.404 258.788 200.906C260.659 197.437 257.52 194.905 255.652 193.789C253.781 192.704 246.181 187.878 247.086 181.936C248.022 175.996 252.093 171.351 259.21 172.196C266.327 173.041 268.379 176.418 268.379 176.418L265.15 182.359C265.15 182.359 262.769 175.334 259.482 175.334C256.165 175.334 254.203 176.751 254.145 178.981C254.054 181.182 257.281 183.113 257.281 183.113C257.281 183.113 265.905 189.566 266.269 192.431C266.599 195.325 265.997 203.378 257.1 206.092C248.203 208.807 242.112 200.846 242.112 200.846Z" fill="#C3282F"/>
<path fill-rule="evenodd" clip-rule="evenodd" d="M131.645 112.516C132.61 111.068 133.696 108.806 134.42 105.397L141.176 74.4558C141.176 74.4558 142.533 70.0531 139.818 67.4301H142.109C143.316 69.9336 142.382 72.9185 142.382 72.9185L135.597 103.86C134.571 108.897 132.64 111.458 131.645 112.516ZM162.799 109.348C160.748 112.757 157.248 113.632 150.644 114.143C140.421 114.897 132.701 114.294 129.836 114.626C129.836 114.626 130.439 114.174 131.284 113.059C134.33 112.787 141.9 113.331 151.849 112.576C157.339 112.184 160.656 111.52 162.799 109.348Z" fill="black"/>
<path fill-rule="evenodd" clip-rule="evenodd" d="M161.078 87.7551C161.078 87.7551 168.046 88.9305 166.419 99.547C164.82 110.132 162.106 111.822 151.851 112.574C141.63 113.359 133.908 112.755 131.045 113.087C131.045 113.087 134.181 110.794 135.598 103.858L142.383 72.9168C142.383 72.9168 143.74 68.5142 141.027 65.8912L158.307 65.7999C158.307 65.7999 170.581 65.3782 169.493 76.0528C168.376 86.7308 161.078 87.7551 161.078 87.7551Z" fill="#C3282F"/>
<path fill-rule="evenodd" clip-rule="evenodd" d="M239.006 89.988L237.949 91.9187C237.949 91.9187 235.565 84.8914 232.281 84.8914C230.591 84.8914 229.233 85.2533 228.328 85.9173C228.931 84.3502 230.74 83.3541 233.455 83.3541C236.292 83.3524 238.432 88.4789 239.006 89.988ZM231.587 110.494C233.455 107.026 230.319 104.463 228.448 103.377C226.58 102.261 218.95 97.4353 219.885 91.4937C220.306 88.8392 221.364 86.4585 223.021 84.6789C222.025 86.2178 221.394 88.0274 221.092 89.9564C220.159 95.898 227.787 100.722 229.658 101.808C231.525 102.924 234.661 105.457 232.794 108.955C232.479 109.531 232.071 110.051 231.587 110.494Z" fill="black"/>
<path fill-rule="evenodd" clip-rule="evenodd" d="M214.879 110.404L216.148 108.897C216.661 109.561 222.601 116.708 231.106 114.115C233.758 113.3 235.658 112.005 237.046 110.525C235.658 112.635 233.456 114.566 229.899 115.652C221 118.365 214.879 110.404 214.879 110.404ZM216.54 88.8724L215.482 90.833C215.482 90.833 213.098 83.8073 209.811 83.8073C208.124 83.8073 206.8 84.1692 205.862 84.8333C206.464 83.2346 208.274 82.2401 211.02 82.2401C213.822 82.2368 215.965 87.3948 216.54 88.8724ZM209.117 109.408V109.378C210.988 105.91 207.852 103.377 205.981 102.261C204.114 101.176 196.513 96.3197 197.418 90.4096C197.84 87.7551 198.897 85.3429 200.554 83.5948C199.591 85.1039 198.927 86.9134 198.625 88.8425C197.692 94.7841 205.32 99.6084 207.188 100.726C209.059 101.811 212.195 104.375 210.327 107.843C209.964 108.503 209.572 109.016 209.117 109.408Z" fill="black"/>
<path fill-rule="evenodd" clip-rule="evenodd" d="M192.624 109.078L193.681 107.811C194.194 108.444 200.134 115.592 208.639 112.997C211.292 112.214 213.224 110.917 214.579 109.438C213.224 111.548 210.99 113.48 207.432 114.565C199.019 117.128 193.107 110.132 192.504 109.377C192.526 109.271 192.566 109.169 192.624 109.078ZM180.653 110.585C180.653 110.585 177.092 115.411 171.665 114.898C167.624 114.506 165.361 109.499 165.906 102.504C166.083 101.599 166.266 100.634 166.419 99.5486C166.538 98.9161 166.596 98.3118 166.63 97.769C166.84 96.8044 167.113 95.8084 167.443 94.814C168.587 91.165 170.277 88.0888 172.239 85.7662C170.79 87.8464 169.555 90.3797 168.62 93.275C165.242 104.041 167.443 112.848 172.872 113.361C178.3 113.874 181.86 109.018 181.86 109.018C181.86 109.018 183.214 112.999 187.619 112.999C189.006 112.999 190.092 112.456 190.874 111.702C190.061 113.12 188.676 114.568 186.412 114.568C182.007 114.566 180.653 110.585 180.653 110.585ZM165.936 84.9212C164.85 86.5797 163.582 87.6356 162.496 88.2697C161.682 87.848 161.078 87.7567 161.078 87.7567C161.078 87.7567 163.613 87.3948 165.936 84.9212Z" fill="black"/>
<path fill-rule="evenodd" clip-rule="evenodd" d="M216.086 108.865L219.734 104.463C219.734 104.463 220.67 109.951 227.453 111.639C227.453 111.639 230.923 112.425 232.794 108.955C234.662 105.457 231.526 102.924 229.658 101.808C227.787 100.722 220.157 95.8964 221.092 89.9564C222.026 84.0165 226.099 79.3714 233.216 80.2148C240.333 81.0598 242.353 84.4365 242.353 84.4365L239.156 90.3781C239.156 90.3781 236.772 83.3524 233.455 83.3524C230.169 83.3524 228.209 84.8001 228.117 87.0014C228.059 89.2044 231.253 91.1335 231.253 91.1335C231.253 91.1335 239.911 97.588 240.241 100.452C240.572 103.347 239.999 111.399 231.104 114.113C222.207 116.827 216.086 108.865 216.086 108.865Z" fill="#C3282F"/>
<path fill-rule="evenodd" clip-rule="evenodd" d="M193.648 107.75L197.267 103.347C197.267 103.347 198.204 108.865 204.987 110.555C204.987 110.555 208.457 111.309 210.328 107.841C212.195 104.373 209.059 101.81 207.188 100.724C205.321 99.6084 197.691 94.7824 198.625 88.8408C199.558 82.9308 203.632 78.2558 210.749 79.1008C217.866 79.9459 219.915 83.3541 219.915 83.3541L216.689 89.294C216.689 89.294 214.305 82.2385 211.021 82.2385C207.701 82.2385 205.742 83.6861 205.681 85.8875C205.59 88.0904 208.82 90.0494 208.82 90.0494C208.82 90.0494 217.445 96.4724 217.777 99.3677C218.14 102.233 217.534 110.285 208.639 112.999C199.741 115.712 193.648 107.75 193.648 107.75ZM181.858 109.016C181.858 109.016 178.297 113.872 172.87 113.359C167.443 112.846 165.24 104.041 168.618 93.2734C172.027 82.5074 180.168 76.4762 186.774 81.4815L187.104 80.4555H195.758L190.751 105.547C190.751 105.547 189.636 110.041 193.135 107.507C193.135 107.507 192.02 112.996 187.617 112.996C183.214 112.996 181.858 109.016 181.858 109.016Z" fill="#C3282F"/>
<path fill-rule="evenodd" clip-rule="evenodd" d="M147.81 109.861L144.432 109.951L148.564 90.2901C148.564 90.2901 155.922 89.2044 155.741 94.633C155.591 100.03 154.323 109.71 147.81 109.861ZM152.452 87.0014H149.226L152.273 70.9579C152.273 70.9579 152.361 69.0272 154.987 69.1185C157.61 69.1782 160.142 70.2938 159.811 75.4519C159.479 80.6381 157.099 87.0014 152.452 87.0014Z" fill="#ECCB3C"/>
<path fill-rule="evenodd" clip-rule="evenodd" d="M148.264 91.7676C150.193 91.6763 154.688 91.9187 154.536 96.1703C154.444 99.6084 153.903 104.765 151.821 108.113C154.899 105.035 155.621 98.6439 155.741 94.633C155.922 89.2044 148.564 90.2901 148.564 90.2901L148.264 91.7676ZM152.275 70.8965C152.663 70.747 153.146 70.6259 153.782 70.6557C156.405 70.747 158.967 71.8311 158.606 77.019C158.425 79.823 157.64 82.9905 156.194 85.313C158.395 83.0802 159.602 78.9796 159.813 75.4519C160.144 70.2955 157.612 69.1782 154.989 69.1185C152.663 69.0288 152.333 70.5362 152.275 70.8965Z" fill="black"/>
<path fill-rule="evenodd" clip-rule="evenodd" d="M186.171 83.6845L182.19 104.101C182.19 104.101 181.166 108.171 178.209 108.08C175.256 108.02 174.892 103.767 175.405 101.054C175.918 98.3417 181.255 78.8585 186.171 83.6845Z" fill="#ECCB3C"/>
<path fill-rule="evenodd" clip-rule="evenodd" d="M184.964 85.2217L180.983 105.668C180.983 105.668 180.802 106.453 180.319 107.326C181.677 106.151 182.19 104.101 182.19 104.101L186.171 83.6844C184.481 82.0243 182.763 83.2329 181.194 85.6451C182.401 84.3485 183.697 83.9866 184.964 85.2217Z" fill="black"/>
<path fill-rule="evenodd" clip-rule="evenodd" d="M153.42 136.007L156.918 118.033L160.987 117.973C160.987 117.973 166.477 118.575 165.481 125.09C164.486 131.574 160.446 136.792 153.42 136.007Z" fill="#ECCB3C"/>
<path fill-rule="evenodd" clip-rule="evenodd" d="M156.646 119.571L159.785 119.51C159.785 119.51 165.272 120.113 164.309 126.627C163.917 129.011 163.162 131.181 161.984 132.99C163.855 131 165.032 128.196 165.482 125.09C166.478 118.575 160.988 117.973 160.988 117.973L156.919 118.033L156.646 119.571Z" fill="black"/>
<path fill-rule="evenodd" clip-rule="evenodd" d="M198.956 155.248C195.881 155.307 195.428 149.578 195.911 146.532C196.907 140.23 199.377 129.132 204.354 129.222C207.641 129.282 207.011 135.554 206.494 138.781C205.47 145.416 203.239 155.128 198.956 155.248Z" fill="#ECCB3C"/>
<path fill-rule="evenodd" clip-rule="evenodd" d="M200.282 132.117C201.129 131.242 202.092 130.761 203.149 130.761C206.436 130.822 205.802 137.094 205.289 140.32C204.598 144.844 203.33 150.815 201.248 154.162C204.082 151.419 205.681 144.12 206.494 138.783C207.01 135.555 207.641 129.283 204.354 129.223C202.756 129.192 201.401 130.337 200.282 132.117Z" fill="black"/>
<path fill-rule="evenodd" clip-rule="evenodd" d="M228.42 199.308L230.712 185.706C231.134 183.354 232.522 177.806 236.955 177.686C240.816 177.595 239.428 185.044 239.006 187.335C238.581 189.656 235.839 202.744 231.315 202.533C229.899 202.473 228.692 201.149 228.42 199.308ZM205.892 201.99C202.817 202.082 202.364 196.291 202.847 193.245C203.843 186.973 206.317 175.875 211.291 175.933C214.578 175.994 213.947 182.298 213.434 185.523C212.406 192.131 210.175 201.902 205.892 201.99Z" fill="#ECCB3C"/>
<path fill-rule="evenodd" clip-rule="evenodd" d="M232.43 180.639C233.305 179.826 234.359 179.283 235.747 179.222C239.609 179.13 238.221 186.581 237.799 188.87C237.494 190.53 236.02 197.586 233.578 201.477C236.742 198.371 238.643 189.234 239.006 187.333C239.428 185.04 240.816 177.593 236.954 177.684C234.814 177.744 233.397 179.041 232.43 180.639Z" fill="#BD2930"/>
<path fill-rule="evenodd" clip-rule="evenodd" d="M207.221 178.83C208.065 177.985 209.031 177.474 210.085 177.503C213.372 177.563 212.741 183.835 212.228 187.062C211.534 191.556 210.266 197.528 208.184 200.906C211.021 198.162 212.62 190.834 213.434 185.525C213.947 182.3 214.577 175.996 211.29 175.935C209.692 175.935 208.337 177.08 207.221 178.83Z" fill="black"/>
<path fill-rule="evenodd" clip-rule="evenodd" d="M246.967 211.823C246.965 212.439 246.842 213.049 246.605 213.617C246.368 214.186 246.021 214.702 245.584 215.136C245.147 215.57 244.628 215.914 244.058 216.147C243.488 216.381 242.878 216.499 242.262 216.496C241.645 216.502 241.034 216.384 240.463 216.152C239.892 215.919 239.372 215.575 238.935 215.141C238.497 214.706 238.15 214.189 237.914 213.62C237.677 213.05 237.556 212.44 237.557 211.823C237.557 209.23 239.667 207.118 242.232 207.118C242.852 207.116 243.466 207.236 244.04 207.471C244.613 207.706 245.135 208.052 245.575 208.489C246.014 208.926 246.364 209.446 246.602 210.018C246.841 210.59 246.965 211.203 246.967 211.823Z" fill="#ECCB3C"/>
<path fill-rule="evenodd" clip-rule="evenodd" d="M240.271 214.597H241.026V212.064H242.955C244.162 212.064 243.83 213.15 243.951 213.844L244.071 214.597H244.976C244.645 214.084 244.765 213.963 244.707 213.18C244.612 212.154 244.584 212.062 243.98 211.7C244.554 211.249 244.793 210.977 244.765 210.221C244.674 208.895 243.802 208.744 242.894 208.744H240.271V214.597Z" fill="black"/>
<path fill-rule="evenodd" clip-rule="evenodd" d="M242.894 209.409C243.377 209.409 244.101 209.531 243.98 210.527C243.922 211.28 243.409 211.4 242.894 211.4H241.026V209.409H242.894Z" fill="#ECCB3C"/>
</g>
<defs>
<clipPath id="clip0_95_73">
<rect width="300" height="300" fill="white"/>
</clipPath>
</defs>
</svg>
