<svg width="300" height="300" viewBox="0 0 300 300" fill="none" xmlns="http://www.w3.org/2000/svg">
<path d="M289.26 192.462C292.096 192.462 294.524 190.247 294.524 187.216C294.524 184.215 292.1 181.996 289.26 181.996C286.395 181.996 283.97 184.211 283.97 187.216C283.97 190.247 286.395 192.462 289.26 192.462ZM295.818 158.803L285.259 159.379C285.105 158.389 283.558 152.461 279.62 148.083L282.534 144.207L279.587 140.655H270.59L254.856 158.851H247.564C247.564 158.851 247.457 164.462 247.402 165.045C246.135 166.895 243.207 167.526 242.222 167.648C242.218 167.616 242.215 167.584 242.215 167.552C242.215 166.448 246.204 161.483 246.204 161.483V155.48L240.859 151.841C240.625 150.275 240.405 148.707 240.202 147.138C238.015 144.779 234.994 143.378 231.789 143.236C223.685 142.937 215.452 150.427 214.872 150.966C208.619 155.34 200.702 168.113 199.688 169.763C196.103 172.801 192.121 174.089 189.204 174.628C187.073 174.521 187.554 172.945 187.565 172.901C201.433 164.65 212.293 152.631 212.403 152.509C220.18 144.753 224.122 137.167 224.122 129.95C224.104 124.958 222.136 120.172 218.641 116.624C216.407 113.8 213.792 112.892 213.601 112.833L213.365 112.755L213.123 112.785C189.262 115.468 173.128 163.425 171.493 168.478C163.099 174.868 158.165 175.319 155.593 174.68C171.232 171.203 172.834 161.368 172.929 160.689C175.427 149.146 163.855 145.277 163.855 145.277C150.105 142.475 139.12 158.718 137.078 161.966C136.222 161.966 132.798 161.778 131.288 161.778C131.318 161.383 131.633 154.458 128.581 151.56C137.93 141.593 140.674 129.489 140.788 128.979C138.984 112.847 128.202 109.444 127.754 109.315C108.386 111.456 91.2009 161.335 89.7204 165.791C86.3847 169.527 85.334 168.249 85.2128 168.175C85.2532 167.293 89.3824 162.38 89.3824 162.38L89.1253 155.477L83.7948 151.97C84.3275 145.502 80.0256 143.945 80.0256 143.945C61.6278 138.496 46.9147 162.623 45.3901 165.222C41.5511 167.895 38.186 169.615 35.2728 170.686C30.7321 171.627 27.4111 171.228 25.3722 169.497C22.6537 167.182 23.2599 163.199 23.2672 163.159C24.5897 143.258 46.742 124.232 46.9625 124.044C51.3819 120.592 53.5714 120.43 54.6478 120.858C56.2091 121.478 51.9109 129.212 51.9109 129.212L54.9748 136.469L64.6071 142.833C64.9414 142.202 73.3211 126.727 69.1625 116.295C67.5718 112.312 64.4712 109.525 59.9416 108.008C59.1223 107.679 38.2117 99.9345 11.6914 133.25C11.5592 133.413 0.284672 147.282 0.134051 163.934C-0.218622 166.057 -0.519864 180.978 10.7289 188.187C10.8465 188.268 23.9248 196.825 45.0742 182.015C45.2468 182.303 45.5885 188.302 50.5333 190.295C54.6478 191.956 60.0444 191.148 67.0134 186.958C67.3991 187.836 68.9641 190.823 72.6415 191.731C77.4871 192.927 83.8058 190.022 91.414 183.119C92.2222 184.791 97.1559 193.735 109.694 192.499C109.837 192.48 123.805 190.472 131.714 174.004C131.953 174.063 133.018 174.03 133.257 174.089C133.265 175.138 133.298 182.369 137.915 186.965C141.001 190.04 145.362 191.506 150.869 191.329C150.957 191.34 162.694 192.373 173.227 184.045C173.84 185.016 176.878 189.361 182.613 190.59C188.087 191.764 194.586 189.176 201.386 184.163C202.271 185.057 209.306 192.794 214.581 190.336L223.284 185.961C224.018 187.152 224.992 188.176 226.144 188.966C227.295 189.755 228.599 190.294 229.971 190.546C235.466 191.616 242.274 188.641 250.198 181.731C251.072 183.218 256.428 191.639 264.977 190.742C265.087 190.734 277.06 189.804 281.736 176.751H289.899C290.079 176.695 299.208 172.897 299.991 165.078L295.818 158.803Z" fill="black"/>
<path d="M287.291 168.788L276.645 168.958C276.608 169.091 272.997 182.233 261.627 182.727C261.252 182.772 252.828 183.584 250.863 172.546L250.826 172.354H248.523L248.457 172.41C248.313 172.531 234.192 184.344 227.101 181.963C225.246 181.343 223.88 179.619 223.31 177.142C223.207 177.209 212.653 183.547 208.898 182.565C208.825 182.55 202.918 181.206 201.125 176.289C200.996 176.378 187.69 184.979 179.329 182.181C176.596 181.266 174.502 179.084 173.378 175.953C173.175 176.075 152.845 188.091 141.409 183.595C141.314 183.569 134.161 181.424 135.972 168.537L127.085 168.39C126.99 168.556 117.358 184.928 104.448 184.429C90.6609 185.455 90.2311 174.174 90.2311 174.174C80.2718 183.255 73.8759 185.009 70.9921 184.115C67.7702 183.115 66.3926 178.176 66.3559 178.032C59.0563 182.705 52.2343 185.027 48.9059 183.178C45.2653 181.155 45.2726 173.569 45.2726 173.569C45.2726 173.569 26.9887 187.264 11.6952 182.48C6.69165 180.915 5.19646 177.386 5.13768 177.242C-4.12734 156.385 13.2969 134.922 13.4733 134.708C38.8657 102.818 58.9681 110.097 59.1665 110.175C59.273 110.212 65.1252 112.091 65.5256 121.323C65.7938 127.41 62.7226 133.512 62.1973 134.609C59.6185 132.883 57.0469 131.147 54.4826 129.4C55.3679 127.864 57.5501 123.737 57.5501 120.212C57.5501 118.421 56.9843 116.786 55.3936 115.734C55.0667 115.483 53.2629 114.239 49.7766 114.652C44.9236 115.228 36.6211 119.193 24.6339 134.827C23.8661 135.72 4.98706 158.094 18.745 171.712C19.1013 172.066 27.9439 180.225 47.0801 166.806C47.2234 166.551 62.0026 141.191 79.2248 146.122C83.1226 148.684 80.9184 152.834 80.9184 152.834L86.822 156.717C79.8309 162.007 77.7884 166.389 77.3402 169.183C76.8406 172.284 78.1043 174.06 78.1557 174.137C79.0264 174.983 80.055 175.344 81.2343 175.248C85.9109 174.864 91.8071 166.784 91.8071 166.784C91.9798 166.252 109.261 114.054 127.567 111.644C132.309 112.604 135.039 124.295 135.193 125.088C134.561 135.923 121.116 148.599 120.995 148.718C130.939 151.442 128.875 164.1 128.875 164.1H138.015C138.015 164.1 150.024 144.871 163.341 147.533C163.764 147.677 167 148.858 169.123 151.759C169.759 155.373 167.882 158.836 167.86 158.877C162.573 169.172 146.747 168.869 146.589 168.862C145.759 180.464 157.551 177.67 160.509 176.869C164.168 176.031 168.627 173.51 173.389 169.844C173.55 169.327 190.071 118.071 213.116 115.121C214.199 115.564 219.398 118.119 219.537 126.702C219.537 126.716 219.545 126.801 219.545 126.953C219.545 129.223 218.773 144.642 181.923 168.408C177.723 175.385 184.92 177.02 184.92 177.02C185.295 177.042 194.046 177.644 201.419 171.295C201.503 171.155 210.169 156.979 216.323 152.749C216.459 152.62 229.956 140.242 237.898 148.36L238.758 153.21L243.13 156.186C235.33 162.454 233.314 167.042 233.034 169.815C232.785 172.28 233.832 173.539 233.876 173.591C238.563 176.758 248.427 167.282 249.074 166.219C249.074 166.219 249.526 162.55 249.65 161.162H255.892L271.63 142.966H275.465C272.394 146.757 274.969 149.592 274.999 149.622C278.606 153.908 278.077 162.037 278.07 162.121C278.07 162.121 292.838 161.383 293.411 161.346C293.202 162.317 292.026 166.245 287.291 168.788Z" fill="white"/>
<path d="M259.536 125.033C259.536 125.033 255.668 136.886 253.346 139.219L257.795 143.686L266.112 143.49L273.654 130.474L269.205 123.091L259.536 125.033Z" fill="black"/>
<path d="M261.469 127.17C261.469 127.17 258.181 136.303 257.02 137.47L262.821 137.665C262.821 137.665 266.303 130.67 267.075 126.591C267.075 126.587 262.821 127.17 261.469 127.17Z" fill="white"/>
<path d="M103.093 157.873C103.093 157.873 118.173 122.117 126.104 125.229C126.101 125.229 136.74 127.946 103.093 157.873ZM183.296 161.952C183.296 161.952 199.538 123.446 210.706 129.23C210.706 129.23 220.514 139.603 183.296 161.952ZM256.561 168.168C256.561 168.168 263.423 169.18 266.542 168.847C266.542 168.847 267.898 175.817 260.793 175.307C260.789 175.307 254.68 175.813 256.561 168.168ZM260.851 162.033C260.851 162.033 267.387 162.723 269.418 162.044C269.418 162.044 271.703 158.507 269.165 152.387L260.851 162.033ZM114.084 155.414L100.716 165.444C100.716 165.444 98.0669 174.58 103.526 177.57C109.617 180.287 117.468 174.285 120.006 169.017C120.006 169.017 123.052 159.327 114.084 155.414Z" fill="black"/>
<path d="M106.638 169.866C107.99 169.017 115.774 162.384 115.774 162.384C115.774 162.384 120.513 166.127 115.095 172.417C115.095 172.417 109.004 177.519 107.483 174.458C107.486 174.458 106.638 171.908 106.638 169.866Z" fill="white"/>
<path d="M73.3027 152.014C73.3027 152.014 80.4113 154.395 73.1337 164.425C73.1337 164.425 64.6733 177.179 57.7373 173.27C57.7373 173.27 52.3223 169.021 61.1208 159.327C61.1208 159.327 68.3947 151.331 73.3027 152.014Z" fill="black"/>
<path d="M72.6269 157.965C72.6269 157.965 75.6724 158.304 70.0884 165.108C70.0884 165.108 66.7049 171.059 64.1664 169.187C64.1664 169.187 63.1194 168.15 67.1788 161.516C67.1788 161.516 70.0884 157.795 72.6269 157.965Z" fill="white"/>
<path d="M230.838 151.331C230.838 151.331 237.946 153.716 230.669 163.746C230.669 163.746 222.208 176.5 215.272 172.587C215.272 172.587 209.857 168.338 218.659 158.644C218.659 158.644 225.933 150.652 230.838 151.331Z" fill="black"/>
<path d="M230.154 157.297C230.154 157.297 233.174 157.821 227.186 164.27C227.186 164.27 223.108 170.87 220.687 168.851C220.687 168.851 219.445 167.4 223.902 161.029C223.902 161.029 227.63 156.972 230.154 157.297Z" fill="white"/>
<path d="M148.264 164.765C148.264 164.765 146.571 162.893 152.155 156.942C152.155 156.942 158.246 150.139 160.788 152.18C160.788 152.18 165.185 154.561 157.742 161.191C157.742 161.191 156.049 164.255 148.264 164.765Z" fill="black"/>
<path d="M191.918 154.056C191.918 154.056 202.748 133.653 209.857 132.63C209.857 132.63 209.857 141.471 191.918 154.056ZM285.017 187.216C285.017 184.739 286.876 182.868 289.26 182.868C291.615 182.868 293.474 184.739 293.474 187.216C293.474 189.738 291.611 191.591 289.26 191.591C286.876 191.591 285.017 189.738 285.017 187.216Z" fill="white"/>
<path d="M288.158 187.63H289.205L290.792 190.247H291.81L290.101 187.589C290.983 187.478 291.659 187.006 291.659 185.928C291.659 184.739 290.957 184.211 289.535 184.211H287.25V190.247H288.158V187.63Z" fill="black"/>
<path d="M288.158 186.854V184.987H289.4C290.035 184.987 290.707 185.123 290.707 185.873C290.707 186.799 290.017 186.854 289.249 186.854H288.158Z" fill="white"/>
</svg>
