<svg width="300" height="300" viewBox="0 0 300 300" fill="none" xmlns="http://www.w3.org/2000/svg">
<path d="M147.837 148.804L124.555 139.601V164.632L147.837 173.834L171.12 164.632V139.601L147.837 148.804ZM163.62 158.88L147.837 165.046L132.055 158.88V151.426L147.837 157.592L163.62 151.426V158.88Z" fill="#FF5100"/>
<path d="M124.555 121.564V137.807L132.009 140.89V132.975L147.791 139.555L163.574 132.975V140.89L171.028 137.807V121.564L147.745 130.767L124.555 121.564Z" fill="#FF5100"/>
<path d="M73.2056 127.27H82.8681V136.472H73.2056V127.27Z" fill="black"/>
<path d="M85.4907 159.34H95.1533V145.721L85.4907 132.561V159.34Z" fill="black"/>
<path d="M107.899 140.015L117.561 152.301V127.27H107.899V140.015Z" fill="black"/>
<path d="M95.1533 127.27H85.4907V129.479L107.853 159.34H117.515V154.969L104.77 139.187L95.1533 127.27Z" fill="black"/>
<path d="M28.8957 147.469L20.9815 127.27H12.6533L24.5245 159.294H33.3128L35.9355 151.38V129.018L28.8957 147.469Z" fill="black"/>
<path d="M9.98462 127.27V159.294H19.6472V150.966L10.8589 127.27H9.98462Z" fill="black"/>
<path d="M50.3835 127.27H60.0461V136.472H50.3835V127.27Z" fill="black"/>
<path d="M61.3804 127.27H71.4571V159.294H61.3804V127.27Z" fill="black"/>
<path d="M37.6379 127.27H47.3005V159.294H37.6379V127.27Z" fill="black"/>
<path d="M283.436 143.512L263.236 136.472V135.598H268.482V127.684H257.071C255.736 127.684 254.862 128.144 254.448 129.018C253.988 129.893 253.574 130.767 253.574 132.101V140.429C253.574 141.304 253.574 141.764 254.034 142.638C254.494 143.098 254.908 143.512 255.782 143.972L275.982 151.012V152.347H270.276V160.261H282.147C283.482 160.261 284.356 159.801 284.77 158.926C285.23 158.052 285.644 157.178 285.644 155.844V147.515C285.644 146.641 285.644 146.181 285.184 145.307C284.77 144.387 284.31 143.972 283.436 143.512Z" fill="black"/>
<path d="M282.147 127.27H270.276V135.184H275.982V137.807H286.058V131.227C286.058 129.893 285.598 129.018 285.184 128.144C283.896 127.73 283.022 127.27 282.147 127.27Z" fill="black"/>
<path d="M263.236 147.929H253.159V154.969C253.159 156.304 253.62 157.178 254.034 158.052C254.494 158.926 255.368 159.386 256.656 159.386H268.067V151.472H263.236V147.929Z" fill="black"/>
<path d="M218.052 127.27H227.715V159.294H218.052V127.27Z" fill="black"/>
<path d="M178.988 128.604C178.528 129.479 178.114 130.353 178.114 131.687V155.383C178.114 156.718 178.574 157.592 178.988 158.466C179.448 159.34 180.322 159.801 181.61 159.801H195.644V151.012H187.73V136.104H195.644V127.316H181.61C180.322 127.27 179.448 127.73 178.988 128.604Z" fill="black"/>
<path d="M211.886 127.27H197.393V136.058H205.307V150.966H197.393V159.755H211.886C213.221 159.755 213.635 159.294 214.509 158.42C214.969 157.546 215.383 156.672 215.383 155.337V131.641C215.383 130.307 214.923 129.433 214.509 128.558C213.681 127.73 212.761 127.27 211.886 127.27Z" fill="black"/>
<path d="M247.454 127.27H229.463V136.058H240.874V143.098H229.463V151.426H247.454C248.788 151.426 249.663 150.966 250.077 150.092C250.537 149.218 250.951 148.344 250.951 147.009V131.641C250.951 130.307 250.491 129.433 250.077 128.558C249.202 127.73 248.328 127.27 247.454 127.27Z" fill="black"/>
</svg>
