<svg width="332" height="212" viewBox="0 0 332 212" fill="none" xmlns="http://www.w3.org/2000/svg">
<g filter="url(#filter0_d_689_2)">
<g clip-path="url(#clip0_689_2)">
<rect x="8" y="6" width="300" height="180" rx="10" fill="url(#paint0_linear_689_2)"/>
<path d="M310.753 -27.4606L210.074 30.6698L310.753 88.8172V48.4633L279.94 30.68L310.753 12.8934V-27.4606Z" fill="#C63B0B"/>
<path d="M291.221 117.859L216.234 74.5674C214.875 73.7769 214.183 72.5775 214.183 71.0101C214.183 69.4359 214.875 68.2399 216.234 67.4528L229.837 59.6021L195.272 39.6483C185.145 47.0083 179.298 58.2562 179.247 71.1532C179.302 85.1951 186.593 97.7787 198.761 104.818L273.762 148.12C275.121 148.9 275.81 150.093 275.81 151.66C275.81 153.227 275.121 154.42 273.758 155.207L245 171.811L179.247 133.86V174.207L244.996 212.159L291.221 185.468C303.444 178.415 310.746 165.777 310.746 151.663C310.746 137.55 303.447 124.912 291.221 117.859Z" fill="#C63B0B"/>
<g clip-path="url(#clip1_689_2)">
<path d="M37.568 114.259C37.568 114.823 37.4418 115.331 37.1895 115.783C36.9373 116.238 36.5927 116.623 36.1559 116.939C35.7191 117.255 35.2089 117.5 34.629 117.67C34.0492 117.841 33.4241 117.928 32.7539 117.928C32.2342 117.928 31.7391 117.852 31.2684 117.701C30.7977 117.549 30.3572 117.342 29.9467 117.081C29.5363 116.82 29.1673 116.511 28.8397 116.153C28.5121 115.795 28.2316 115.41 28 114.999L30.376 113.927C30.6076 114.327 30.9427 114.687 31.3795 115.009C31.8163 115.333 32.2738 115.507 32.752 115.535C33.0118 115.535 33.2716 115.511 33.5314 115.463C33.7912 115.416 34.019 115.333 34.2186 115.215C34.4163 115.1 34.5763 114.954 34.7006 114.783C34.823 114.611 34.8851 114.408 34.8851 114.175C34.8851 113.997 34.823 113.832 34.7006 113.681C34.5782 113.529 34.4144 113.395 34.2092 113.279C34.004 113.164 33.7743 113.06 33.522 112.971C33.2697 112.881 33.0193 112.802 32.7746 112.734C32.2549 112.582 31.7391 112.408 31.227 112.209C30.7149 112.01 30.2574 111.77 29.8545 111.487C29.4516 111.205 29.1277 110.883 28.8811 110.517C28.6345 110.154 28.5121 109.737 28.5121 109.269C28.5121 108.746 28.6269 108.256 28.8604 107.795C29.092 107.335 29.4102 106.935 29.8131 106.6C30.216 106.263 30.6942 106 31.2477 105.806C31.8012 105.613 32.398 105.518 33.04 105.518C34.036 105.518 34.9152 105.763 35.6721 106.25C36.4308 106.738 36.9937 107.352 37.3627 108.095L35.0884 109.104C34.8286 108.746 34.5311 108.455 34.1979 108.227C33.8628 108 33.4768 107.886 33.04 107.886C32.5618 107.9 32.1382 108.017 31.7692 108.237C31.4002 108.456 31.2157 108.765 31.2157 109.165C31.2157 109.316 31.2703 109.453 31.3795 109.578C31.4887 109.701 31.6355 109.815 31.82 109.919C32.0045 110.021 32.2135 110.112 32.4451 110.186C32.6767 110.262 32.9158 110.334 33.1624 110.402C33.7235 110.567 34.2657 110.756 34.791 110.968C35.3162 111.182 35.785 111.436 36.1936 111.732C36.604 112.027 36.9335 112.381 37.1877 112.794C37.4418 113.207 37.568 113.696 37.568 114.259Z" fill="white"/>
<path d="M44.4942 106.094C45.0139 106.094 45.5053 106.191 45.9703 106.382C46.4334 106.575 46.8401 106.835 47.1903 107.166C47.5386 107.496 47.8154 107.884 48.0206 108.331C48.2258 108.778 48.3275 109.256 48.3275 109.763C48.3275 110.286 48.2239 110.771 48.0206 111.216C47.8154 111.663 47.5386 112.059 47.1903 112.402C46.842 112.747 46.4353 113.014 45.9703 113.205C45.5053 113.399 45.0139 113.493 44.4942 113.493H41.4424V117.719H38.7783V106.09H44.4942V106.094ZM41.4424 111.144H44.2495C44.6449 111.144 44.9838 111.014 45.2643 110.752C45.5448 110.491 45.6841 110.161 45.6841 109.763C45.6841 109.407 45.5448 109.093 45.2643 108.826C44.9838 108.559 44.6449 108.424 44.2495 108.424H41.4424V111.144Z" fill="white"/>
<path d="M73.7767 105.888V118.299L65.826 111.021V117.557H63.1826V105.124L71.1333 112.444V105.888H73.7767Z" fill="white"/>
<path d="M84.4723 114.259C84.4723 114.823 84.3461 115.331 84.0938 115.783C83.8416 116.238 83.497 116.623 83.0602 116.939C82.6234 117.255 82.1132 117.5 81.5333 117.67C80.9535 117.841 80.3284 117.928 79.6582 117.928C79.1385 117.928 78.6434 117.852 78.1727 117.701C77.702 117.549 77.2615 117.342 76.851 117.081C76.4406 116.82 76.0716 116.511 75.744 116.153C75.4164 115.795 75.1359 115.41 74.9043 114.999L77.2803 113.927C77.5119 114.327 77.847 114.687 78.2838 115.009C78.7206 115.333 79.1781 115.507 79.6563 115.535C79.9161 115.535 80.1759 115.511 80.4357 115.463C80.6955 115.416 80.9233 115.333 81.1229 115.215C81.3206 115.1 81.4806 114.954 81.6049 114.783C81.7273 114.611 81.7894 114.408 81.7894 114.175C81.7894 113.997 81.7273 113.832 81.6049 113.681C81.4825 113.529 81.3187 113.395 81.1135 113.279C80.9083 113.164 80.6786 113.06 80.4263 112.971C80.174 112.881 79.9236 112.802 79.6789 112.734C79.1592 112.582 78.6434 112.408 78.1313 112.209C77.6192 112.01 77.1617 111.77 76.7588 111.487C76.3559 111.205 76.032 110.883 75.7854 110.517C75.5388 110.154 75.4164 109.737 75.4164 109.269C75.4164 108.746 75.5312 108.256 75.7647 107.795C75.9963 107.335 76.3145 106.935 76.7174 106.6C77.1203 106.263 77.5985 106 78.152 105.806C78.7055 105.613 79.3023 105.518 79.9443 105.518C80.9403 105.518 81.8195 105.763 82.5764 106.25C83.3351 106.738 83.898 107.352 84.267 108.095L81.9927 109.104C81.7329 108.746 81.4354 108.455 81.1022 108.227C80.7671 108 80.3811 107.886 79.9443 107.886C79.4661 107.9 79.0425 108.017 78.6735 108.237C78.3045 108.456 78.12 108.765 78.12 109.165C78.12 109.316 78.1746 109.453 78.2838 109.578C78.393 109.701 78.5398 109.815 78.7243 109.919C78.9088 110.021 79.1178 110.112 79.3494 110.186C79.581 110.262 79.8201 110.334 80.0667 110.402C80.6278 110.567 81.17 110.756 81.6953 110.968C82.2205 111.182 82.6893 111.436 83.0979 111.732C83.5083 112.027 83.8378 112.381 84.0919 112.794C84.3461 113.207 84.4723 113.696 84.4723 114.259Z" fill="white"/>
<path d="M109.736 117.721H106.334L101.97 112.277V117.721H99.3057V106.092H105.022C105.554 106.092 106.053 106.189 106.518 106.38C106.981 106.574 107.388 106.833 107.736 107.165C108.085 107.494 108.358 107.882 108.555 108.33C108.753 108.777 108.853 109.254 108.853 109.762C108.853 110.188 108.787 110.589 108.659 110.968C108.529 111.347 108.345 111.69 108.105 111.999C107.866 112.308 107.582 112.573 107.254 112.792C106.927 113.012 106.571 113.185 106.189 113.308L109.736 117.721ZM101.97 111.144H104.798C105.193 111.144 105.532 111.014 105.812 110.752C106.093 110.491 106.232 110.161 106.232 109.764C106.232 109.407 106.093 109.093 105.812 108.826C105.532 108.559 105.195 108.424 104.798 108.424H101.97V111.144Z" fill="white"/>
<path d="M119.47 115.372V117.723H110.638V106.094H113.281V115.372H119.47Z" fill="white"/>
<path d="M128.731 106.094V108.424H120.637V106.094H128.731ZM123.321 115.391H128.731V117.721H120.637V110.608H128.486V112.836H123.321V115.391Z" fill="white"/>
<path d="M139.345 114.259C139.345 114.823 139.219 115.331 138.967 115.783C138.715 116.238 138.37 116.623 137.933 116.939C137.496 117.255 136.986 117.5 136.406 117.67C135.827 117.841 135.201 117.928 134.531 117.928C134.012 117.928 133.516 117.852 133.046 117.701C132.575 117.549 132.134 117.342 131.724 117.081C131.314 116.82 130.945 116.511 130.617 116.153C130.289 115.795 130.009 115.41 129.777 114.999L132.153 113.927C132.385 114.327 132.72 114.687 133.157 115.009C133.594 115.333 134.051 115.507 134.529 115.535C134.789 115.535 135.049 115.511 135.309 115.463C135.569 115.416 135.796 115.333 135.996 115.215C136.194 115.1 136.354 114.954 136.478 114.783C136.6 114.611 136.662 114.408 136.662 114.175C136.662 113.997 136.6 113.832 136.478 113.681C136.356 113.529 136.192 113.395 135.987 113.279C135.781 113.164 135.552 113.06 135.299 112.971C135.047 112.881 134.797 112.802 134.552 112.734C134.032 112.582 133.516 112.408 133.004 112.209C132.492 112.01 132.035 111.77 131.632 111.487C131.229 111.205 130.905 110.883 130.658 110.517C130.412 110.154 130.289 109.737 130.289 109.269C130.289 108.746 130.404 108.256 130.638 107.795C130.869 107.335 131.187 106.935 131.59 106.6C131.993 106.263 132.472 106 133.025 105.806C133.579 105.613 134.175 105.518 134.817 105.518C135.813 105.518 136.693 105.763 137.449 106.25C138.208 106.738 138.771 107.352 139.14 108.095L136.866 109.104C136.606 108.746 136.308 108.455 135.975 108.227C135.64 108 135.254 107.886 134.817 107.886C134.339 107.9 133.916 108.017 133.547 108.237C133.178 108.456 132.993 108.765 132.993 109.165C132.993 109.316 133.048 109.453 133.157 109.578C133.266 109.701 133.413 109.815 133.597 109.919C133.782 110.021 133.991 110.112 134.222 110.186C134.454 110.262 134.693 110.334 134.94 110.402C135.501 110.567 136.043 110.756 136.568 110.968C137.094 111.182 137.562 111.436 137.971 111.732C138.381 112.027 138.711 112.381 138.965 112.794C139.217 113.207 139.345 113.696 139.345 114.259Z" fill="white"/>
<path d="M150 114.259C150 114.823 149.873 115.331 149.621 115.783C149.369 116.238 149.024 116.623 148.588 116.939C148.151 117.255 147.641 117.5 147.061 117.67C146.481 117.841 145.856 117.928 145.185 117.928C144.666 117.928 144.171 117.852 143.7 117.701C143.229 117.549 142.789 117.342 142.378 117.081C141.968 116.82 141.599 116.511 141.271 116.153C140.944 115.795 140.663 115.41 140.432 114.999L142.808 113.927C143.039 114.327 143.374 114.687 143.811 115.009C144.248 115.333 144.705 115.507 145.184 115.535C145.443 115.535 145.703 115.511 145.963 115.463C146.223 115.416 146.451 115.333 146.65 115.215C146.848 115.1 147.008 114.954 147.132 114.783C147.256 114.613 147.317 114.408 147.317 114.175C147.317 113.997 147.255 113.832 147.132 113.681C147.01 113.529 146.846 113.395 146.641 113.279C146.436 113.164 146.206 113.06 145.954 112.971C145.701 112.881 145.451 112.802 145.206 112.734C144.687 112.582 144.171 112.408 143.659 112.209C143.147 112.01 142.689 111.77 142.286 111.487C141.883 111.205 141.559 110.883 141.313 110.517C141.066 110.154 140.944 109.737 140.944 109.269C140.944 108.746 141.059 108.256 141.292 107.795C141.524 107.335 141.842 106.935 142.245 106.6C142.648 106.263 143.126 106 143.679 105.806C144.233 105.613 144.83 105.518 145.472 105.518C146.468 105.518 147.347 105.763 148.104 106.25C148.862 106.738 149.425 107.352 149.794 108.095L147.52 109.104C147.26 108.746 146.963 108.455 146.63 108.227C146.294 108 145.908 107.886 145.472 107.886C144.993 107.9 144.57 108.017 144.201 108.237C143.832 108.456 143.647 108.765 143.647 109.165C143.647 109.316 143.702 109.453 143.811 109.578C143.92 109.701 144.067 109.815 144.252 109.919C144.436 110.021 144.645 110.112 144.877 110.186C145.108 110.262 145.347 110.334 145.594 110.402C146.155 110.567 146.697 110.756 147.223 110.968C147.748 111.182 148.217 111.436 148.625 111.732C149.036 112.027 149.365 112.381 149.619 112.794C149.873 113.207 150 113.696 150 114.259Z" fill="white"/>
<path d="M55.4426 118.818L49.6777 115.469V108.348L55.4426 104.999L61.2075 108.348V115.469L55.4426 118.818ZM52.306 113.942L55.4407 115.763L58.5754 113.942V109.875L55.4407 108.053L52.306 109.875V113.942Z" fill="white"/>
<path d="M89.1732 109.565L91.7751 108.053L94.9098 109.875V112.897L97.54 114.423V108.348L91.7751 104.999L86.5449 108.038L89.1732 109.565Z" fill="white"/>
<path d="M94.3766 114.253L91.7746 115.763L88.638 113.942V110.919L86.0098 109.392V115.469L91.7746 118.818L97.0048 115.78L94.3766 114.253Z" fill="white"/>
<path d="M95.2062 76.7501L85.7041 82.27L95.2062 87.7918V83.9597L92.2974 82.2719L95.2062 80.5822V76.7501Z" fill="white"/>
<path d="M93.3626 90.5499L86.2855 86.4393C86.1575 86.3635 86.0916 86.2499 86.0916 86.1021C86.0916 85.9525 86.1575 85.8388 86.2855 85.7649L87.5695 85.0205L84.3067 83.1262C83.3503 83.8252 82.7987 84.8936 82.7949 86.1173C82.8006 87.4508 83.4878 88.6461 84.6362 89.3148L91.7133 93.4273C91.8414 93.5012 91.9073 93.6148 91.9073 93.7645C91.9073 93.9141 91.8433 94.0259 91.7133 94.1016L89.0004 95.672L82.7949 92.0672V95.8993L89.0004 99.5022L93.3626 96.9677C94.5167 96.2971 95.2058 95.098 95.2058 93.7588C95.2058 92.4195 94.5167 91.2186 93.3626 90.5499Z" fill="#F5F5F5"/>
</g>
<path d="M33.0757 169.18C32.2117 169.18 31.4757 168.992 30.8677 168.616C30.2597 168.236 29.7937 167.708 29.4697 167.032C29.1497 166.356 28.9897 165.572 28.9897 164.68C28.9897 163.788 29.1497 163.004 29.4697 162.328C29.7937 161.652 30.2597 161.126 30.8677 160.75C31.4757 160.37 32.2117 160.18 33.0757 160.18C34.0717 160.18 34.8957 160.432 35.5477 160.936C36.2037 161.44 36.6597 162.118 36.9157 162.97L35.6437 163.312C35.4757 162.708 35.1757 162.234 34.7437 161.89C34.3157 161.546 33.7597 161.374 33.0757 161.374C32.4637 161.374 31.9537 161.512 31.5457 161.788C31.1377 162.064 30.8297 162.45 30.6217 162.946C30.4177 163.442 30.3157 164.02 30.3157 164.68C30.3117 165.34 30.4117 165.918 30.6157 166.414C30.8237 166.91 31.1317 167.296 31.5397 167.572C31.9517 167.848 32.4637 167.986 33.0757 167.986C33.7597 167.986 34.3157 167.814 34.7437 167.47C35.1757 167.122 35.4757 166.648 35.6437 166.048L36.9157 166.39C36.6597 167.242 36.2037 167.92 35.5477 168.424C34.8957 168.928 34.0717 169.18 33.0757 169.18ZM38.8353 169V162.52H39.9513V164.092L39.7953 163.888C39.8753 163.68 39.9793 163.49 40.1073 163.318C40.2353 163.142 40.3833 162.998 40.5513 162.886C40.7153 162.766 40.8973 162.674 41.0973 162.61C41.3013 162.542 41.5093 162.502 41.7213 162.49C41.9333 162.474 42.1373 162.484 42.3333 162.52V163.696C42.1213 163.64 41.8853 163.624 41.6253 163.648C41.3693 163.672 41.1333 163.754 40.9173 163.894C40.7133 164.026 40.5513 164.186 40.4313 164.374C40.3153 164.562 40.2313 164.772 40.1793 165.004C40.1273 165.232 40.1013 165.474 40.1013 165.73V169H38.8353ZM44.1959 161.458V160.24H45.4499V161.458H44.1959ZM44.1959 169V162.52H45.4499V169H44.1959ZM55.6157 169L55.6217 164.962C55.6217 164.494 55.5017 164.13 55.2617 163.87C55.0217 163.606 54.7057 163.474 54.3137 163.474C54.0737 163.474 53.8537 163.53 53.6537 163.642C53.4577 163.75 53.2977 163.914 53.1737 164.134C53.0537 164.35 52.9937 164.622 52.9937 164.95L52.3877 164.644C52.3797 164.188 52.4757 163.788 52.6757 163.444C52.8797 163.1 53.1557 162.834 53.5037 162.646C53.8517 162.454 54.2417 162.358 54.6737 162.358C55.3737 162.358 55.9157 162.568 56.2997 162.988C56.6837 163.408 56.8757 163.966 56.8757 164.662L56.8697 169H55.6157ZM47.8457 169V162.52H48.9617V164.392H49.1057V169H47.8457ZM51.7337 169L51.7397 164.986C51.7397 164.514 51.6197 164.144 51.3797 163.876C51.1437 163.608 50.8257 163.474 50.4257 163.474C50.0297 163.474 49.7097 163.61 49.4657 163.882C49.2257 164.154 49.1057 164.51 49.1057 164.95L48.5057 164.566C48.5057 164.142 48.6077 163.764 48.8117 163.432C49.0157 163.1 49.2917 162.838 49.6397 162.646C49.9877 162.454 50.3817 162.358 50.8217 162.358C51.2817 162.358 51.6737 162.456 51.9977 162.652C52.3217 162.844 52.5677 163.114 52.7357 163.462C52.9077 163.81 52.9937 164.214 52.9937 164.674L52.9877 169H51.7337ZM61.5117 169.174C60.7237 169.174 60.0817 169 59.5857 168.652C59.0897 168.304 58.7857 167.814 58.6737 167.182L59.9577 166.984C60.0377 167.32 60.2217 167.586 60.5097 167.782C60.8017 167.974 61.1637 168.07 61.5957 168.07C61.9877 168.07 62.2937 167.99 62.5137 167.83C62.7377 167.67 62.8497 167.45 62.8497 167.17C62.8497 167.006 62.8097 166.874 62.7297 166.774C62.6537 166.67 62.4917 166.572 62.2437 166.48C61.9957 166.388 61.6177 166.274 61.1097 166.138C60.5537 165.994 60.1117 165.84 59.7837 165.676C59.4597 165.508 59.2277 165.314 59.0877 165.094C58.9517 164.87 58.8837 164.6 58.8837 164.284C58.8837 163.892 58.9877 163.55 59.1957 163.258C59.4037 162.966 59.6957 162.74 60.0717 162.58C60.4517 162.42 60.8957 162.34 61.4037 162.34C61.8997 162.34 62.3417 162.418 62.7297 162.574C63.1177 162.73 63.4317 162.952 63.6717 163.24C63.9117 163.524 64.0557 163.858 64.1037 164.242L62.8197 164.476C62.7757 164.164 62.6297 163.918 62.3817 163.738C62.1337 163.558 61.8117 163.46 61.4157 163.444C61.0357 163.428 60.7277 163.492 60.4917 163.636C60.2557 163.776 60.1377 163.97 60.1377 164.218C60.1377 164.362 60.1817 164.484 60.2697 164.584C60.3617 164.684 60.5377 164.78 60.7977 164.872C61.0577 164.964 61.4417 165.074 61.9497 165.202C62.4937 165.342 62.9257 165.498 63.2457 165.67C63.5657 165.838 63.7937 166.04 63.9297 166.276C64.0697 166.508 64.1397 166.79 64.1397 167.122C64.1397 167.762 63.9057 168.264 63.4377 168.628C62.9737 168.992 62.3317 169.174 61.5117 169.174ZM68.8813 169.18C68.2333 169.18 67.6713 169.034 67.1953 168.742C66.7193 168.45 66.3513 168.048 66.0913 167.536C65.8353 167.02 65.7073 166.426 65.7073 165.754C65.7073 165.078 65.8393 164.484 66.1033 163.972C66.3673 163.456 66.7373 163.056 67.2133 162.772C67.6893 162.484 68.2453 162.34 68.8813 162.34C69.5293 162.34 70.0913 162.486 70.5673 162.778C71.0433 163.07 71.4113 163.472 71.6713 163.984C71.9313 164.496 72.0613 165.086 72.0613 165.754C72.0613 166.43 71.9293 167.026 71.6653 167.542C71.4053 168.054 71.0373 168.456 70.5613 168.748C70.0853 169.036 69.5253 169.18 68.8813 169.18ZM68.8813 167.998C69.5013 167.998 69.9633 167.79 70.2673 167.374C70.5753 166.954 70.7293 166.414 70.7293 165.754C70.7293 165.078 70.5733 164.538 70.2613 164.134C69.9533 163.726 69.4933 163.522 68.8813 163.522C68.4613 163.522 68.1153 163.618 67.8433 163.81C67.5713 163.998 67.3693 164.26 67.2373 164.596C67.1053 164.928 67.0393 165.314 67.0393 165.754C67.0393 166.434 67.1953 166.978 67.5073 167.386C67.8193 167.794 68.2773 167.998 68.8813 167.998ZM78.5278 169V165.814C78.5278 165.562 78.5058 165.304 78.4618 165.04C78.4218 164.772 78.3418 164.524 78.2218 164.296C78.1058 164.068 77.9398 163.884 77.7238 163.744C77.5118 163.604 77.2338 163.534 76.8898 163.534C76.6658 163.534 76.4538 163.572 76.2538 163.648C76.0538 163.72 75.8778 163.838 75.7258 164.002C75.5778 164.166 75.4598 164.382 75.3718 164.65C75.2878 164.918 75.2458 165.244 75.2458 165.628L74.4658 165.334C74.4658 164.746 74.5758 164.228 74.7958 163.78C75.0158 163.328 75.3318 162.976 75.7438 162.724C76.1558 162.472 76.6538 162.346 77.2378 162.346C77.6858 162.346 78.0618 162.418 78.3658 162.562C78.6698 162.706 78.9158 162.896 79.1038 163.132C79.2958 163.364 79.4418 163.618 79.5418 163.894C79.6418 164.17 79.7098 164.44 79.7458 164.704C79.7818 164.968 79.7998 165.2 79.7998 165.4V169H78.5278ZM73.9738 169V162.52H75.0958V164.392H75.2458V169H73.9738ZM84.965 169V160.36H86.099L89.231 166.858L92.345 160.36H93.491V168.994H92.303V163.084L89.513 169H88.943L86.147 163.084V169H84.965ZM98.646 169.18C98.002 169.18 97.436 169.04 96.948 168.76C96.464 168.476 96.086 168.082 95.814 167.578C95.546 167.07 95.412 166.482 95.412 165.814C95.412 165.106 95.544 164.492 95.808 163.972C96.076 163.452 96.448 163.05 96.924 162.766C97.4 162.482 97.954 162.34 98.586 162.34C99.246 162.34 99.808 162.494 100.272 162.802C100.736 163.106 101.082 163.54 101.31 164.104C101.542 164.668 101.634 165.338 101.586 166.114H100.332V165.658C100.324 164.906 100.18 164.35 99.9 163.99C99.624 163.63 99.202 163.45 98.634 163.45C98.006 163.45 97.534 163.648 97.218 164.044C96.902 164.44 96.744 165.012 96.744 165.76C96.744 166.472 96.902 167.024 97.218 167.416C97.534 167.804 97.99 167.998 98.586 167.998C98.978 167.998 99.316 167.91 99.6 167.734C99.888 167.554 100.112 167.298 100.272 166.966L101.502 167.356C101.25 167.936 100.868 168.386 100.356 168.706C99.844 169.022 99.274 169.18 98.646 169.18ZM96.336 166.114V165.136H100.962V166.114H96.336ZM111.12 169L111.126 164.962C111.126 164.494 111.006 164.13 110.766 163.87C110.526 163.606 110.21 163.474 109.818 163.474C109.578 163.474 109.358 163.53 109.158 163.642C108.962 163.75 108.802 163.914 108.678 164.134C108.558 164.35 108.498 164.622 108.498 164.95L107.892 164.644C107.884 164.188 107.98 163.788 108.18 163.444C108.384 163.1 108.66 162.834 109.008 162.646C109.356 162.454 109.746 162.358 110.178 162.358C110.878 162.358 111.42 162.568 111.804 162.988C112.188 163.408 112.38 163.966 112.38 164.662L112.374 169H111.12ZM103.35 169V162.52H104.466V164.392H104.61V169H103.35ZM107.238 169L107.244 164.986C107.244 164.514 107.124 164.144 106.884 163.876C106.648 163.608 106.33 163.474 105.93 163.474C105.534 163.474 105.214 163.61 104.97 163.882C104.73 164.154 104.61 164.51 104.61 164.95L104.01 164.566C104.01 164.142 104.112 163.764 104.316 163.432C104.52 163.1 104.796 162.838 105.144 162.646C105.492 162.454 105.886 162.358 106.326 162.358C106.786 162.358 107.178 162.456 107.502 162.652C107.826 162.844 108.072 163.114 108.24 163.462C108.412 163.81 108.498 164.214 108.498 164.674L108.492 169H107.238ZM117.58 169.18C116.96 169.18 116.44 169.03 116.02 168.73C115.6 168.426 115.282 168.016 115.066 167.5C114.85 166.984 114.742 166.402 114.742 165.754C114.742 165.106 114.848 164.524 115.06 164.008C115.276 163.492 115.592 163.086 116.008 162.79C116.428 162.49 116.944 162.34 117.556 162.34C118.164 162.34 118.688 162.49 119.128 162.79C119.572 163.086 119.914 163.492 120.154 164.008C120.394 164.52 120.514 165.102 120.514 165.754C120.514 166.402 120.394 166.986 120.154 167.506C119.918 168.022 119.58 168.43 119.14 168.73C118.704 169.03 118.184 169.18 117.58 169.18ZM114.532 169V160.36H115.792V164.338H115.648V169H114.532ZM117.406 168.046C117.806 168.046 118.136 167.944 118.396 167.74C118.66 167.536 118.856 167.262 118.984 166.918C119.116 166.57 119.182 166.182 119.182 165.754C119.182 165.33 119.116 164.946 118.984 164.602C118.856 164.258 118.658 163.984 118.39 163.78C118.122 163.576 117.78 163.474 117.364 163.474C116.972 163.474 116.648 163.57 116.392 163.762C116.14 163.954 115.952 164.222 115.828 164.566C115.708 164.91 115.648 165.306 115.648 165.754C115.648 166.202 115.708 166.598 115.828 166.942C115.948 167.286 116.138 167.556 116.398 167.752C116.658 167.948 116.994 168.046 117.406 168.046ZM125.313 169.18C124.669 169.18 124.103 169.04 123.615 168.76C123.131 168.476 122.753 168.082 122.481 167.578C122.213 167.07 122.079 166.482 122.079 165.814C122.079 165.106 122.211 164.492 122.475 163.972C122.743 163.452 123.115 163.05 123.591 162.766C124.067 162.482 124.621 162.34 125.253 162.34C125.913 162.34 126.475 162.494 126.939 162.802C127.403 163.106 127.749 163.54 127.977 164.104C128.209 164.668 128.301 165.338 128.253 166.114H126.999V165.658C126.991 164.906 126.847 164.35 126.567 163.99C126.291 163.63 125.869 163.45 125.301 163.45C124.673 163.45 124.201 163.648 123.885 164.044C123.569 164.44 123.411 165.012 123.411 165.76C123.411 166.472 123.569 167.024 123.885 167.416C124.201 167.804 124.657 167.998 125.253 167.998C125.645 167.998 125.983 167.91 126.267 167.734C126.555 167.554 126.779 167.298 126.939 166.966L128.169 167.356C127.917 167.936 127.535 168.386 127.023 168.706C126.511 169.022 125.941 169.18 125.313 169.18ZM123.003 166.114V165.136H127.629V166.114H123.003ZM130.199 169V162.52H131.315V164.092L131.159 163.888C131.239 163.68 131.343 163.49 131.471 163.318C131.599 163.142 131.747 162.998 131.915 162.886C132.079 162.766 132.261 162.674 132.461 162.61C132.665 162.542 132.873 162.502 133.085 162.49C133.297 162.474 133.501 162.484 133.697 162.52V163.696C133.485 163.64 133.249 163.624 132.989 163.648C132.733 163.672 132.497 163.754 132.281 163.894C132.077 164.026 131.915 164.186 131.795 164.374C131.679 164.562 131.595 164.772 131.543 165.004C131.491 165.232 131.465 165.474 131.465 165.73V169H130.199Z" fill="white"/>
<path d="M286 84H263C260.239 84 258 86.2386 258 89V112C258 114.761 260.239 117 263 117H286C288.761 117 291 114.761 291 112V89C291 86.2386 288.761 84 286 84Z" fill="white"/>
<path d="M263 88H262V89H263V88Z" fill="black"/>
<path d="M263 89H262V90H263V89Z" fill="black"/>
<path d="M263 90H262V91H263V90Z" fill="black"/>
<path d="M263 91H262V92H263V91Z" fill="black"/>
<path d="M263 92H262V93H263V92Z" fill="black"/>
<path d="M263 92.9999H262V93.9999H263V92.9999Z" fill="black"/>
<path d="M263 94H262V95H263V94Z" fill="black"/>
<path d="M263 95.9999H262V96.9999H263V95.9999Z" fill="black"/>
<path d="M263 97.9999H262V98.9999H263V97.9999Z" fill="black"/>
<path d="M263 99.9999H262V101H263V99.9999Z" fill="black"/>
<path d="M263 106H262V107H263V106Z" fill="black"/>
<path d="M263 107H262V108H263V107Z" fill="black"/>
<path d="M263 108H262V109H263V108Z" fill="black"/>
<path d="M263 109H262V110H263V109Z" fill="black"/>
<path d="M263 110H262V111H263V110Z" fill="black"/>
<path d="M263 111H262V112H263V111Z" fill="black"/>
<path d="M263 112H262V113H263V112Z" fill="black"/>
<path d="M264 88H263V89H264V88Z" fill="black"/>
<path d="M264 94H263V95H264V94Z" fill="black"/>
<path d="M264 95.9999H263V96.9999H264V95.9999Z" fill="black"/>
<path d="M264 97H263V98H264V97Z" fill="black"/>
<path d="M264 97.9999H263V98.9999H264V97.9999Z" fill="black"/>
<path d="M264 99.9999H263V101H264V99.9999Z" fill="black"/>
<path d="M264 101H263V102H264V101Z" fill="black"/>
<path d="M264 103H263V104H264V103Z" fill="black"/>
<path d="M264 104H263V105H264V104Z" fill="black"/>
<path d="M264 106H263V107H264V106Z" fill="black"/>
<path d="M264 112H263V113H264V112Z" fill="black"/>
<path d="M265 88H264V89H265V88Z" fill="black"/>
<path d="M265 90H264V91H265V90Z" fill="black"/>
<path d="M265 91H264V92H265V91Z" fill="black"/>
<path d="M265 92H264V93H265V92Z" fill="black"/>
<path d="M265 94H264V95H265V94Z" fill="black"/>
<path d="M265 97H264V98H265V97Z" fill="black"/>
<path d="M265 97.9999H264V98.9999H265V97.9999Z" fill="black"/>
<path d="M265 102H264V103H265V102Z" fill="black"/>
<path d="M265 106H264V107H265V106Z" fill="black"/>
<path d="M265 108H264V109H265V108Z" fill="black"/>
<path d="M265 109H264V110H265V109Z" fill="black"/>
<path d="M265 110H264V111H265V110Z" fill="black"/>
<path d="M265 112H264V113H265V112Z" fill="black"/>
<path d="M266 88H265V89H266V88Z" fill="black"/>
<path d="M266 90H265V91H266V90Z" fill="black"/>
<path d="M266 91H265V92H266V91Z" fill="black"/>
<path d="M266 92H265V93H266V92Z" fill="black"/>
<path d="M266 94H265V95H266V94Z" fill="black"/>
<path d="M266 95.9999H265V96.9999H266V95.9999Z" fill="black"/>
<path d="M266 97H265V98H266V97Z" fill="black"/>
<path d="M266 97.9999H265V98.9999H266V97.9999Z" fill="black"/>
<path d="M266 98.9999H265V99.9999H266V98.9999Z" fill="black"/>
<path d="M266 99.9999H265V101H266V99.9999Z" fill="black"/>
<path d="M266 106H265V107H266V106Z" fill="black"/>
<path d="M266 108H265V109H266V108Z" fill="black"/>
<path d="M266 109H265V110H266V109Z" fill="black"/>
<path d="M266 110H265V111H266V110Z" fill="black"/>
<path d="M266 112H265V113H266V112Z" fill="black"/>
<path d="M266.999 88H265.999V89H266.999V88Z" fill="black"/>
<path d="M266.999 90H265.999V91H266.999V90Z" fill="black"/>
<path d="M266.999 91H265.999V92H266.999V91Z" fill="black"/>
<path d="M266.999 92H265.999V93H266.999V92Z" fill="black"/>
<path d="M266.999 94H265.999V95H266.999V94Z" fill="black"/>
<path d="M266.999 95.9999H265.999V96.9999H266.999V95.9999Z" fill="black"/>
<path d="M266.999 97H265.999V98H266.999V97Z" fill="black"/>
<path d="M266.999 97.9999H265.999V98.9999H266.999V97.9999Z" fill="black"/>
<path d="M266.999 98.9999H265.999V99.9999H266.999V98.9999Z" fill="black"/>
<path d="M266.999 99.9999H265.999V101H266.999V99.9999Z" fill="black"/>
<path d="M266.999 101H265.999V102H266.999V101Z" fill="black"/>
<path d="M266.999 103H265.999V104H266.999V103Z" fill="black"/>
<path d="M266.999 106H265.999V107H266.999V106Z" fill="black"/>
<path d="M266.999 108H265.999V109H266.999V108Z" fill="black"/>
<path d="M266.999 109H265.999V110H266.999V109Z" fill="black"/>
<path d="M266.999 110H265.999V111H266.999V110Z" fill="black"/>
<path d="M266.999 112H265.999V113H266.999V112Z" fill="black"/>
<path d="M268 88H267V89H268V88Z" fill="black"/>
<path d="M268 94H267V95H268V94Z" fill="black"/>
<path d="M268 97H267V98H268V97Z" fill="black"/>
<path d="M268 97.9999H267V98.9999H268V97.9999Z" fill="black"/>
<path d="M268 98.9999H267V99.9999H268V98.9999Z" fill="black"/>
<path d="M268 101H267V102H268V101Z" fill="black"/>
<path d="M268 104H267V105H268V104Z" fill="black"/>
<path d="M268 106H267V107H268V106Z" fill="black"/>
<path d="M268 112H267V113H268V112Z" fill="black"/>
<path d="M269 88H268V89H269V88Z" fill="black"/>
<path d="M269 89H268V90H269V89Z" fill="black"/>
<path d="M269 90H268V91H269V90Z" fill="black"/>
<path d="M269 91H268V92H269V91Z" fill="black"/>
<path d="M269 92H268V93H269V92Z" fill="black"/>
<path d="M269 92.9999H268V93.9999H269V92.9999Z" fill="black"/>
<path d="M269 94H268V95H269V94Z" fill="black"/>
<path d="M269 95.9999H268V96.9999H269V95.9999Z" fill="black"/>
<path d="M269 97.9999H268V98.9999H269V97.9999Z" fill="black"/>
<path d="M269 99.9999H268V101H269V99.9999Z" fill="black"/>
<path d="M269 102H268V103H269V102Z" fill="black"/>
<path d="M269 104H268V105H269V104Z" fill="black"/>
<path d="M269 106H268V107H269V106Z" fill="black"/>
<path d="M269 107H268V108H269V107Z" fill="black"/>
<path d="M269 108H268V109H269V108Z" fill="black"/>
<path d="M269 109H268V110H269V109Z" fill="black"/>
<path d="M269 110H268V111H269V110Z" fill="black"/>
<path d="M269 111H268V112H269V111Z" fill="black"/>
<path d="M269 112H268V113H269V112Z" fill="black"/>
<path d="M270 97H269V98H270V97Z" fill="black"/>
<path d="M270 97.9999H269V98.9999H270V97.9999Z" fill="black"/>
<path d="M270 102H269V103H270V102Z" fill="black"/>
<path d="M270 104H269V105H270V104Z" fill="black"/>
<path d="M271 88H270V89H271V88Z" fill="black"/>
<path d="M271 94H270V95H271V94Z" fill="black"/>
<path d="M271 94.9999H270V95.9999H271V94.9999Z" fill="black"/>
<path d="M271 97H270V98H271V97Z" fill="black"/>
<path d="M271 99.9999H270V101H271V99.9999Z" fill="black"/>
<path d="M271 102H270V103H271V102Z" fill="black"/>
<path d="M271 104H270V105H271V104Z" fill="black"/>
<path d="M271 105H270V106H271V105Z" fill="black"/>
<path d="M271 108H270V109H271V108Z" fill="black"/>
<path d="M271 109H270V110H271V109Z" fill="black"/>
<path d="M271 111H270V112H271V111Z" fill="black"/>
<path d="M271 112H270V113H271V112Z" fill="black"/>
<path d="M272 88H271V89H272V88Z" fill="black"/>
<path d="M272 90H271V91H272V90Z" fill="black"/>
<path d="M272 92.9999H271V93.9999H272V92.9999Z" fill="black"/>
<path d="M272 94.9999H271V95.9999H272V94.9999Z" fill="black"/>
<path d="M272 95.9999H271V96.9999H272V95.9999Z" fill="black"/>
<path d="M272 97.9999H271V98.9999H272V97.9999Z" fill="black"/>
<path d="M272 99.9999H271V101H272V99.9999Z" fill="black"/>
<path d="M272 102H271V103H272V102Z" fill="black"/>
<path d="M272 103H271V104H272V103Z" fill="black"/>
<path d="M272 104H271V105H272V104Z" fill="black"/>
<path d="M272 105H271V106H272V105Z" fill="black"/>
<path d="M272 107H271V108H272V107Z" fill="black"/>
<path d="M272 108H271V109H272V108Z" fill="black"/>
<path d="M272 109H271V110H272V109Z" fill="black"/>
<path d="M272 110H271V111H272V110Z" fill="black"/>
<path d="M272 111H271V112H272V111Z" fill="black"/>
<path d="M273 88H272V89H273V88Z" fill="black"/>
<path d="M273 91H272V92H273V91Z" fill="black"/>
<path d="M273 92H272V93H273V92Z" fill="black"/>
<path d="M273 94H272V95H273V94Z" fill="black"/>
<path d="M273 97H272V98H273V97Z" fill="black"/>
<path d="M273 99.9999H272V101H273V99.9999Z" fill="black"/>
<path d="M273 101H272V102H273V101Z" fill="black"/>
<path d="M273 102H272V103H273V102Z" fill="black"/>
<path d="M273 103H272V104H273V103Z" fill="black"/>
<path d="M273 104H272V105H273V104Z" fill="black"/>
<path d="M273 106H272V107H273V106Z" fill="black"/>
<path d="M273 108H272V109H273V108Z" fill="black"/>
<path d="M273 109H272V110H273V109Z" fill="black"/>
<path d="M273 111H272V112H273V111Z" fill="black"/>
<path d="M273 112H272V113H273V112Z" fill="black"/>
<path d="M274 88H273V89H274V88Z" fill="black"/>
<path d="M274 89H273V90H274V89Z" fill="black"/>
<path d="M274 90H273V91H274V90Z" fill="black"/>
<path d="M274 91H273V92H274V91Z" fill="black"/>
<path d="M274 92H273V93H274V92Z" fill="black"/>
<path d="M274 92.9999H273V93.9999H274V92.9999Z" fill="black"/>
<path d="M274 94.9999H273V95.9999H274V94.9999Z" fill="black"/>
<path d="M274 95.9999H273V96.9999H274V95.9999Z" fill="black"/>
<path d="M274 97H273V98H274V97Z" fill="black"/>
<path d="M274 97.9999H273V98.9999H274V97.9999Z" fill="black"/>
<path d="M274 98.9999H273V99.9999H274V98.9999Z" fill="black"/>
<path d="M274 101H273V102H274V101Z" fill="black"/>
<path d="M274 103H273V104H274V103Z" fill="black"/>
<path d="M274 106H273V107H274V106Z" fill="black"/>
<path d="M274 107H273V108H274V107Z" fill="black"/>
<path d="M274 109H273V110H274V109Z" fill="black"/>
<path d="M274 110H273V111H274V110Z" fill="black"/>
<path d="M275 89H274V90H275V89Z" fill="black"/>
<path d="M275 91H274V92H275V91Z" fill="black"/>
<path d="M275 92H274V93H275V92Z" fill="black"/>
<path d="M275 94H274V95H275V94Z" fill="black"/>
<path d="M275 95.9999H274V96.9999H275V95.9999Z" fill="black"/>
<path d="M275 97H274V98H275V97Z" fill="black"/>
<path d="M275 99.9999H274V101H275V99.9999Z" fill="black"/>
<path d="M275 104H274V105H275V104Z" fill="black"/>
<path d="M275 107H274V108H275V107Z" fill="black"/>
<path d="M275 108H274V109H275V108Z" fill="black"/>
<path d="M275 110H274V111H275V110Z" fill="black"/>
<path d="M275 112H274V113H275V112Z" fill="black"/>
<path d="M276 90H275V91H276V90Z" fill="black"/>
<path d="M276 91H275V92H276V91Z" fill="black"/>
<path d="M276 92.9999H275V93.9999H276V92.9999Z" fill="black"/>
<path d="M276 94.9999H275V95.9999H276V94.9999Z" fill="black"/>
<path d="M276 97H275V98H276V97Z" fill="black"/>
<path d="M276 101H275V102H276V101Z" fill="black"/>
<path d="M276 102H275V103H276V102Z" fill="black"/>
<path d="M276 104H275V105H276V104Z" fill="black"/>
<path d="M276 107H275V108H276V107Z" fill="black"/>
<path d="M276 110H275V111H276V110Z" fill="black"/>
<path d="M276.999 88H275.999V89H276.999V88Z" fill="black"/>
<path d="M276.999 90H275.999V91H276.999V90Z" fill="black"/>
<path d="M276.999 94H275.999V95H276.999V94Z" fill="black"/>
<path d="M276.999 94.9999H275.999V95.9999H276.999V94.9999Z" fill="black"/>
<path d="M276.999 95.9999H275.999V96.9999H276.999V95.9999Z" fill="black"/>
<path d="M276.999 97H275.999V98H276.999V97Z" fill="black"/>
<path d="M276.999 101H275.999V102H276.999V101Z" fill="black"/>
<path d="M276.999 102H275.999V103H276.999V102Z" fill="black"/>
<path d="M276.999 105H275.999V106H276.999V105Z" fill="black"/>
<path d="M276.999 106H275.999V107H276.999V106Z" fill="black"/>
<path d="M276.999 108H275.999V109H276.999V108Z" fill="black"/>
<path d="M276.999 110H275.999V111H276.999V110Z" fill="black"/>
<path d="M276.999 111H275.999V112H276.999V111Z" fill="black"/>
<path d="M276.999 112H275.999V113H276.999V112Z" fill="black"/>
<path d="M278 94.9999H277V95.9999H278V94.9999Z" fill="black"/>
<path d="M278 97H277V98H278V97Z" fill="black"/>
<path d="M278 97.9999H277V98.9999H278V97.9999Z" fill="black"/>
<path d="M278 98.9999H277V99.9999H278V98.9999Z" fill="black"/>
<path d="M278 101H277V102H278V101Z" fill="black"/>
<path d="M278 102H277V103H278V102Z" fill="black"/>
<path d="M278 104H277V105H278V104Z" fill="black"/>
<path d="M278 105H277V106H278V105Z" fill="black"/>
<path d="M278 107H277V108H278V107Z" fill="black"/>
<path d="M278 108H277V109H278V108Z" fill="black"/>
<path d="M278 109H277V110H278V109Z" fill="black"/>
<path d="M278 110H277V111H278V110Z" fill="black"/>
<path d="M278 111H277V112H278V111Z" fill="black"/>
<path d="M279 89H278V90H279V89Z" fill="black"/>
<path d="M279 90H278V91H279V90Z" fill="black"/>
<path d="M279 92H278V93H279V92Z" fill="black"/>
<path d="M279 92.9999H278V93.9999H279V92.9999Z" fill="black"/>
<path d="M279 94H278V95H279V94Z" fill="black"/>
<path d="M279 94.9999H278V95.9999H279V94.9999Z" fill="black"/>
<path d="M279 95.9999H278V96.9999H279V95.9999Z" fill="black"/>
<path d="M279 97.9999H278V98.9999H279V97.9999Z" fill="black"/>
<path d="M279 99.9999H278V101H279V99.9999Z" fill="black"/>
<path d="M279 101H278V102H279V101Z" fill="black"/>
<path d="M279 102H278V103H279V102Z" fill="black"/>
<path d="M279 103H278V104H279V103Z" fill="black"/>
<path d="M279 104H278V105H279V104Z" fill="black"/>
<path d="M279 105H278V106H279V105Z" fill="black"/>
<path d="M279 106H278V107H279V106Z" fill="black"/>
<path d="M279 107H278V108H279V107Z" fill="black"/>
<path d="M279 108H278V109H279V108Z" fill="black"/>
<path d="M279 112H278V113H279V112Z" fill="black"/>
<path d="M279.999 97H278.999V98H279.999V97Z" fill="black"/>
<path d="M279.999 101H278.999V102H279.999V101Z" fill="black"/>
<path d="M279.999 102H278.999V103H279.999V102Z" fill="black"/>
<path d="M279.999 103H278.999V104H279.999V103Z" fill="black"/>
<path d="M279.999 104H278.999V105H279.999V104Z" fill="black"/>
<path d="M279.999 108H278.999V109H279.999V108Z" fill="black"/>
<path d="M279.999 110H278.999V111H279.999V110Z" fill="black"/>
<path d="M279.999 112H278.999V113H279.999V112Z" fill="black"/>
<path d="M280.999 88H279.999V89H280.999V88Z" fill="black"/>
<path d="M280.999 89H279.999V90H280.999V89Z" fill="black"/>
<path d="M280.999 90H279.999V91H280.999V90Z" fill="black"/>
<path d="M280.999 91H279.999V92H280.999V91Z" fill="black"/>
<path d="M280.999 92H279.999V93H280.999V92Z" fill="black"/>
<path d="M280.999 92.9999H279.999V93.9999H280.999V92.9999Z" fill="black"/>
<path d="M280.999 94H279.999V95H280.999V94Z" fill="black"/>
<path d="M280.999 95.9999H279.999V96.9999H280.999V95.9999Z" fill="black"/>
<path d="M280.999 97.9999H279.999V98.9999H280.999V97.9999Z" fill="black"/>
<path d="M280.999 99.9999H279.999V101H280.999V99.9999Z" fill="black"/>
<path d="M280.999 102H279.999V103H280.999V102Z" fill="black"/>
<path d="M280.999 104H279.999V105H280.999V104Z" fill="black"/>
<path d="M280.999 106H279.999V107H280.999V106Z" fill="black"/>
<path d="M280.999 108H279.999V109H280.999V108Z" fill="black"/>
<path d="M280.999 109H279.999V110H280.999V109Z" fill="black"/>
<path d="M282 88H281V89H282V88Z" fill="black"/>
<path d="M282 94H281V95H282V94Z" fill="black"/>
<path d="M282 97H281V98H282V97Z" fill="black"/>
<path d="M282 97.9999H281V98.9999H282V97.9999Z" fill="black"/>
<path d="M282 98.9999H281V99.9999H282V98.9999Z" fill="black"/>
<path d="M282 103H281V104H282V103Z" fill="black"/>
<path d="M282 104H281V105H282V104Z" fill="black"/>
<path d="M282 108H281V109H282V108Z" fill="black"/>
<path d="M282 111H281V112H282V111Z" fill="black"/>
<path d="M283 88H282V89H283V88Z" fill="black"/>
<path d="M283 90H282V91H283V90Z" fill="black"/>
<path d="M283 91H282V92H283V91Z" fill="black"/>
<path d="M283 92H282V93H283V92Z" fill="black"/>
<path d="M283 94H282V95H283V94Z" fill="black"/>
<path d="M283 97H282V98H283V97Z" fill="black"/>
<path d="M283 101H282V102H283V101Z" fill="black"/>
<path d="M283 102H282V103H283V102Z" fill="black"/>
<path d="M283 104H282V105H283V104Z" fill="black"/>
<path d="M283 105H282V106H283V105Z" fill="black"/>
<path d="M283 106H282V107H283V106Z" fill="black"/>
<path d="M283 107H282V108H283V107Z" fill="black"/>
<path d="M283 108H282V109H283V108Z" fill="black"/>
<path d="M283 110H282V111H283V110Z" fill="black"/>
<path d="M283 111H282V112H283V111Z" fill="black"/>
<path d="M284 88H283V89H284V88Z" fill="black"/>
<path d="M284 90H283V91H284V90Z" fill="black"/>
<path d="M284 91H283V92H284V91Z" fill="black"/>
<path d="M284 92H283V93H284V92Z" fill="black"/>
<path d="M284 94H283V95H284V94Z" fill="black"/>
<path d="M284 97H283V98H284V97Z" fill="black"/>
<path d="M284 97.9999H283V98.9999H284V97.9999Z" fill="black"/>
<path d="M284 98.9999H283V99.9999H284V98.9999Z" fill="black"/>
<path d="M284 102H283V103H284V102Z" fill="black"/>
<path d="M284 103H283V104H284V103Z" fill="black"/>
<path d="M284 110H283V111H284V110Z" fill="black"/>
<path d="M284 112H283V113H284V112Z" fill="black"/>
<path d="M285 88H284V89H285V88Z" fill="black"/>
<path d="M285 90H284V91H285V90Z" fill="black"/>
<path d="M285 91H284V92H285V91Z" fill="black"/>
<path d="M285 92H284V93H285V92Z" fill="black"/>
<path d="M285 94H284V95H285V94Z" fill="black"/>
<path d="M285 97H284V98H285V97Z" fill="black"/>
<path d="M285 98.9999H284V99.9999H285V98.9999Z" fill="black"/>
<path d="M285 102H284V103H285V102Z" fill="black"/>
<path d="M285 103H284V104H285V103Z" fill="black"/>
<path d="M285 104H284V105H285V104Z" fill="black"/>
<path d="M285 105H284V106H285V105Z" fill="black"/>
<path d="M285 110H284V111H285V110Z" fill="black"/>
<path d="M285 111H284V112H285V111Z" fill="black"/>
<path d="M286 88H285V89H286V88Z" fill="black"/>
<path d="M286 94H285V95H286V94Z" fill="black"/>
<path d="M286 97H285V98H286V97Z" fill="black"/>
<path d="M286 98.9999H285V99.9999H286V98.9999Z" fill="black"/>
<path d="M286 101H285V102H286V101Z" fill="black"/>
<path d="M286 102H285V103H286V102Z" fill="black"/>
<path d="M286 104H285V105H286V104Z" fill="black"/>
<path d="M286 105H285V106H286V105Z" fill="black"/>
<path d="M286 108H285V109H286V108Z" fill="black"/>
<path d="M286 109H285V110H286V109Z" fill="black"/>
<path d="M286 110H285V111H286V110Z" fill="black"/>
<path d="M286 111H285V112H286V111Z" fill="black"/>
<path d="M287 88H286V89H287V88Z" fill="black"/>
<path d="M287 89H286V90H287V89Z" fill="black"/>
<path d="M287 90H286V91H287V90Z" fill="black"/>
<path d="M287 91H286V92H287V91Z" fill="black"/>
<path d="M287 92H286V93H287V92Z" fill="black"/>
<path d="M287 92.9999H286V93.9999H287V92.9999Z" fill="black"/>
<path d="M287 94H286V95H287V94Z" fill="black"/>
<path d="M287 95.9999H286V96.9999H287V95.9999Z" fill="black"/>
<path d="M287 97.9999H286V98.9999H287V97.9999Z" fill="black"/>
<path d="M287 98.9999H286V99.9999H287V98.9999Z" fill="black"/>
<path d="M287 99.9999H286V101H287V99.9999Z" fill="black"/>
<path d="M287 102H286V103H287V102Z" fill="black"/>
<path d="M287 103H286V104H287V103Z" fill="black"/>
<path d="M287 106H286V107H287V106Z" fill="black"/>
<path d="M287 107H286V108H287V107Z" fill="black"/>
<path d="M287 109H286V110H287V109Z" fill="black"/>
<path d="M287 110H286V111H287V110Z" fill="black"/>
<path d="M287 111H286V112H287V111Z" fill="black"/>
<path d="M287 112H286V113H287V112Z" fill="black"/>
</g>
<rect x="8.5" y="6.5" width="299" height="179" rx="9.5" stroke="url(#paint1_linear_689_2)"/>
</g>
<defs>
<filter id="filter0_d_689_2" x="0" y="0" width="332" height="212" filterUnits="userSpaceOnUse" color-interpolation-filters="sRGB">
<feFlood flood-opacity="0" result="BackgroundImageFix"/>
<feColorMatrix in="SourceAlpha" type="matrix" values="0 0 0 0 0 0 0 0 0 0 0 0 0 0 0 0 0 0 127 0" result="hardAlpha"/>
<feOffset dx="8" dy="10"/>
<feGaussianBlur stdDeviation="8"/>
<feColorMatrix type="matrix" values="0 0 0 0 0 0 0 0 0 0 0 0 0 0 0 0 0 0 0.05 0"/>
<feBlend mode="normal" in2="BackgroundImageFix" result="effect1_dropShadow_689_2"/>
<feBlend mode="normal" in="SourceGraphic" in2="effect1_dropShadow_689_2" result="shape"/>
</filter>
<linearGradient id="paint0_linear_689_2" x1="7.99533" y1="185.999" x2="166.819" y2="-78.7083" gradientUnits="userSpaceOnUse">
<stop stop-color="#C63B0B"/>
<stop offset="1" stop-color="#DD9F89"/>
</linearGradient>
<linearGradient id="paint1_linear_689_2" x1="8" y1="13.6008" x2="300.799" y2="197.467" gradientUnits="userSpaceOnUse">
<stop stop-color="white" stop-opacity="0"/>
<stop offset="1" stop-color="white" stop-opacity="0.6"/>
</linearGradient>
<clipPath id="clip0_689_2">
<rect x="8" y="6" width="300" height="180" rx="10" fill="white"/>
</clipPath>
<clipPath id="clip1_689_2">
<rect width="122" height="43" fill="white" transform="translate(28 76)"/>
</clipPath>
</defs>
</svg>
