<svg width="117" height="88" viewBox="0 0 117 88" fill="none" xmlns="http://www.w3.org/2000/svg">
<path fill-rule="evenodd" clip-rule="evenodd" d="M65.1585 6.52368C93.3816 6.52368 116.397 23.5909 116.397 44.5125C116.397 65.4097 93.3816 82.4769 65.1585 82.4769C56.111 82.4769 47.6011 80.7177 40.204 77.6415C39.725 77.8451 39.223 78.0006 38.7796 78.1561L36.8886 78.635C32.0532 79.5687 27.0742 79.6398 22.3231 78.216C20.3722 77.4978 19.0077 76.7797 17.7032 75.1161C17.2004 74.2062 17.0087 73.5961 16.8414 72.5669C17.1042 71.5859 16.0039 71.1787 15.3695 70.7596C14.7563 70.3058 14.1688 69.8184 13.6096 69.2996C9.89957 65.8043 6.93139 61.3524 5.73423 56.3496C3.16071 56.3621 1.20981 55.2724 0.719617 52.6751C0.432352 50.1023 0.65966 47.5531 1.54517 45.1232C2.51436 42.7296 4.01064 40.7543 5.99778 39.067C5.02793 37.9416 5.72237 36.7089 5.4832 35.4287C5.38701 35.0584 5.11226 34.9622 4.825 34.7705C5.26776 34.0767 6.16513 32.7959 5.51878 32.0659C4.99235 31.2403 5.62684 30.8213 6.36872 30.534C6.78775 30.2711 7.66141 29.2776 7.48154 28.763L7.20679 28.2128C7.97305 28.1292 9.46867 27.9974 9.6604 27.0756C9.46867 26.4056 9.87585 26.034 10.5222 26.1176C10.965 26.2257 11.0605 26.2138 11.3596 25.8429C12.006 25.0292 12.9877 24.1074 14.1005 24.3947C14.2441 24.4184 14.3634 24.3466 14.4833 24.2867C15.1059 23.9276 15.6679 23.4374 16.3867 23.832C16.6022 23.9164 16.6621 23.8083 16.7695 23.6528C17.6669 22.791 19.403 24.79 20.1449 24.4665C20.9586 24.1074 21.7723 23.7484 22.5985 23.4137C31.8022 13.2382 47.4581 6.52368 65.1585 6.52368Z" fill="#E6E6E7"/>
<path fill-rule="evenodd" clip-rule="evenodd" d="M40.1922 77.2224C34.2321 79.9034 17.8106 80.1432 17.2367 72.5906C17.2367 72.5906 17.5477 71.4778 16.1239 70.7715C14.7113 70.0652 7.84133 64.2237 6.03473 55.9418C6.03473 55.9418 1.37919 56.4208 1.06755 52.2436C0.74405 48.0552 1.37854 43.339 6.58488 39.0788C6.58488 39.0788 5.69937 38.6124 5.843 36.9962C5.98663 35.3925 5.8911 34.9972 5.35215 34.6499C5.35215 34.6499 6.63298 32.6516 5.93853 31.9572C5.25661 31.2752 6.28576 30.9873 6.52492 30.8799C6.77661 30.7837 8.29595 29.3718 7.80576 28.5344C7.80576 28.5344 9.02663 28.3907 9.56492 27.8999C10.1032 27.409 10.0558 27.0144 10.0558 27.0144C10.0558 27.0144 9.75665 26.2843 10.5941 26.5235C11.4196 26.7745 11.6713 25.9371 12.1622 25.5062C12.653 25.0635 13.3349 24.5726 14.0175 24.7643C14.6994 24.9679 15.4413 23.6871 16.2194 24.178C16.2194 24.178 16.7103 24.429 16.9976 23.9862C17.2967 23.5435 17.4884 24.0824 17.8831 24.178C18.2784 24.2735 19.9414 24.8605 20.1812 24.8605C20.1812 24.8605 21.7012 24.2017 22.8022 23.7471C31.9347 13.6091 47.5175 6.90649 65.1586 6.90649C93.1655 6.90649 116.002 23.7945 116.002 44.5118C116.002 65.2054 93.1655 82.0934 65.1586 82.0934C56.0992 82.0941 47.5774 80.3224 40.1922 77.2224Z" fill="black"/>
<path fill-rule="evenodd" clip-rule="evenodd" d="M8.02124 43.1835C8.02124 43.1835 8.02124 35.4998 18.0986 27.7437C28.164 20 41.4131 20.5864 44.5249 21.58C44.5249 21.58 43.8068 22.1189 41.9521 21.8554C40.0974 21.58 29.887 20.4553 19.2832 27.4208C8.82308 34.7691 8.02124 43.1835 8.02124 43.1835Z" fill="#929496"/>
<path fill-rule="evenodd" clip-rule="evenodd" d="M23.9873 69.9091C23.9873 69.9091 28.3556 74.7451 39.4027 72.447C39.4027 72.447 40.0484 72.3271 40.0484 73.0927C40.0484 73.859 38.3367 74.0388 35.213 74.0388C32.0775 74.0388 25.7577 72.8061 24.9921 72.028C24.9921 72.028 29.0612 76.1689 39.7019 74.5172C39.7019 74.5172 41.3536 74.1581 41.3536 75.0436C41.3536 75.9298 41.4129 76.169 40.2883 76.2289C39.1636 76.2889 37.1527 76.9352 36.2072 77.2337C35.2618 77.5216 23.2217 79.7117 19.5584 74.8038C15.8958 69.9084 18.7329 71.2611 18.7329 71.2611C18.7329 71.2611 18.2539 68.0175 19.7383 68.4247C19.7383 68.4247 20.0255 67.132 20.9111 67.6584C20.9111 67.6584 18.6129 66.5337 21.5093 64.2356C21.5093 64.2356 22.6821 63.051 23.2803 62.1648C23.8674 61.2793 25.6384 60.3338 26.4047 60.2139C27.1709 60.1065 27.1709 60.2739 26.5239 60.6329C25.8782 60.992 23.7475 62.2247 23.3403 63.7092C22.9213 65.1811 21.1496 64.8819 21.1496 65.8274C21.1496 66.7735 21.0303 66.9528 21.9158 65.9473C22.8013 64.9426 22.9206 65.0618 22.8013 65.8274C22.6814 66.5937 22.5622 67.3718 22.8013 67.6584C23.0412 67.9575 23.4477 68.4846 23.5076 67.132C23.5676 65.7675 24.7522 64.5347 24.2858 65.3609C23.8068 66.1865 23.9866 66.8328 23.9866 67.2519C23.9866 67.6584 24.573 69.1428 23.0412 69.6693C21.5087 70.1963 20.6238 69.6093 20.6238 70.5554C20.6238 71.5009 19.9656 71.3217 19.9656 70.7346C19.9656 70.1364 19.4392 68.6638 19.3785 69.9084C19.3186 71.1412 19.7376 71.6801 19.1993 71.9199C18.6729 72.1472 19.4392 73.7391 20.7911 74.0382C22.1557 74.3373 22.3355 70.1963 22.742 72.1472C23.1611 74.0981 22.862 75.9291 25.1719 76.049C27.4701 76.1689 25.112 72.9735 27.1709 75.0436C29.2417 77.1151 30.0673 76.3482 30.6655 76.3482C31.2519 76.3482 31.6591 76.3482 30.1872 75.4626C28.7146 74.5765 27.3501 73.7391 25.7583 73.6916C24.1665 73.6317 23.5683 71.9206 23.5683 71.4409C23.5683 70.9751 23.9873 69.9091 23.9873 69.9091Z" fill="#545454"/>
<path fill-rule="evenodd" clip-rule="evenodd" d="M28.152 70.9388C28.2957 70.9151 33.8492 73.1533 38.9837 71.3816C38.9837 71.3816 35.2137 73.0933 30.9529 72.3277C26.7038 71.5608 27.9965 70.9751 28.152 70.9388ZM29.421 70.3762C29.421 70.3762 36.5064 70.4961 38.3974 69.5499C38.3974 69.5499 39.4028 69.3707 39.5827 69.909C39.5827 69.909 38.1582 70.3162 37.6318 70.6753C37.0935 71.0219 35.3817 70.9145 34.2689 70.9145C33.1429 70.9151 30.3058 70.8552 29.421 70.3762ZM24.5737 68.0181C24.5737 68.0181 33.1429 70.137 36.8655 67.7789L38.2181 68.6651C38.2181 68.6651 33.2628 69.7305 30.2472 69.4907C27.2303 69.2508 24.5737 68.0181 24.5737 68.0181Z" fill="#545454"/>
<path fill-rule="evenodd" clip-rule="evenodd" d="M24.2866 66.6543C24.2866 66.6543 31.1922 67.8389 35.094 66.0673L35.9195 66.6543C35.9195 66.6543 33.6102 67.4199 29.4205 67.5398C29.4205 67.5398 31.8978 68.6052 35.2613 67.5398C35.2613 67.5398 34.3277 68.426 31.8385 68.426C29.3612 68.426 28.3558 67.7197 26.704 67.7197C25.0522 67.719 24.6338 66.9534 24.2866 66.6543Z" fill="#545454"/>
<path fill-rule="evenodd" clip-rule="evenodd" d="M28.3557 66.4263C28.3557 66.4263 30.2467 66.1871 31.4912 65.5889L32.1376 66.0679C32.1376 66.0672 30.5458 66.7742 28.3557 66.4263Z" fill="#545454"/>
<path fill-rule="evenodd" clip-rule="evenodd" d="M24.7529 65.5889C24.7529 65.5889 28.0565 65.1823 30.1266 64.2362L30.9528 65.1823C30.9528 65.1823 27.53 66.4263 24.7529 65.5889Z" fill="#545454"/>
<path fill-rule="evenodd" clip-rule="evenodd" d="M31.4193 56.6724C31.4193 56.6724 32.6402 56.0261 32.2212 56.7205C31.8021 57.4025 31.4549 58.5871 31.4193 59.0417C31.3831 59.5088 30.6531 60.0834 30.8086 59.0417C30.9647 58.0126 31.4193 56.6724 31.4193 56.6724ZM37.7984 55.3435C37.7984 55.3435 37.9065 54.5779 38.373 55.2236C38.8276 55.8693 39.9767 56.9834 39.2822 60.6098C39.2822 60.6098 39.3659 57.6298 38.7558 56.6718C38.1457 55.727 37.7984 55.3435 37.7984 55.3435ZM38.792 64.2006C38.792 64.2006 39.2111 65.038 38.373 64.8944C37.5349 64.7389 36.0749 64.4279 36.0749 64.4279C36.0749 64.4279 36.996 61.9144 36.996 61.1481C36.996 61.1481 38.145 63.3981 37.8703 61.83C37.6067 60.2626 37.104 59.1254 37.3432 58.3954C37.3432 58.3954 37.5349 59.4245 37.7978 59.999C38.0607 60.5736 38.2524 60.227 38.1444 59.3534C38.0251 58.4678 37.726 56.9116 37.8334 56.3008C37.8334 56.3008 38.2162 58.7063 38.4791 59.2697C38.7545 59.8435 38.599 60.9926 38.599 61.687C38.6003 62.3696 38.6728 63.5543 38.792 64.2006Z" fill="#929496"/>
<path fill-rule="evenodd" clip-rule="evenodd" d="M36.8774 54.6142C36.8774 54.6142 37.9547 60.3107 33.9811 65.8406C33.9811 65.8406 33.5146 65.996 32.9038 65.577C32.2937 65.1586 31.1565 64.7396 30.4265 63.7816C29.6965 62.8243 28.021 60.766 28.021 59.6525C28.021 58.5515 28.8228 59.1979 28.5955 59.5451C28.3682 59.8917 28.6673 60.8009 29.5048 59.3534C29.5048 59.3534 29.8164 61.0289 30.1992 58.2406C30.1992 58.2406 30.4983 57.7135 30.3909 58.8988C30.2717 60.0841 29.8164 61.2568 29.8164 61.2568C29.8164 61.2568 29.2419 62.9442 30.582 61.2568C31.9109 59.5807 32.9038 55.9181 32.9038 55.9181C32.9038 55.9181 33.7538 54.8052 33.6701 55.2599C33.5983 55.727 33.1437 56.6725 33.0238 57.0553C32.9038 57.4387 31.6474 61.0289 31.0366 61.9862C30.4265 62.9435 30.6901 63.9371 31.683 62.6325C32.6759 61.3399 33.9448 58.3598 34.1366 57.33C34.1366 57.33 33.8249 59.8073 33.4066 60.8852C32.9875 61.95 32.7609 63.2427 32.5329 63.6617C32.2937 64.0926 32.2213 65.1936 33.143 63.9733C34.0529 62.7518 34.4719 61.4953 35.0458 60.0841C34.663 61.9144 33.9692 63.7104 33.4784 64.285C32.9875 64.8476 33.5983 66.116 34.7829 63.7816C35.9676 61.4479 36.6857 57.1389 36.6495 54.997C36.6139 52.8543 36.8774 54.6142 36.8774 54.6142Z" fill="#929496"/>
<path fill-rule="evenodd" clip-rule="evenodd" d="M18.4938 70.4124C18.4938 70.4124 16.8539 69.4069 15.9921 68.8324C15.1303 68.2697 16.9257 66.9059 15.9921 65.7687C15.9921 65.7687 17.632 65.0505 16.3512 63.4831C16.3512 63.4831 17.8475 62.9797 17.2011 61.3279C16.5673 59.6887 16.5673 58.8981 16.6385 58.5396C16.6385 58.5396 17.8001 60.3469 18.6493 58.7551C18.6493 58.7551 20.4204 59.5806 20.672 57.9289C20.672 57.9289 22.0128 58.6951 22.5274 56.9241C22.5274 56.9241 24.2148 57.3194 26.3449 55.607C28.4875 53.9078 29.0739 51.8607 29.8039 51.6104C29.8039 51.6104 31.9702 51.9806 31.5756 48.9294C31.5756 48.9294 33.682 49.5639 34.6874 49.5639C35.6922 49.5639 36.3029 49.7188 36.6376 50.0541C36.6376 50.0541 40.8629 49.8749 41.9876 49.1087C41.9876 49.1087 38.325 52.8668 37.2247 53.2015C37.2247 53.2015 36.0275 52.5914 35.2975 53.1659C35.2975 53.1659 33.3473 53.5613 31.9103 54.4461C30.474 55.3323 27.2666 56.0979 26.105 59.5806C26.105 59.5806 22.2276 61.3879 22.0715 62.334C22.0715 62.334 20.7906 63.1234 21.3052 63.9851C21.3052 63.9851 20.4553 64.2606 20.0007 65.3859C19.5342 66.5231 18.9834 66.9178 19.9651 67.4323C19.9651 67.4323 18.2534 67.9225 18.0979 68.7487C17.9549 69.575 18.422 70.0533 18.4938 70.4124Z" fill="#CFD1D2"/>
<path fill-rule="evenodd" clip-rule="evenodd" d="M18.9721 31.0472C18.9721 31.0472 19.8221 32.5435 20.504 32.7227C21.1866 32.8907 21.234 33.3216 21.2703 33.6207C21.3184 33.9199 21.9647 34.7217 21.8685 33.0581C21.8685 33.0581 22.5149 32.759 22.4674 31.9927C22.4674 31.9927 22.982 32.6753 23.4129 31.4781C23.8438 30.281 25.4593 28.0191 27.3865 27.4564C27.3865 27.4564 27.9854 27.7562 27.4702 27.9229C26.9556 28.1021 24.0948 29.9338 23.2811 32.8901C23.2811 32.8901 22.2157 34.1702 22.731 35.0202C23.2455 35.882 23.3292 36.1811 23.1974 37.1621C23.0657 38.1439 23.8438 40.1547 24.1429 40.7167C24.4427 41.2675 24.9928 43.4102 24.9566 43.9129C24.9085 44.4274 25.7229 45.5758 26.4048 45.9949C26.4048 45.9949 24.4776 46.1747 24.0111 46.5095C23.5447 46.8567 22.8146 46.6887 22.2157 46.6887C21.6175 46.6887 19.8702 46.8086 19.0921 47.024C18.3258 47.2395 17.9792 47.4549 17.7275 47.8865C17.4647 48.3055 16.2675 49.5494 15.8847 49.7656C15.5019 49.981 14.5683 50.7466 14.6882 51.7283C14.82 52.71 15.2865 52.9255 16.0646 53.2246C16.8308 53.5237 17.5128 53.9909 17.86 54.5048C18.1953 55.0193 19.6073 55.8337 19.1764 54.4685C19.1764 54.4685 20.7201 55.0674 21.8336 55.4021C22.9464 55.7494 24.7774 55.9167 25.46 54.8994C26.1544 53.8703 27.0037 53.2714 27.0037 53.2714C27.0037 53.2714 27.3028 52.1941 26.6565 52.7924C26.022 53.3906 25.1246 54.5522 22.982 54.5522C20.8519 54.5522 20.5521 54.1687 20.0382 53.6061C19.5236 53.0553 17.9792 51.8107 17.6801 50.7934C17.3803 49.7642 16.8664 49.0817 19.6547 47.8371C19.6547 47.8371 16.6984 49.9797 18.0273 49.8479C18.0273 49.8479 17.4284 50.6616 18.4101 50.1951C18.4101 50.1951 17.4284 52.1579 19.2238 50.3625C19.2238 50.3625 17.8956 52.7087 19.7391 50.7453C21.57 48.7825 24.5264 47.8852 25.2083 47.8008C25.2083 47.8008 25.2564 48.2199 24.5619 48.4353C23.8794 48.6508 20.5047 50.6142 19.7746 51.4279C19.0565 52.2409 19.2238 52.3733 20.8519 51.2124C20.8519 51.2124 21.402 50.997 20.9711 51.4753C20.5521 51.9424 20.1693 52.54 20.1693 52.54C20.1693 52.54 19.6547 53.5692 20.6358 52.5881C21.6175 51.5946 25.2076 48.9499 26.1893 48.6027C27.171 48.2673 26.1057 48.4827 25.8902 48.183C25.8902 48.183 26.6202 48.0044 26.8713 47.6691C26.8713 47.6691 27.3503 48.1355 27.0505 48.519C26.7513 48.9018 25.6385 49.6311 24.9559 49.9309C24.2615 50.2301 21.4014 52.5881 21.1022 53.0072C20.8025 53.4381 20.7669 54.3835 21.5687 53.4862C22.3824 52.5888 23.795 51.3435 24.6568 50.9607C25.5068 50.5779 27.4695 49.1653 27.685 48.7819C27.9004 48.3991 27.5657 47.4062 28.0684 47.621C28.583 47.8364 28.9302 47.5373 28.5474 47.2019C28.1646 46.8554 28.7629 46.7229 29.0976 46.9865C29.4448 47.2382 29.7801 47.3699 29.5285 47.8364C29.2656 48.3035 29.5647 48.519 30.4265 48.6501C31.2764 48.7812 31.1565 50.9963 29.7801 50.6609C28.4156 50.3144 30.3784 50.0983 30.3784 49.7148C30.3784 49.332 29.6121 49.5475 29.4448 49.7629C29.2656 49.9784 29.4448 49.1647 29.1457 48.9011C28.8465 48.6494 28.3675 48.434 28.1165 49.0803C27.8655 49.7142 27.2672 50.3131 26.4529 50.5285C25.6392 50.7433 25.46 51.1261 24.9928 51.5096C24.5264 51.8924 23.0657 53.4367 22.8146 53.5679C22.563 53.6878 21.8685 54.7169 23.3648 54.0824C24.8611 53.4367 25.6392 51.4259 26.4048 51.4733C27.171 51.5096 27.5176 51.5096 27.171 51.8087C26.8357 52.1078 27.7693 51.9405 27.65 52.4069C27.5183 52.8859 25.5911 57.326 21.5694 55.7461C21.5694 55.7461 21.0192 55.9609 21.0192 56.428C21.0192 56.8945 19.9064 56.5598 19.4749 56.5953C19.0558 56.6434 19.3075 57.3735 18.3258 57.0262C17.3441 56.6909 17.3441 57.2417 17.2967 57.7925C17.2611 58.3552 16.2675 57.5408 16.0158 57.7563C15.7648 57.971 15.7648 58.6055 15.7648 59.1689C15.7648 59.719 17.3441 63.0581 16.0995 62.6753C14.8668 62.28 14.8187 63.6089 15.6686 64.4707C15.6686 64.4707 14.3041 64.8898 14.7712 65.6672C15.2502 66.4335 15.5849 67.7618 15.2502 68.1808C15.2502 68.1808 12.6411 65.5836 11.8749 65.2844C11.8749 65.2844 13.4548 65.5836 13.2756 64.5551C13.1076 63.5259 11.8268 63.2262 11.6594 62.8427C11.4802 62.4599 10.93 62.5436 11.0612 62.927C11.0612 62.927 10.9775 62.8427 10.4629 62.197C10.4629 62.197 9.90024 61.0479 9.43377 60.9168C9.43377 60.9168 9.76847 60.2342 9.17022 60.1506C9.17022 60.1506 9.05031 58.738 8.70375 58.1397C8.70375 58.1397 9.98392 59.2888 9.98392 60.3186C9.98392 61.3477 10.9775 61.946 11.4802 62.1133C11.9948 62.2813 13.4555 63.6096 13.0246 62.3769C13.0246 62.3769 12.4738 61.6469 13.1563 61.6469C13.1563 61.6469 12.8928 60.7851 12.1272 60.3186C11.3609 59.8514 11.0618 58.6549 10.7146 58.2721C10.7146 58.2721 10.2837 58.2722 10.3311 58.9903C10.3311 58.9903 9.68479 58.7386 10.2475 57.8887C10.7983 57.0269 8.57197 56.0458 9.13464 57.4585C9.13464 57.4585 8.02182 55.9977 8.32095 55.1959C8.32095 55.1959 7.63836 54.5015 7.7227 53.3887C7.7227 53.3887 8.57263 53.7359 7.85447 52.3714C7.85447 52.3714 8.40462 51.9411 7.85447 51.2104C7.2918 50.4916 7.97438 49.4631 8.32095 49.2951C8.32095 49.2951 9.26642 50.2768 9.08721 49.2951C8.91985 48.3022 9.08721 47.7514 8.87176 47.3205C8.66817 46.9015 8.7044 46.5068 9.00353 46.0403C9.00353 46.0403 9.60178 44.6396 9.38633 43.1921C9.38633 43.1921 10.6309 45.4421 11.0981 45.7887C11.5771 46.124 11.6607 46.686 12.0798 47.3686C12.5107 48.0505 13.7915 49.2951 13.9707 48.9005C14.1381 48.5177 13.5398 48.2179 13.5398 47.8832C13.5398 47.8832 14.6526 48.7799 16.1489 48.6013C16.1489 48.6013 14.7725 47.2006 14.7725 46.1715C14.7725 46.1715 15.4182 45.9916 15.1191 45.4414C14.82 44.8906 14.9518 44.125 14.9518 44.125C14.9518 44.125 13.6709 43.4069 13.6228 42.8442C13.6228 42.8442 14.173 42.6294 14.4365 42.3777C14.4365 42.3777 13.97 41.396 13.97 41.0494C13.97 41.0494 14.8681 41.6951 14.9873 42.2104C15.1191 42.7131 15.4663 44.2575 15.801 43.2276C15.801 43.2276 16.4836 44.0413 17.0463 43.5742C17.0463 43.5742 17.6445 44.3405 18.279 44.3405C18.9247 44.3405 19.3082 44.8069 19.3082 45.4889C19.3082 45.4889 20.0744 44.6389 20.589 45.226C20.589 45.226 19.9907 43.706 20.6727 43.6104C20.6727 43.6104 19.2726 41.1806 18.8773 40.7497C18.4945 40.3188 17.9437 39.0379 16.7472 38.6551C16.7472 38.6551 16.3163 39.2178 16.1008 38.1043C15.8854 36.9915 14.988 36.9434 14.6045 36.3089C14.2211 35.6626 14.4728 34.8482 14.652 34.5135C14.8193 34.1663 15.2028 34.3817 15.0354 34.98C14.8681 35.5782 15.2865 36.608 15.801 36.7754C16.3156 36.9427 16.6991 37.3743 16.1845 36.2127C16.1845 36.2127 16.8664 35.3153 16.1845 34.7164C16.1845 34.7164 16.7827 34.082 16.6991 33.4356C16.6154 32.8011 16.4836 31.9038 16.6991 31.6046C16.6991 31.6046 17.4653 32.921 17.6808 32.0711C17.8956 31.2264 18.362 30.3653 18.9721 31.0472Z" fill="#545454"/>
<path fill-rule="evenodd" clip-rule="evenodd" d="M30.7136 43.0037C30.7136 43.0037 30.7617 43.7818 31.6229 43.7818C32.4965 43.7818 32.1493 44.4756 31.7184 44.44C31.2756 44.3925 30.4975 44.2614 29.9355 44.3925C29.3728 44.5237 28.4992 43.9616 28.0202 43.3509C27.5419 42.7408 25.4592 41.2682 24.7285 36.3254C24.7285 36.3254 25.4467 36.6489 25.5185 35.2482C25.5903 33.8481 25.303 32.9863 25.303 32.9863C25.303 32.9863 25.985 32.8427 25.7339 32.4836C25.4829 32.1245 25.7339 31.8372 25.9132 31.801C26.0924 31.7647 25.6259 30.76 26.2004 31.1191C26.7749 31.4781 26.9904 30.9754 26.9186 30.5445C26.8468 30.1136 27.026 29.6465 27.1696 29.0726C27.1696 29.0726 26.9186 31.8372 27.6723 32.2681C28.4267 32.699 27.816 32.9863 27.3851 32.9863C26.9542 32.9863 27.134 33.8125 27.134 34.7099C27.134 35.6072 26.9548 40.1672 27.6367 41.2445C28.3193 42.3217 28.5704 44.1171 29.7912 44.1171C31.0128 44.1171 30.7018 43.3634 30.7136 43.0037Z" fill="#545454"/>
<path fill-rule="evenodd" clip-rule="evenodd" d="M23.6882 35.7147C23.6882 35.7147 24.071 35.152 24.071 35.7984C24.071 36.4447 25.9383 43.5664 28.3675 44.4756C30.7974 45.3855 31.7547 45.2537 32.7957 44.8709C33.8374 44.4756 34.0166 44.6555 34.1839 45.1226C34.3631 45.6016 34.5786 45.8164 34.8421 46.0318C35.1057 46.2473 34.8421 46.6782 34.2795 46.9055C33.7049 47.1209 32.544 47.8516 31.1914 47.2046C29.8512 46.5583 28.2351 45.7683 27.8523 45.6009C27.4576 45.4211 25.8539 44.0091 25.3749 42.3574C24.8966 40.7062 23.9393 38.4918 23.6882 35.7147Z" fill="#59595B"/>
<path fill-rule="evenodd" clip-rule="evenodd" d="M36.3149 25.5299C36.3149 25.5299 37.0449 25.1109 36.9012 24.871C36.9012 24.871 37.3677 24.4164 37.931 24.6556C38.4937 24.8948 39.092 25.3737 38.9721 26.0082C38.8521 26.6302 38.4212 27.3965 37.4165 27.3128C36.411 27.2291 36.0395 26.3317 36.3149 25.5299Z" fill="#E6E6E7"/>
<path fill-rule="evenodd" clip-rule="evenodd" d="M37.4283 42.8244C37.2491 42.0344 36.9374 40.5026 37.1648 40.0835C37.4639 39.509 37.5482 39.2817 38.2301 39.509C38.9127 39.7482 39.87 39.928 40.3602 39.2817C40.3602 39.2817 38.8047 36.9599 39.3311 36.05C39.8694 35.1282 41.3894 34.4101 41.8447 34.0635C41.8447 34.0635 41.3538 32.8907 41.3538 31.7054C41.3538 30.5201 40.9348 28.1265 41.5093 27.971C41.5093 27.971 41.3887 26.7145 41.8084 26.2955C41.8084 26.2955 41.1983 26.3673 41.0066 26.5584C41.0066 26.5584 41.1621 25.3863 41.8084 24.8117C41.8084 24.8117 41.6529 23.519 40.6238 23.6264C39.5946 23.7463 39.6783 24.1291 39.6783 24.1291C39.6783 24.1291 40.2528 25.3375 40.552 25.3375C40.863 25.3375 40.4439 25.912 40.3247 26.1038C40.2048 26.2948 39.5228 28.2701 37.7755 28.2701C37.7755 28.2701 40.1692 26.7857 39.4872 24.6193C39.4872 24.6193 38.5299 24.5838 38.0746 24.2365C37.6194 23.8893 37.3565 24.4638 36.662 24.3564C35.9801 24.2365 35.4537 23.4709 35.1414 24.5838C34.8423 25.6847 35.0702 26.6783 35.3331 27.0967C35.3331 27.0967 34.9503 27.5875 34.7586 27.1329C34.5669 26.6776 34.2677 25.8402 34.1122 26.1393C33.9567 26.4503 33.8849 26.8338 34.304 27.2884C34.7223 27.743 34.9141 28.8084 35.7166 28.8084C36.5191 28.8084 36.5902 29.682 36.5902 29.9094C36.5902 30.1367 36.2074 30.2566 36.0519 29.8013C35.9083 29.3467 35.4537 29.3467 35.2975 29.6096C35.142 29.8731 34.3764 28.9988 34.6156 29.6814C34.8429 30.3758 35.262 31.0222 35.5973 30.7942C35.9445 30.555 35.9808 30.447 36.2911 30.7942C36.5902 31.1296 36.3273 31.3206 36.1 31.1296C35.8721 30.9378 35.2139 31.3569 36.2437 32.3504C36.2437 32.3504 36.0519 33.6794 36.9737 34.0622C36.9737 34.0622 37.62 31.2495 37.62 30.9023C37.62 30.5557 38.0028 29.0713 38.8765 28.5442C39.7501 28.0059 40.6719 27.1322 40.6719 27.1322C40.6719 27.1322 38.6848 29.6451 38.3382 31.2851C38.0028 32.925 37.8473 34.8278 38.1109 35.7377C38.3863 36.6588 38.7216 38.2993 38.7216 38.2993C38.7216 38.2993 36.9374 38.5985 36.5191 39.592C36.1 40.5849 36.0519 41.651 36.3273 42.6801C36.3273 42.6801 35.4537 43.2902 34.5682 43.2902C33.6945 43.2902 32.4736 43.0148 31.911 43.1703C31.911 43.1703 30.8337 41.2675 30.188 40.7286C29.5417 40.2021 28.5956 38.8258 28.4757 37.9521C28.4757 37.9521 28.2483 39.6276 28.9303 40.8841C29.6247 42.1405 29.6247 42.7506 29.3974 42.7875C29.3974 42.7875 28.9665 42.3329 28.703 41.6029C28.4401 40.8847 27.8655 39.5083 28.0566 37.4975C28.2483 35.4748 27.9486 33.7993 29.122 31.3938C29.122 31.3938 29.433 31.4775 29.852 31.322C29.852 31.322 29.433 31.0228 29.433 30.5564C29.433 30.1011 29.2775 29.4547 29.2775 29.4547C29.2775 29.4547 28.7385 30.3284 28.703 30.7112C28.703 30.7112 28.6667 29.4903 28.3676 29.4192C28.3676 29.4192 29.2413 29.2274 28.7866 28.3182C28.7866 28.3182 28.7866 27.6238 29.2413 27.7074C29.2413 27.7074 29.0858 27.0973 29.0858 26.5228C29.0858 26.5228 28.3676 26.87 27.9011 26.7145C27.9011 26.7145 29.1576 26.14 29.3137 25.3863C29.3137 25.3863 29.6247 27.0973 29.6247 28.0072C29.6247 28.929 30.7257 30.0299 30.4984 28.8809C30.2711 27.7437 30.0793 27.5526 30.4147 27.1342C30.7619 26.7152 30.8812 26.9425 30.9892 27.5526C31.1085 28.1627 31.2165 27.517 31.4083 27.2054C31.5993 26.9063 31.911 26.3317 33.0837 25.6498C33.0837 25.6498 33.6583 26.2243 33.85 25.3026C33.85 25.3026 34.6163 25.9133 34.7237 24.7281C34.8436 23.5553 34.6525 23.8544 35.2982 23.436C35.9445 23.017 36.2443 22.8252 37.1298 23.2443C38.0035 23.6633 38.949 23.9743 39.5953 23.6271C40.2535 23.2917 40.6725 23.208 39.679 23.0526C38.6854 22.9089 38.7216 22.6335 37.62 22.7897C37.62 22.7897 38.5774 21.9878 39.5584 22.3706C40.552 22.7534 40.6719 22.7534 41.51 22.5261C42.3474 22.2988 42.1201 22.9452 41.6174 22.9452C41.1265 22.9452 40.7075 23.1725 41.4619 23.5197C42.2281 23.8544 42.1563 24.1298 42.2281 24.3571C42.2993 24.5844 42.7664 24.4645 43.03 24.0099C43.2935 23.5553 44.3227 22.4536 44.6343 22.8252C44.9334 23.208 44.0953 23.208 43.868 23.8544C43.6407 24.5007 42.2288 25.2308 42.1925 25.8053C42.1563 26.368 42.0008 26.5235 41.9652 27.1342C41.929 27.7443 41.9652 30.6763 42.157 31.8616C42.3487 33.0343 41.8822 34.7942 41.7379 35.8233C41.5824 36.8525 41.5462 38.528 41.8097 39.2461C42.0733 39.9761 41.2352 40.5869 40.5171 40.5388C39.787 40.5032 38.949 39.8931 40.0262 41.4606C40.3609 41.9514 40.5289 42.2861 40.6126 42.5141C40.0618 42.5259 39.5353 42.406 38.9127 42.2505C37.7755 41.9751 37.7755 42.8732 37.7755 42.8732C37.7755 42.8732 37.6431 42.8244 37.4283 42.8244Z" fill="#545454"/>
<path fill-rule="evenodd" clip-rule="evenodd" d="M41.2338 47.9589C41.2338 47.9589 41.9039 47.7554 42.2629 47.3963C42.6102 47.0372 43.2084 46.6544 43.7355 46.8336C43.7355 46.8336 42.9692 47.2533 42.7894 47.5162C42.6095 47.7791 41.8801 48.3417 41.2338 47.9589ZM36.5183 48.1625C36.5183 48.1625 38.0146 47.5406 38.3137 47.2171C38.601 46.8936 39.642 46.2116 40.1447 46.3909C40.1447 46.3909 39.9892 46.6544 39.3191 46.9891C38.6366 47.3126 37.9309 48.1625 36.5183 48.1625Z" fill="#929496"/>
<path fill-rule="evenodd" clip-rule="evenodd" d="M53.4064 39.1618C53.4064 39.1618 53.8966 38.9226 53.5019 39.4734C53.0947 40.0361 52.3528 40.8017 52.3528 41.137C52.3528 41.4843 51.9819 41.9152 51.7065 42.0707C51.4311 42.2261 49.4802 43.6506 49.0137 44.1415C48.5591 44.6323 46.763 45.7689 45.7701 45.9487C44.7891 46.1405 44.9683 45.338 45.7464 45.0869C46.5127 44.8471 48.0327 43.8898 46.7999 44.0815C45.5553 44.2614 45.3399 44.297 44.8128 44.5724C44.2864 44.8471 43.8555 45.027 43.3646 45.027C42.8738 45.027 40.7074 45.027 40.181 45.3024C39.6539 45.5771 39.4747 46.1398 39.0682 46.3197C38.6728 46.5107 37.6437 47.0378 37.4638 47.277C37.2721 47.528 36.2311 48.15 35.6091 48.15C34.9872 48.15 35.1183 47.8627 35.6691 47.7435C36.2318 47.6236 37.1891 46.6662 37.56 46.5707C37.931 46.4745 39.4991 45.8288 38.6373 45.9487C37.7755 46.0805 36.3154 46.4159 36.1356 46.7269C36.1356 46.7269 36.3872 47.1222 35.729 47.2539C35.0827 47.3739 34.3164 47.8403 34.0292 47.924C33.7544 48.0202 33.1081 47.8403 33.85 47.5287C34.5918 47.2177 35.2026 46.7868 35.6454 46.6913C35.6454 46.6913 35.2981 46.6913 35.3937 46.261C35.4899 45.8301 34.9865 45.3986 34.8073 45.2675C34.6156 45.1476 34.5325 44.2627 33.7544 44.2627C32.9882 44.2627 32.0546 44.1428 32.1501 43.7356C32.2463 43.3403 32.6409 43.5801 32.8564 43.6519C33.0718 43.7119 35.3937 43.9866 36.2555 43.3047C37.1173 42.6228 37.7755 42.8738 37.7755 42.8738C37.7755 42.8738 37.7755 41.9758 38.9127 42.2512C40.0617 42.5391 40.8873 42.7183 42.1325 42.1319C43.3653 41.5449 46.7288 40.1211 47.4707 39.7501C48.2125 39.3792 49.7925 39.0801 50.259 38.4574C50.7136 37.8348 51.5279 37.6556 51.6834 37.8711C51.8271 38.0865 51.6116 38.5174 51.1807 38.7329C50.7498 38.9483 49.4215 39.2593 48.9307 39.7857C48.428 40.3128 47.6261 39.9056 45.5553 40.9947C45.5553 40.9947 47.9971 40.181 47.9971 40.5876C47.9971 40.9941 47.6261 41.114 47.0997 41.2701C46.5851 41.4256 43.5577 42.8382 43.0306 43.1248C42.5041 43.4002 40.6132 43.7119 39.9069 43.6513C39.1887 43.5795 37.2497 43.2803 37.8005 44.1658C37.8005 44.1658 38.0878 44.8478 39.1051 44.4538C40.1223 44.0472 40.9598 44.0828 41.4869 44.0828C42.0014 44.0828 43.617 44.2383 44.515 43.4609C45.4012 42.6946 47.1722 42.0726 47.723 42.0127C48.2857 41.9527 51.2776 40.9236 51.5523 40.6844C51.8264 40.4307 52.9755 39.7844 53.4064 39.1618Z" fill="#E6E6E7"/>
<path fill-rule="evenodd" clip-rule="evenodd" d="M49.4202 40.1554C49.4202 40.1554 48.8694 39.6645 49.6119 39.509C50.3413 39.3535 51.7064 39.0425 51.7064 39.0425C51.7064 39.0425 52.3528 38.8508 52.3528 39.1025C52.3528 39.3542 51.9818 39.4379 51.7664 39.4734C51.5509 39.509 49.8511 40.0954 49.4202 40.1554Z" fill="#929496"/>
<path fill-rule="evenodd" clip-rule="evenodd" d="M57.4873 35.2126C57.4873 35.2126 58.2173 34.7817 57.9182 35.2369C57.6072 35.7034 56.8653 36.9368 55.7881 37.1516C54.7108 37.3789 54.1126 37.4389 53.6573 37.8098C53.1908 38.1807 52.1373 39.0063 51.8619 38.8271C51.5872 38.6354 52.1973 38.3007 52.3883 38.1089C52.5676 37.9297 54.7346 36.8162 55.3809 36.5046C56.0391 36.1936 57.2956 35.6072 57.4873 35.2126ZM45.7463 37.3071C45.7463 37.3071 45.8662 37.0679 45.8425 36.6607C45.8425 36.6607 47.41 35.9788 48.619 36.9124C48.619 36.9124 50.6536 35.3924 51.8988 35.6435C51.8988 35.6435 52.329 35.9788 51.6109 36.0388C50.9046 36.1106 49.6363 37.0317 49.2653 37.2471C48.8944 37.4626 48.4273 37.2827 48.0326 37.2471C47.6254 37.2228 46.6081 37.0916 45.7463 37.3071Z" fill="#D0D1D3"/>
<path fill-rule="evenodd" clip-rule="evenodd" d="M48.702 22.3826C48.702 22.3826 48.7975 22.7891 48.1756 22.7891C47.5417 22.7891 46.7873 23.6028 46.3802 24.3809C45.973 25.1709 45.1231 26.739 45.0993 27.8399C45.0631 28.9409 44.6203 30.0063 44.7521 30.4128C44.872 30.82 44.8121 31.5744 44.5966 31.9572C44.3693 32.3281 44.7165 34.1591 44.9676 34.9135C45.2186 35.6679 45.6258 36.4809 45.2785 37.3908C44.9313 38.3007 44.7159 38.3007 45.3148 38.6117C45.9137 38.9227 45.6857 40.5026 44.7165 40.0236C43.7467 39.5572 43.3402 36.6008 43.4357 36.1344C43.5194 35.6679 43.7467 33.489 43.6512 33.1781C43.5556 32.8671 43.9984 31.9572 44.1183 31.7061C44.2501 31.4551 44.4055 30.5689 44.2501 30.0063C44.0939 29.4436 44.4055 27.3728 44.8727 26.1763C45.351 24.9791 45.8537 22.3463 47.2301 22.2508C47.721 22.1546 48.2118 22.2264 48.702 22.3826Z" fill="#E6E6E7"/>
<path fill-rule="evenodd" clip-rule="evenodd" d="M45.7219 35.9189C45.7219 35.9189 45.83 35.7272 45.7582 35.4043C45.7582 35.4043 46.8235 35.3569 47.458 35.6079C46.8347 35.5717 46.0929 35.7146 45.7219 35.9189Z" fill="#D0D1D3"/>
<path fill-rule="evenodd" clip-rule="evenodd" d="M47.0264 26.5353C47.0264 26.5353 47.0857 26.1518 47.3618 26.2718C47.6247 26.3798 47.4455 26.559 47.3855 26.7745C47.3262 26.9781 47.0864 30.4845 47.6254 31.5743C48.1636 32.6753 48.9899 33.6925 48.3079 35.2007C48.3079 35.2007 47.8289 35.5235 47.2426 35.2007C46.6443 34.8778 46.1416 34.5781 45.9018 34.5781C45.6626 34.5781 45.0762 34.219 45.2798 33.5726C45.4834 32.9144 45.1006 32.0289 45.1006 31.6099C45.1006 31.1908 45.5433 29.8263 45.5433 30.9517C45.5433 32.0889 46.2615 33.6326 46.5251 33.7762C46.8005 33.9199 47.1477 34.1953 46.9085 33.2379C46.6812 32.2925 46.3821 31.5506 46.4658 30.0424C46.56 28.5218 47.0264 26.5353 47.0264 26.5353Z" fill="#59595B"/>
<path fill-rule="evenodd" clip-rule="evenodd" d="M48.1875 23.5309C48.1875 23.5309 48.4985 23.6864 48.7976 23.3036C48.7976 23.3036 48.8339 25.1227 48.7258 26.451C48.6059 27.7911 48.1875 30.6763 48.6902 31.7054C49.1811 32.722 48.9893 33.6319 49.9829 34.8891C49.9829 34.8891 49.3366 35.0808 49.2167 35.5354C49.2167 35.5354 49.1448 33.261 48.5341 32.3392C47.924 31.4294 47.8515 30.64 48.0432 29.8738C48.2356 29.12 48.3074 24.3334 48.1875 23.5309Z" fill="#E6E6E7"/>
<path fill-rule="evenodd" clip-rule="evenodd" d="M65.1584 8.58203C92.2437 8.58203 114.338 24.7156 114.338 44.5119C114.338 64.2844 92.2443 80.4173 65.1584 80.4173C56.7447 80.4173 48.81 78.8617 41.8676 76.1209C42.1911 75.7743 42.3466 75.4152 42.3103 75.0324C41.915 70.6997 38.6839 68.0182 38.1331 67.6242C37.5823 67.2288 35.6914 65.4934 35.6914 65.4934C36.314 65.2542 39.1629 65.0987 39.1629 65.0987C39.1629 64.2244 39.5576 61.077 39.9529 58.3118C40.3357 55.5472 37.894 53.7406 37.894 53.7406L37.9776 53.8117C37.9776 53.8117 40.9695 51.059 42.7056 50.1142C44.4411 49.1681 45.4702 46.6426 45.4702 46.6426C47.6003 46.2473 50.5211 44.046 51.2267 43.5789C51.933 43.0999 53.3568 42.2381 53.9076 40.3353C54.4585 38.4444 56.1102 38.3726 57.3792 37.6544C58.6238 36.9481 59.1021 34.818 58.863 33.9562C58.6238 33.0825 56.5049 33.238 55.6431 33.9562C54.7694 34.6625 50.9876 34.9735 50.9876 34.9735C49.0966 32.8427 48.6176 30.3298 49.1803 26.1408C49.7311 21.9636 48.391 21.2573 48.391 21.2573C47.2057 21.5689 42.7893 20.3836 42.7893 20.3836C42.1911 20.0608 41.2212 20.1682 40.1921 20.1207C39.1629 20.0726 36.8648 20.408 36.8648 20.408C33.5975 20.4442 29.1212 21.6651 26.2966 22.5387C35.3092 14.0519 49.3845 8.58203 65.1584 8.58203Z" fill="#A6A8AA"/>
<path fill-rule="evenodd" clip-rule="evenodd" d="M65.1586 9.47998C91.7411 9.47998 113.428 25.2189 113.428 44.5124C113.428 63.7816 91.7411 79.5205 65.1586 79.5205C56.9004 79.5205 49.1093 78.0005 42.2986 75.3196C42.3112 75.2241 42.323 75.1279 42.3112 75.0323C41.9158 70.6996 38.6848 68.0181 38.134 67.6241C37.5831 67.2288 35.6922 65.4933 35.6922 65.4933C36.3148 65.2541 39.1638 65.0987 39.1638 65.0987C39.1638 64.2243 39.5584 61.0769 39.9537 58.3117C40.3365 55.5471 37.8948 53.7405 37.8948 53.7405L37.9785 53.8117C37.9785 53.8117 40.9704 51.0589 42.7065 50.1141C44.4419 49.168 45.4711 46.6425 45.4711 46.6425C47.6012 46.2472 50.5219 44.046 51.2276 43.5788C51.9339 43.0998 53.3577 42.238 53.9085 40.3352C54.4593 38.4443 56.1111 38.3725 57.38 37.6543C58.6246 36.948 59.103 34.8179 58.8638 33.9561C58.6246 33.0825 56.5057 33.238 55.6439 33.9561C54.7703 34.6624 50.9884 34.9734 50.9884 34.9734C49.0975 32.8426 48.6185 30.3297 49.1811 26.1407C49.7319 21.9635 48.3918 21.2572 48.3918 21.2572C47.2065 21.5688 42.7901 20.3835 42.7901 20.3835C42.1919 20.0607 41.2221 20.1681 40.1929 20.1206C39.1638 20.0725 36.8656 20.4079 36.8656 20.4079C34.2928 20.4441 30.953 21.1979 28.2839 21.9523C37.1529 14.3391 50.402 9.47998 65.1586 9.47998Z" fill="#898989"/>
<path fill-rule="evenodd" clip-rule="evenodd" d="M18.3621 24.8955C18.3621 24.8955 19.4993 24.8955 19.7503 25.1703C20.0013 25.4457 19.7503 25.673 19.4512 25.4812C19.1395 25.2783 18.6968 24.9192 18.3621 24.8955ZM14.9749 25.1709C14.9749 25.1709 15.5375 24.2854 16.7222 24.9792C17.9187 25.6736 17.835 26.0327 17.835 26.0327C17.835 26.0327 16.9495 25.3383 16.4224 25.2783C15.8959 25.2309 14.9749 25.1709 14.9749 25.1709ZM14.6395 25.53C14.6395 25.53 16.8058 26.0327 17.2848 26.5354C17.7513 27.0263 17.1412 27.0019 16.8895 26.7028C16.6378 26.3918 15.1422 25.59 14.6395 25.53ZM12.4857 26.2837C12.4857 26.2837 13.4786 25.1946 14.5565 26.0321C15.6456 26.8576 16.5548 27.8868 16.5548 27.8868C16.5548 27.8868 13.3349 26.1645 12.4857 26.2837ZM14.3166 27.5527C14.3166 27.5527 15.7049 27.7563 15.9203 28.1154L15.5013 28.5819C15.5013 28.5819 14.8905 27.5883 14.3166 27.5527ZM13.3712 27.2292C13.3712 27.2292 12.8085 27.1455 12.6168 27.2773C12.4257 27.4209 12.9284 26.8108 12.9284 26.8108L13.3712 27.2292ZM10.4023 28.091C10.4023 28.091 11.0605 27.672 11.0968 27.0619C11.0968 27.0619 13.5023 28.0548 14.2804 28.7492C13.503 28.0548 11.2042 28.0548 10.4023 28.091ZM9.28952 28.7011C9.28952 28.7011 13.0121 28.3901 14.8075 29.7783L14.4247 30.2448C14.424 30.2455 13.0958 28.9772 9.28952 28.7011ZM12.7005 31.0236C12.7005 31.0236 9.28952 30.7838 7.67398 30.8319C7.67398 30.8319 8.53577 29.4193 8.26037 28.8566C8.53512 29.4199 12.1977 30.2455 12.7005 31.0236ZM10.6777 33.752C10.6777 33.752 7.56593 33.5846 6.11774 34.1947C6.11774 34.1947 6.76409 33.5484 6.36877 31.3945C6.36877 31.3945 10.8932 30.7838 12.6761 32.1364C12.6761 32.1364 11.587 32.0883 10.5934 31.8854C9.58864 31.6937 8.48702 31.5856 6.95516 31.6344C6.95582 31.6344 9.84033 32.2201 10.6777 33.752ZM7.67398 34.2435C7.67398 34.2435 10.5348 34.3871 10.8932 34.4108L10.175 34.9135C10.175 34.9135 9.18212 34.4464 7.67398 34.2435ZM9.37319 35.3563C9.37319 35.3563 7.03949 36.4098 6.51306 36.9363C6.51306 36.9363 6.26203 36.3854 6.34571 36.0026C6.42939 35.608 6.28575 35.1652 6.20208 34.9135C6.2851 35.1646 9.09779 35.3082 9.37319 35.3563ZM10.152 36.0264C10.152 36.0264 9.31389 36.5291 8.404 36.4098C8.404 36.4098 8.93043 36.0026 9.31389 36.0026C9.70855 36.002 10.152 36.0264 10.152 36.0264ZM8.53512 37.4627C8.53512 37.4627 6.97954 38.5755 6.93144 38.9352C6.93144 38.9352 6.76409 37.69 6.36877 37.5826C6.76409 37.69 8.23599 37.4146 8.53512 37.4627ZM15.4776 40.5626C15.4776 40.5626 14.3166 39.2699 15.274 39.9163C15.274 39.9163 15.6568 38.4444 15.7167 39.7127C15.7167 39.7127 16.3394 39.5454 16.3394 39.9874C16.3394 40.4309 15.753 41.4844 15.4776 40.5626ZM10.7733 43.9136C10.7733 43.9136 10.2231 42.4773 10.7377 42.752C10.7377 42.752 10.3668 40.9092 11.0731 41.2439C11.0731 41.2439 10.5941 40.2866 10.9769 40.0474C10.9769 40.0474 10.5341 39.7483 10.6296 38.9583C10.6296 38.9583 10.5697 39.5085 11.3834 39.7839C12.2096 40.0474 11.8624 41.1128 12.4125 40.562C12.9508 40.023 13.0951 39.5085 12.8553 38.9583C12.6155 38.4075 12.7472 37.9647 13.13 38.312C13.501 38.6467 14.0162 38.4437 13.6327 37.8692C13.2618 37.2828 12.8909 36.7801 13.1538 36.5047C13.4285 36.2299 13.2256 36.6009 13.6084 36.9843C13.9793 37.3546 14.4945 37.8336 14.2547 38.4444C14.0155 39.0664 14.1111 39.438 14.3865 39.9525C14.6619 40.4671 14.8292 40.9099 14.6263 40.9698C14.4227 41.0416 14.3153 40.9461 14.291 40.6345C14.2547 40.3235 13.501 38.1453 13.501 39.5091C13.501 40.873 13.2974 40.7656 13.13 41.0054C12.9508 41.2446 12.5436 42.6091 12.3401 41.8909C12.1365 41.1853 11.5145 40.73 11.5145 41.3526C11.5145 41.9627 11.048 41.209 11.2872 42.2025C11.5145 43.1961 10.8082 42.5135 10.9044 43.2917C11.0131 44.081 10.7733 43.9136 10.7733 43.9136ZM6.01035 54.5055C6.01035 54.5055 6.1777 53.0811 5.91415 52.268C5.91415 52.268 6.5124 52.89 6.5124 53.537C6.51306 54.1708 6.01035 54.4818 6.01035 54.5055ZM6.91958 42.0583C6.91958 42.0583 6.47682 42.1419 6.11774 42.0945C5.7468 42.0583 6.23766 41.6992 6.5605 41.7354C6.884 41.771 6.91958 42.0583 6.91958 42.0583ZM7.57779 42.3818C7.57779 42.3818 5.98597 43.399 5.13604 43.6382C5.13604 43.6382 5.25595 42.5491 5.91415 42.5491C6.5605 42.5491 7.57779 42.3818 7.57779 42.3818ZM7.49411 43.1118C7.49411 43.1118 5.38772 44.5362 4.6096 44.7392C3.84334 44.9309 4.13061 44.2127 4.93245 44.2127C5.7468 44.2127 6.44125 43.0281 7.49411 43.1118ZM7.12317 44.2964C7.12317 44.2964 5.05236 45.7808 4.37044 46.1399C3.67599 46.5102 3.11332 47.0017 3.35315 46.3435C3.59232 45.6978 3.35315 45.9008 4.20308 45.5417C5.05236 45.1707 6.80033 44.2964 7.12317 44.2964ZM6.91958 45.3737C6.91958 45.3737 5.38772 46.6782 4.86063 46.953C4.32234 47.2409 2.90973 48.1745 2.74238 48.6647C2.74238 48.6647 2.79048 47.5275 3.72409 47.121C4.6577 46.7138 6.71665 45.6128 6.91958 45.3737ZM6.68041 46.4272L6.47682 47.3246C6.47682 47.3246 4.48969 48.4973 3.75967 49.1918C3.02965 49.8737 2.50322 50.3646 2.33521 50.6881C2.33521 50.6881 2.58623 48.9889 3.92702 48.2101C5.25595 47.4445 6.27324 46.918 6.68041 46.4272Z" fill="#929496"/>
<path fill-rule="evenodd" clip-rule="evenodd" d="M8.90659 38.3363L8.58309 39.0907C8.58309 39.0907 2.76598 41.1734 1.85675 51.6579C1.85675 51.6579 4.80121 48.5698 6.97942 47.6605C6.97942 47.6605 2.76598 51.3469 2.55053 53.1067C2.55053 53.1067 3.24498 52.7358 3.67587 52.5684C3.67587 52.5684 3.30493 53.6931 3.56782 54.124C3.56782 54.124 3.93876 53.1542 4.2616 52.8913C4.2616 52.8913 4.2023 54.4956 4.52515 54.8059C4.52515 54.8059 5.00414 54.064 4.84865 52.6277C4.84865 52.6277 5.75788 54.4343 5.11154 55.6071C5.11154 55.6071 2.65793 55.7152 1.7487 53.8479C0.851322 51.9807 0.923139 45.5061 5.91403 40.1561C6.70401 39.3055 7.74568 38.7791 8.90659 38.3363ZM16.1837 45.8526C16.1837 45.8526 15.7048 44.9434 16.3992 45.4573C17.093 45.9844 17.5239 46.6788 17.2248 46.7138C16.9256 46.7625 16.3149 46.1998 16.1837 45.8526Z" fill="#929496"/>
<path fill-rule="evenodd" clip-rule="evenodd" d="M17.5239 33.0581C17.5239 33.0581 18.0029 32.8907 18.0385 32.2325C18.086 31.5862 18.5175 30.8561 19.1276 32.2325C19.1276 32.2325 18.4332 33.3216 19.5104 33.7525C19.5104 33.7525 19.295 32.3643 19.8214 32.927C20.336 33.4896 21.1622 34.1004 20.2042 34.0523C20.2042 34.0523 20.2523 34.8304 20.8986 34.7942C21.545 34.7461 21.8085 34.7461 22.0714 35.1776C22.3231 35.6085 22.9807 36.7332 21.9397 36.135C21.9397 36.135 21.7604 36.6976 22.2869 36.9487C22.2869 36.9487 22.2869 37.8585 22.4542 38.2058C22.6334 38.5523 22.4542 38.9002 22.2869 39.1157C22.1077 39.3311 22.1077 39.7613 22.1913 40.1567C22.2869 40.5395 22.1913 41.4494 22.3231 41.7603C22.4549 42.0595 22.2869 42.4904 21.8922 41.7959C21.5088 41.1021 20.0724 40.5039 19.4261 40.2878C18.7797 40.0723 17.9542 39.1987 17.8224 38.6004C17.7025 37.9897 17.7387 37.5113 17.4396 37.1279C17.1405 36.7332 16.925 36.0394 17.0087 35.4405C17.093 34.8297 17.7394 33.7044 17.5239 33.0581ZM36.662 25.5536C36.6738 25.5174 37.1166 25.3981 37.1647 24.9909C37.1647 24.9909 37.811 24.8117 37.7392 25.3138C37.6793 25.8284 38.1227 24.9066 38.4211 25.4574C38.7328 26.0076 38.4574 26.5103 38.0983 26.8094C37.7392 27.0255 36.2904 26.9781 36.662 25.5536ZM28.6192 34.7579C28.6192 34.7579 29.7439 36.3017 30.9048 36.9124C32.0539 37.5107 33.1792 38.7671 33.3103 39.2224C33.4421 39.6652 33.1311 40.5032 32.581 39.5578C32.0302 38.6123 31.4319 37.7742 30.8692 37.6424C30.3184 37.5107 29.6958 37.3796 30.2466 38.1452C30.7974 38.8996 31.3001 39.6889 31.4312 39.9287C31.5512 40.1679 31.9221 40.8742 32.6877 40.9216C33.4421 40.9809 34.3876 41.1371 34.495 41.3762C34.603 41.6042 34.9377 42.0588 33.9204 42.0226C32.8913 41.9982 31.7179 41.759 31.1321 40.6343C30.5576 39.509 29.3486 38.1208 29.0139 37.4869C28.6667 36.8525 28.5112 35.8108 28.6192 34.7579ZM29.9837 30.7481C29.9837 30.7481 29.7439 29.9344 30.2947 30.4608C30.8449 30.9754 31.2158 31.4544 30.8211 31.3944C30.4265 31.3463 30.5583 31.741 30.7737 31.8728C30.9773 32.0045 30.7137 32.4717 31.0366 33.1898C31.3482 33.8961 30.9292 34.2908 30.6413 33.6807C30.354 33.0818 30.1148 32.2681 30.1386 31.8971C30.1629 31.5262 30.1873 30.9754 29.9837 30.7481ZM33.0474 29.2162C33.0474 29.2162 33.4428 29.8988 32.9513 29.6952C32.4485 29.4798 32.5566 29.8744 32.6047 30.1136C32.6646 30.3534 32.7127 30.4845 32.4255 30.5089C32.1382 30.5333 32.0545 30.9517 32.2937 31.1671C32.5329 31.3707 32.4973 31.6936 32.2937 31.6936C32.0783 31.6936 32.0539 31.9446 32.3174 32.1363C32.581 32.3155 33 32.4236 32.892 32.16C32.7958 31.8971 32.9163 31.2389 33.0474 31.7173C33.1792 32.1838 33.4783 32.3392 33.4783 32.3392C33.4783 32.3392 33.5264 32.8182 33.2148 32.5547C32.892 32.2911 32.6884 32.6865 32.8439 32.9737C32.9993 33.261 33.5021 32.9256 33.6576 33.4402C33.813 33.9673 34.4713 34.8047 34.4713 35.0445C34.4713 35.2844 34.3876 35.679 34.2558 35.3918C34.124 35.1045 33.8368 34.9964 33.7649 35.3562C33.6813 35.7271 33.5495 35.7271 33.4777 35.4636C33.394 35.2007 33.1548 35.0208 33.1548 35.679C33.1548 36.3372 33.0231 38.3837 32.7358 36.9592C32.4485 35.5466 32.2094 35.679 31.8984 35.7027C31.5874 35.7271 31.2646 34.8653 31.7666 34.6255C32.2687 34.3857 32.2094 33.6319 32.0539 33.1536C31.8984 32.6871 30.9529 30.329 31.1921 29.7189C31.4312 29.12 31.0366 28.5099 31.7429 28.6654C32.4485 28.8328 32.2693 28.0191 32.6047 28.5099C32.9513 29.0126 33.0474 29.2162 33.0474 29.2162ZM33.083 28.1153C33.083 28.1153 33.1792 26.9662 33.4184 27.6244C33.6576 28.2833 33.8974 28.5343 34.0529 28.6417C34.2084 28.7498 34.2802 29.348 33.7056 29.0963C33.1311 28.8334 33.1074 28.4862 33.083 28.1153ZM33.8493 30.3771C33.8493 30.3771 34.041 29.5154 34.4357 30.1617C34.831 30.8074 34.5556 31.43 34.6748 32.0164C34.7829 32.6028 34.3395 32.9619 34.1003 32.3155C33.873 31.6692 33.8137 30.8917 33.8493 30.3771ZM14.4721 57.749C14.4721 57.749 13.7539 57.0434 14.6394 57.27C15.5368 57.5092 15.4413 57.9282 15.3576 58.1917C15.2739 58.4678 14.9748 58.9942 14.4721 57.749ZM17.0212 55.8218C17.0212 55.8218 16.6628 54.7808 17.4047 55.1399C18.1466 55.499 17.8474 55.7026 17.6201 55.9062C17.3803 56.1216 16.9857 56.4089 17.0212 55.8218ZM15.5968 55.3435C15.5968 55.3435 15.4769 54.8052 16.0995 55.1998C16.7214 55.5826 16.5185 55.9061 16.4586 56.2409C16.3993 56.5644 16.1594 56.4451 16.0158 56.0616C15.8603 55.6663 15.6567 55.3435 15.5968 55.3435ZM9.03844 52.3516C9.03844 52.3516 11.4084 55.0206 12.3057 55.6433C12.3057 55.6433 12.2695 56.4089 11.9104 56.086C11.9104 56.086 12.6286 56.9478 12.5923 57.5461C12.5923 57.5461 13.3942 58.3479 12.5686 57.9526C12.5686 57.9526 12.3894 58.5752 12.8315 58.9106C13.2749 59.2334 12.0297 59.1142 12.6523 59.437C13.2749 59.7724 12.6885 60.059 12.365 59.7724C12.0303 59.4732 11.2041 58.3716 12.0303 58.228C12.0303 58.228 10.8213 58.0125 10.7014 57.5698C10.5815 57.127 10.1631 56.5044 9.74408 56.146C9.3369 55.7862 9.50491 55.0806 8.97782 54.6616C8.44019 54.2425 8.47577 53.1771 9.03844 52.3516ZM12.7123 54.1226C12.7123 54.1226 12.9277 53.5955 13.5497 53.9546C14.1723 54.3018 14.2916 54.4817 14.4958 54.9007C14.6994 55.3198 14.4714 55.8469 14.1123 55.3198C13.7539 54.7815 13.7539 54.3624 13.2506 54.4823C12.7485 54.6016 12.5331 54.3387 12.7123 54.1226ZM10.4148 50.6761C10.4148 50.6761 10.7021 52.0044 11.3959 52.2435C12.0903 52.4952 11.4677 53.1534 10.7258 52.4234C9.99577 51.6934 9.22951 50.8909 9.79218 50.3644C10.3423 49.838 10.0313 49.3472 9.95953 48.7245C9.88771 48.0907 10.2106 47.0372 9.79218 46.69C9.37314 46.3434 9.64854 45.7445 9.82775 45.2536C9.82775 45.2536 9.92395 46.5226 11.0849 46.5226C11.0849 46.5226 11.7793 47.9464 12.3413 48.3661C12.904 48.7845 12.5811 49.2035 13.323 49.3116C14.0531 49.419 13.4904 49.6226 13.5266 50.257C13.5629 50.8915 14.3285 51.3705 13.6703 51.5142C12.9995 51.6578 13.3823 51.3462 12.3776 51.275C11.3603 51.2025 10.5222 51.13 10.4148 50.6761ZM16.8776 44.5236C16.8776 44.5236 17.572 45.6852 18.6486 45.3736C18.6486 45.3736 17.7394 46.1154 18.7804 46.63C18.7804 46.63 17.8712 46.5463 17.572 45.9843C17.2611 45.421 16.8776 44.5236 16.8776 44.5236ZM21.8929 43.3508C21.8929 43.3508 21.8566 42.4054 22.6348 42.8363C23.4129 43.2672 23.9274 43.9609 23.6277 44.3444C23.3167 44.7391 24.1422 45.1225 24.1422 45.1225C24.1422 45.1225 24.4058 46.1998 23.544 45.1581C22.6703 44.129 22.1083 44.0097 21.8929 43.3508ZM23.1012 42.0581C23.1012 42.0581 22.8021 40.8017 23.4485 41.5792C24.1073 42.3573 24.2747 43.7817 24.2747 43.7817C24.2747 43.7817 23.3167 42.9199 23.1012 42.0581ZM97.2228 69.036C97.2228 67.8744 96.2766 66.9296 95.1164 66.9296C93.9561 66.9296 93.01 67.8751 93.01 69.036C93.0109 69.5943 93.2331 70.1295 93.628 70.5242C94.0228 70.919 94.5581 71.141 95.1164 71.1417C96.2773 71.1305 97.2228 70.1969 97.2228 69.036ZM58.612 47.9227C58.8275 48.1744 59.1503 48.3898 59.6175 48.5335L52.2329 48.5572C52.2329 48.5572 52.6282 48.4017 53.0828 47.9464L58.612 47.9227ZM67.0027 37.4145C65.542 39.6289 62.2259 40.7062 59.4863 40.778L59.5819 40.1672C62.131 40.1791 65.3028 39.3054 67.0027 37.4145ZM55.8119 38.3481C55.9318 38.3006 56.0629 38.24 56.1828 38.1926L54.7702 44.9433C54.5429 46.068 54.0639 46.8099 53.6211 47.2645C53.947 46.7441 54.1741 46.168 54.2912 45.5653L55.8119 38.3481ZM66.5112 52.0044L66.2964 53.0935C66.2964 53.0935 65.0162 50.3051 62.6575 50.3526C61.5097 50.3651 60.6703 50.7123 60.0965 51.2506C60.5998 50.3526 61.5927 49.7662 63.1358 49.73C64.8719 49.7062 66.0328 51.2144 66.5112 52.0044ZM61.1981 64.2961C61.7963 63.35 61.9637 62.3215 61.9637 62.1535C61.9637 61.8069 61.6408 60.227 59.7736 59.5925C57.9308 58.9705 55.381 58.5989 55.6326 54.6016C55.74 53.0809 56.2908 51.8844 57.0927 50.9871C56.5537 51.7896 56.1947 52.7943 56.111 53.9922C55.86 57.9888 58.3966 58.3604 60.2519 58.9824C62.1192 59.605 62.442 61.185 62.442 61.5315C62.442 61.747 62.2028 63.2314 61.1981 64.2961Z" fill="black"/>
<path fill-rule="evenodd" clip-rule="evenodd" d="M52.5684 66.6417L53.4308 61.4354C53.4308 61.4354 53.5026 61.7589 53.67 62.2379L53.0474 66.0323C53.2628 65.828 53.5863 65.7687 54.3163 65.7206C55.0463 65.6725 57.2364 66.618 59.8343 66.5824C60.9116 66.5587 63.0048 66.1278 64.5722 64.3443C62.9817 66.6424 60.5505 67.1695 59.354 67.1932C56.7574 67.2294 54.5674 66.2958 53.8367 66.3314C53.1067 66.3788 52.7838 66.45 52.5684 66.6417ZM69.0604 66.1871L68.9293 66.8097L65.5309 66.7735L68.3066 52.9973C68.3066 52.9973 68.7982 51.1907 67.7802 50.1728L68.6782 50.1853C69.1091 51.1789 68.785 52.3879 68.785 52.3879L66.0092 66.1634L69.0604 66.1871ZM75.3934 65.948C75.033 66.5462 74.4229 67.1695 73.4181 67.1695C71.4428 67.1695 71.2873 66.0441 71.5265 64.2606L72.6281 57.7497C72.6281 57.7497 72.8067 56.1217 72.1248 56.1217C71.9343 56.1217 71.7657 56.1579 71.6102 56.2534C71.8494 55.7151 72.161 55.5109 72.6038 55.5109C73.287 55.5109 73.1071 57.1271 73.1071 57.1271L72.0055 63.6498C71.7663 65.4327 71.9218 66.5581 73.8846 66.5581C74.5428 66.5581 75.033 66.2952 75.3934 65.948ZM94.71 64.8826C93.2611 67.0127 91.3102 67.1563 90.8082 67.1563C90.2099 67.1563 89.6347 67.0601 89.049 66.7735L89.1801 65.9598C89.8864 66.4026 90.5683 66.5343 91.2753 66.5343C91.7293 66.5343 93.3461 66.4263 94.71 64.8826ZM87.1574 56.3727C87.0155 56.5668 86.8878 56.771 86.7753 56.9834C86.7753 56.9834 86.4037 57.0908 86.6066 56.4089C86.7146 56.0255 87.11 55.1637 87.7082 54.5292C87.3735 55.02 87.1574 55.5227 87.0737 55.7982C86.9426 56.2534 87.0625 56.349 87.1574 56.3727ZM84.5364 70.5798C84.8593 70.1008 85.1591 69.4669 85.3508 68.6763L87.7557 56.708C87.7557 56.708 87.8275 55.7744 87.4084 56.1091C88.3546 54.5654 88.2346 56.0973 88.2346 56.0973L85.8298 68.0662C85.5537 69.2508 84.9917 70.077 84.5364 70.5798ZM88.51 71.2142C88.7018 71.4534 88.989 71.6814 89.4199 71.8244H83.3525C83.3525 71.8244 83.6509 71.6333 84.0344 71.2142H88.51ZM79.7722 67.2762C77.7027 67.3843 76.6248 66.199 76.1702 64.7152C76.2782 64.4154 76.3257 64.2006 76.3257 64.2006C76.2295 64.2481 76.1458 64.2962 76.0621 64.3318C75.7986 63.2308 75.8473 62.0099 76.0503 61.0644C76.5892 58.6464 77.3548 56.911 78.3603 55.7744C77.5815 56.8873 76.972 58.4316 76.5293 60.4543C76.0147 62.8124 76.5049 66.8453 80.2393 66.6661C82.154 66.5824 83.4704 65.8643 84.4165 64.8114C83.4592 66.199 82.0229 67.1807 79.7722 67.2762ZM77.0083 48.7246C73.2738 48.9045 72.6881 44.8597 73.2982 42.5253C73.9439 40.0599 74.7345 38.3244 75.7393 37.1754C74.9493 38.3007 74.3148 39.8563 73.7765 41.9034C73.1651 44.2371 73.7522 48.2943 77.4866 48.1151C79.4013 48.0189 80.7177 47.3133 81.6638 46.2604C80.7065 47.6361 79.2701 48.6172 77.0083 48.7246ZM74.6739 38.0971L74.3036 38.8515C74.3036 38.8515 73.5248 37.5832 72.2691 38.9352C73.5011 37.0917 74.3754 37.7617 74.6739 38.0971ZM66.9178 38.3244C66.9178 38.3244 67.2175 37.1872 68.0194 36.3373C67.5766 37.0317 67.3981 37.7137 67.3981 37.7137C68.6901 36.2536 68.6539 37.4264 68.5346 38.2282C68.4035 39.0419 66.3083 47.9946 66.3083 47.9946H69.349C69.2884 48.3774 69.264 48.6053 69.264 48.6053H65.8293C65.8293 48.6053 67.9357 39.6527 68.0556 38.8508C68.1749 38.0372 68.2111 36.8644 66.9178 38.3244ZM104.141 57.187L103.721 57.9526C103.721 57.9526 102.776 55.1643 101.472 55.1643C100.801 55.1643 100.275 55.308 99.9163 55.5715C100.144 54.937 100.861 54.5542 101.951 54.5542C103.064 54.5542 103.926 56.5888 104.141 57.187ZM101.197 65.3253C101.94 63.9371 100.694 62.9317 99.9525 62.5008C99.3892 62.1536 97.4396 60.9327 96.7689 59.3046C96.8888 58.2274 96.9119 57.3774 96.8394 56.6837C97.0555 56.0729 97.3784 55.5221 97.7967 55.0793C97.4146 55.6901 97.1622 56.3957 97.0311 57.1739C96.6721 59.5319 99.6883 61.4466 100.431 61.8781C101.172 62.3209 102.418 63.3257 101.675 64.7027C101.531 64.9662 101.377 65.1698 101.197 65.3253Z" fill="black"/>
<path fill-rule="evenodd" clip-rule="evenodd" d="M94.5788 65.2898L95.069 64.6915C95.2726 64.9544 97.63 67.7915 101.005 66.7623C102.06 66.4395 102.825 65.9249 103.363 65.3385C102.825 66.1759 101.94 66.9422 100.526 67.3731C96.9956 68.4497 94.5788 65.2898 94.5788 65.2898ZM56.8648 33.4291C56.9485 33.01 57.0322 31.9572 55.8113 31.3102H57.0322C57.6185 32.0883 57.2838 32.9982 57.2838 32.9982C57.1764 33.5128 57.3194 33.3454 56.8648 33.4291Z" fill="black"/>
<path fill-rule="evenodd" clip-rule="evenodd" d="M56.1947 38.1808C56.6018 38.0253 57.009 37.8698 57.38 37.6544C58.6246 36.9481 59.1029 34.818 58.8637 33.9562C58.732 33.4535 57.9782 33.298 57.212 33.3823L57.2838 32.9989C57.2838 32.9989 57.8339 31.5151 56.2902 30.7007L64.3455 30.6652C64.3455 30.6652 68.439 30.6652 68.2354 34.5544C68.0193 38.4325 63.1964 40.1923 59.5812 40.168L58.6964 45.458C58.6964 45.458 58.1574 47.3133 60.0965 47.9234L52.7119 47.9472C52.7119 47.9472 54.2794 47.3133 54.7702 44.9434L56.1947 38.1808ZM53.0473 66.0323L53.9091 60.826C53.9091 60.826 54.8545 65.2061 58.3261 65.386C61.8088 65.5533 62.4433 61.8795 62.4433 61.5316C62.4433 61.1851 62.1205 59.6051 60.2533 58.9825C58.3979 58.3605 55.8606 57.9889 56.1123 53.9922C56.3759 49.9824 59.798 48.1508 62.5751 48.5342C65.3634 48.917 66.2621 49.9106 67.3387 49.6951L66.776 52.4834C66.776 52.4834 65.4959 49.6951 63.1371 49.7307C60.7797 49.7782 59.7025 51.1552 59.7025 52.8669C59.7025 54.5786 60.3976 55.0932 61.7252 55.1769C63.0528 55.2606 67.3387 56.0387 66.2615 60.8378C65.1961 65.6377 61.4267 66.5469 59.8349 66.5831C57.237 66.6194 55.0469 65.6732 54.3169 65.7213C53.5856 65.7681 53.2621 65.8281 53.0473 66.0323ZM76.3263 64.2007C76.3263 64.2007 75.8591 66.5581 73.8839 66.5581C71.9211 66.5581 71.7656 65.4328 72.0048 63.6499L73.1064 57.1271C73.1064 57.1271 73.2863 55.5109 72.603 55.5109C71.9211 55.5109 71.5864 55.9781 71.2747 57.3663L69.4075 66.1872L66.0091 66.1634L68.7849 52.3879C68.7849 52.3879 69.2764 50.5806 68.2585 49.5634L72.7111 49.6108L71.7419 54.3026C71.7419 54.3026 73.5485 53.0698 74.7568 53.2853C75.9547 53.4889 76.4811 54.5417 76.014 57.1027L74.853 63.3626C74.8537 63.3626 74.3635 65.2535 76.3263 64.2007ZM89.18 65.9599L88.6411 69.3471C88.6411 69.3471 88.4375 70.7116 89.887 71.2143H83.8301C83.8301 71.2143 85.3151 70.2688 85.8297 68.0669L88.2346 56.098C88.2346 56.098 88.3657 54.4106 87.2529 56.3734C87.2529 56.3734 86.8707 56.4696 87.0743 55.7988C87.2779 55.1169 88.3314 53.0224 89.7908 53.1535C91.2515 53.2853 91.3826 54.2308 91.3826 54.2308C91.3826 54.2308 92.9744 53.3209 94.3627 53.6925C95.7509 54.0641 97.5825 54.6142 96.6002 60.4425C95.6198 66.2721 91.9934 66.535 91.2752 66.535C90.5689 66.5344 89.887 66.4026 89.18 65.9599Z" fill="#545454"/>
<path fill-rule="evenodd" clip-rule="evenodd" d="M80.2391 66.6661C76.5047 66.8453 76.0145 62.8124 76.5291 60.4544C77.6419 55.3798 79.7845 53.3577 82.9919 53.3452C86.4278 53.3452 86.9543 57.3669 86.4997 59.7599C85.877 63.0872 84.5606 66.4625 80.2391 66.6661ZM77.4864 48.1145C73.752 48.2937 73.1649 44.2364 73.7763 41.9027C75.1046 36.8394 77.0318 34.8054 80.2391 34.8054C83.6751 34.7936 84.2015 38.8272 83.7456 41.2208C83.1243 44.5481 81.8079 47.9116 77.4864 48.1145ZM67.3979 37.7143C67.3979 37.7143 68.2109 34.6025 70.7851 34.8417C70.7851 34.8417 72.5673 34.758 72.5199 37.068C72.5199 37.068 74.0998 35.4044 76.195 35.3325L74.7818 38.2289C74.7818 38.2289 73.7408 36.5409 72.1246 39.1625C70.5097 41.7841 69.7428 47.9952 69.7428 47.9952H66.3081C66.3081 47.9952 68.4033 39.0426 68.5344 38.2289C68.6537 37.4271 68.6899 36.2536 67.3979 37.7143ZM95.057 64.6797L96.4933 62.9198C96.4933 62.9198 96.8636 65.1099 99.557 65.7806C99.557 65.7806 100.933 66.0916 101.675 64.7034C102.418 63.3263 101.172 62.3216 100.431 61.8788C99.6881 61.4479 96.6719 59.5326 97.0309 57.1745C97.4025 54.8171 99.0181 52.9736 101.843 53.309C104.667 53.6443 105.482 54.9845 105.482 54.9845L104.2 57.3425C104.2 57.3425 103.255 54.5542 101.951 54.5542C100.634 54.5542 99.8555 55.1169 99.8324 56.0018C99.7962 56.8754 101.077 57.6417 101.077 57.6417C101.077 57.6417 104.5 60.2027 104.644 61.3399C104.775 62.4883 104.536 65.6844 101.005 66.7617C97.4744 67.8389 95.057 64.6797 95.057 64.6797Z" fill="#545454"/>
<path fill-rule="evenodd" clip-rule="evenodd" d="M51.2157 29.6234C51.5985 29.0489 52.0294 28.1509 52.3167 26.7982L54.9983 14.5183C54.9983 14.5183 55.5366 12.771 54.4593 11.73H55.3685C55.8475 12.7235 55.4766 13.9082 55.4766 13.9082L52.7838 26.1881C52.3766 28.1871 51.6104 29.2037 51.2157 29.6234ZM63.58 28.3663C62.7656 29.7189 61.3767 30.0662 58.7558 30.2691C54.6985 30.5682 51.6348 30.3291 50.4976 30.4608C50.4976 30.4608 50.7367 30.2816 51.0721 29.8389C52.2811 29.7308 55.2855 29.9469 59.2341 29.6471C61.413 29.4916 62.7294 29.2281 63.58 28.3663Z" fill="black"/>
<path fill-rule="evenodd" clip-rule="evenodd" d="M62.8966 19.7965C62.8966 19.7965 65.6618 20.263 65.0161 24.4764C64.3816 28.6774 63.3044 29.3481 59.2346 29.6465C55.178 29.9582 52.1136 29.7184 50.9771 29.8501C50.9771 29.8501 52.2216 28.9402 52.7843 26.1875L55.4771 13.9076C55.4771 13.9076 56.0154 12.1603 54.9388 11.1193L61.7969 11.0831C61.7969 11.0831 66.6679 10.9157 66.2363 15.1522C65.7929 19.39 62.8966 19.7965 62.8966 19.7965Z" fill="#545454"/>
<path fill-rule="evenodd" clip-rule="evenodd" d="M93.8243 20.6826L93.4046 21.4489C93.4046 21.4489 92.4584 18.6599 91.1552 18.6599C90.4845 18.6599 89.9455 18.8035 89.5864 19.0671C89.8256 18.4451 90.5438 18.0498 91.621 18.0498C92.747 18.0491 93.5963 20.0837 93.8243 20.6826ZM90.8798 28.8209C91.621 27.4445 90.3764 26.4273 89.6339 25.9964C88.8927 25.5536 85.8645 23.6383 86.2355 21.2802C86.4028 20.2267 86.8225 19.2819 87.4801 18.5756C87.0847 19.1863 86.8344 19.9045 86.7145 20.6701C86.3442 23.0282 89.3716 24.9428 90.1142 25.3737C90.8554 25.8165 92.1 26.8219 91.3588 28.2101C91.2337 28.4387 91.0719 28.645 90.8798 28.8209Z" fill="black"/>
<path fill-rule="evenodd" clip-rule="evenodd" d="M84.249 28.7854L84.7524 28.1872C84.956 28.4507 87.3134 31.2871 90.6888 30.258C91.7416 29.9345 92.4954 29.4206 93.0462 28.8335C92.4954 29.6709 91.6217 30.4372 90.2098 30.8681C86.6783 31.9447 84.249 28.7854 84.249 28.7854ZM84.9079 20.2399L84.4882 21.0181C84.4882 21.0181 83.5421 18.2298 82.2375 18.2298C81.5681 18.2298 81.0423 18.3734 80.6701 18.6369C80.9093 18.0024 81.6274 17.6078 82.7172 17.6078C83.8293 17.6065 84.6799 19.6536 84.9079 20.2399ZM81.9621 28.3901V28.3782C82.7047 27.0019 81.4601 25.9964 80.7175 25.5537C79.9763 25.1228 76.96 23.1956 77.3191 20.8501C77.4865 19.7965 77.9062 18.8392 78.5637 18.1454C78.1816 18.7443 77.918 19.4625 77.7981 20.2281C77.4278 22.5862 80.4553 24.5008 81.1965 24.9442C81.9391 25.3751 83.1837 26.3924 82.4424 27.7688C82.2981 28.031 82.1427 28.2346 81.9621 28.3901Z" fill="black"/>
<path fill-rule="evenodd" clip-rule="evenodd" d="M75.4165 28.259L75.8362 27.7563C76.0397 28.0073 78.3972 30.8444 81.7725 29.8146C82.8254 29.5036 83.5923 28.989 84.1299 28.402C83.5923 29.2394 82.7055 30.0063 81.2935 30.4366C77.9544 31.4538 75.6082 28.6774 75.369 28.3776C75.3775 28.3355 75.3936 28.2953 75.4165 28.259ZM70.6654 28.8573C70.6654 28.8573 69.2521 30.7726 67.0983 30.569C65.4946 30.4135 64.5966 28.4264 64.8127 25.6499C64.8832 25.2908 64.9557 24.908 65.0163 24.4771C65.0637 24.2261 65.0868 23.9863 65.1 23.7708C65.1836 23.388 65.2917 22.9927 65.4228 22.598C65.8768 21.1499 66.5475 19.929 67.3263 19.0072C66.7511 19.8328 66.2609 20.8382 65.8899 21.9873C64.5492 26.26 65.4228 29.7553 67.5773 29.9589C69.7318 30.1625 71.1444 28.2353 71.1444 28.2353C71.1444 28.2353 71.682 29.8152 73.43 29.8152C73.9808 29.8152 74.4117 29.5998 74.722 29.3007C74.3992 29.8633 73.8497 30.4379 72.951 30.4379C71.203 30.4372 70.6654 28.8573 70.6654 28.8573ZM64.8246 18.6719C64.3937 19.3301 63.8903 19.7491 63.4594 20.0008C63.1366 19.8335 62.8967 19.7972 62.8967 19.7972C62.8967 19.7972 63.9028 19.6536 64.8246 18.6719Z" fill="black"/>
<path fill-rule="evenodd" clip-rule="evenodd" d="M84.728 28.1746L86.1755 26.4273C86.1755 26.4273 86.5472 28.6055 89.2393 29.2755C89.2393 29.2755 90.6163 29.5872 91.3588 28.2101C92.1001 26.8219 90.8555 25.8165 90.1142 25.3737C89.3717 24.9428 86.3436 23.0275 86.7145 20.6701C87.0854 18.3127 88.7016 16.4692 91.5262 16.8039C94.3507 17.1393 95.1526 18.4794 95.1526 18.4794L93.8836 20.8375C93.8836 20.8375 92.9375 18.0491 91.6211 18.0491C90.3172 18.0491 89.539 18.6237 89.5028 19.4973C89.4798 20.3716 90.7474 21.1372 90.7474 21.1372C90.7474 21.1372 94.1834 23.6989 94.3145 24.8354C94.4456 25.9845 94.2183 29.18 90.6881 30.2572C87.1573 31.3345 84.728 28.1746 84.728 28.1746Z" fill="#545454"/>
<path fill-rule="evenodd" clip-rule="evenodd" d="M75.8229 27.7318L77.2592 25.9845C77.2592 25.9845 77.6308 28.1746 80.3229 28.8453C80.3229 28.8453 81.6999 29.1444 82.4425 27.7681C83.1837 26.3917 81.9391 25.3744 81.1966 24.9435C80.4554 24.5008 77.4272 22.5854 77.7982 20.2274C78.1684 17.8818 79.7853 16.0265 82.6098 16.3618C85.4344 16.6972 86.2474 18.0498 86.2474 18.0498L84.9672 20.4072C84.9672 20.4072 84.0211 17.6071 82.7179 17.6071C81.4002 17.6071 80.6227 18.1816 80.5983 19.0552C80.5621 19.9296 81.8442 20.707 81.8442 20.707C81.8442 20.707 85.267 23.2562 85.3988 24.4052C85.5431 25.5424 85.3026 28.7379 81.7724 29.8152C78.2409 30.8917 75.8229 27.7318 75.8229 27.7318ZM71.1436 28.2345C71.1436 28.2345 69.7304 30.1617 67.5765 29.9581C65.4227 29.7545 64.5484 26.2599 65.8892 21.9865C67.2418 17.7138 70.4729 15.3201 73.0945 17.3066L73.2256 16.8994H76.6603L74.6732 26.8575C74.6732 26.8575 74.2304 28.6411 75.6193 27.6356C75.6193 27.6356 75.1765 29.8138 73.4292 29.8138C71.6819 29.8138 71.1436 28.2345 71.1436 28.2345Z" fill="#545454"/>
<path fill-rule="evenodd" clip-rule="evenodd" d="M57.6311 28.5699L56.2903 28.6055L57.9302 20.8025C57.9302 20.8025 60.8503 20.3716 60.7785 22.5261C60.7192 24.6681 60.2158 28.5099 57.6311 28.5699ZM59.4733 19.4973H58.1931L59.4021 13.1301C59.4021 13.1301 59.437 12.3638 60.4793 12.4C61.5203 12.4238 62.5251 12.8665 62.394 14.9136C62.2622 16.9719 61.3174 19.4973 59.4733 19.4973Z" fill="#898989"/>
<path fill-rule="evenodd" clip-rule="evenodd" d="M57.8108 21.389C58.5764 21.3527 60.3606 21.4489 60.3 23.1363C60.2637 24.5008 60.049 26.5472 59.2227 27.8761C60.4443 26.6546 60.7309 24.118 60.7783 22.5262C60.8501 20.3717 57.93 20.8026 57.93 20.8026L57.8108 21.389ZM59.4026 13.1057C59.5568 13.0464 59.7485 12.9983 60.0009 13.0102C61.0419 13.0464 62.0585 13.4767 61.9155 15.5356C61.8437 16.6484 61.5321 17.9055 60.9582 18.8273C61.8318 17.9411 62.3108 16.3137 62.3945 14.9136C62.5256 12.8672 61.5209 12.4238 60.4799 12.4001C59.5568 12.3645 59.4257 12.9628 59.4026 13.1057Z" fill="black"/>
<path fill-rule="evenodd" clip-rule="evenodd" d="M72.8554 18.181L71.2755 26.2837C71.2755 26.2837 70.869 27.8992 69.6955 27.863C68.5234 27.8393 68.3791 26.1513 68.5827 25.0747C68.7863 23.9981 70.9045 16.2657 72.8554 18.181Z" fill="#898989"/>
<path fill-rule="evenodd" clip-rule="evenodd" d="M72.3765 18.7911L70.7965 26.9057C70.7965 26.9057 70.7247 27.2173 70.533 27.5639C71.0719 27.0974 71.2755 26.2837 71.2755 26.2837L72.8555 18.181C72.1847 17.5221 71.5028 18.0018 70.8802 18.9591C71.3592 18.4445 71.8738 18.3009 72.3765 18.7911Z" fill="black"/>
<path fill-rule="evenodd" clip-rule="evenodd" d="M59.8572 38.9464L61.2454 31.8129L62.8603 31.7892C62.8603 31.7892 65.0391 32.0284 64.6438 34.6137C64.2492 37.1873 62.6455 39.2581 59.8572 38.9464Z" fill="#898989"/>
<path fill-rule="evenodd" clip-rule="evenodd" d="M61.1375 32.4237L62.3834 32.3993C62.3834 32.3993 64.5609 32.6385 64.1788 35.2238C64.0233 36.17 63.7235 37.0311 63.2564 37.7493C63.9989 36.9593 64.466 35.8465 64.6446 34.6137C65.0399 32.0284 62.861 31.7892 62.861 31.7892L61.2462 31.8129L61.1375 32.4237Z" fill="black"/>
<path fill-rule="evenodd" clip-rule="evenodd" d="M77.9294 46.5826C76.7091 46.6064 76.5293 44.3326 76.721 43.1236C77.1163 40.6226 78.0967 36.2181 80.072 36.2536C81.3765 36.2774 81.1262 38.7665 80.9213 40.0474C80.5148 42.6809 79.6292 46.5352 77.9294 46.5826Z" fill="#898989"/>
<path fill-rule="evenodd" clip-rule="evenodd" d="M78.4558 37.4027C78.7918 37.0555 79.174 36.8644 79.5937 36.8644C80.8982 36.8888 80.6465 39.378 80.4429 40.6581C80.1689 42.4535 79.6655 44.8235 78.8393 46.1517C79.964 45.0633 80.5984 42.1663 80.9213 40.048C81.1262 38.7672 81.3766 36.278 80.072 36.2543C79.4375 36.2418 78.8999 36.6964 78.4558 37.4027Z" fill="black"/>
<path fill-rule="evenodd" clip-rule="evenodd" d="M89.6228 64.0689L90.5327 58.6708C90.7001 57.7372 91.2509 55.5353 93.0101 55.4878C94.5426 55.4516 93.9918 58.4079 93.8244 59.3172C93.6557 60.2383 92.5673 65.4327 90.7719 65.3491C90.2099 65.3253 89.7309 64.7996 89.6228 64.0689ZM80.682 65.1336C79.4618 65.1699 79.282 62.8717 79.4737 61.6627C79.869 59.1735 80.8507 54.769 82.8247 54.7921C84.1292 54.8165 83.8789 57.3182 83.6753 58.5983C83.2674 61.2206 82.3819 65.0987 80.682 65.1336Z" fill="#898989"/>
<path fill-rule="evenodd" clip-rule="evenodd" d="M91.2146 56.6599C91.5618 56.3371 91.9802 56.1216 92.531 56.0973C94.0635 56.061 93.5127 59.018 93.3454 59.9266C93.2241 60.5854 92.6391 63.3856 91.6699 64.93C92.9257 63.6973 93.6801 60.0709 93.8244 59.3165C93.9917 58.4066 94.5425 55.4509 93.01 55.4871C92.1607 55.5109 91.5981 56.0254 91.2146 56.6599Z" fill="black"/>
<path fill-rule="evenodd" clip-rule="evenodd" d="M81.2097 55.9418C81.5444 55.6064 81.9279 55.4035 82.3463 55.4154C83.6508 55.4391 83.4004 57.9283 83.1969 59.2091C82.9214 60.9926 82.4181 63.3626 81.5919 64.7034C82.7179 63.6143 83.3523 60.706 83.6752 58.599C83.8788 57.3188 84.1291 54.8171 82.8246 54.7927C82.1901 54.7927 81.6525 55.2473 81.2097 55.9418Z" fill="black"/>
<path fill-rule="evenodd" clip-rule="evenodd" d="M96.9837 69.0361C96.9832 69.2805 96.9345 69.5225 96.8403 69.7481C96.7461 69.9737 96.6084 70.1785 96.4349 70.3508C96.2615 70.5231 96.0557 70.6595 95.8295 70.7521C95.6032 70.8448 95.361 70.8919 95.1165 70.8908C94.8718 70.8928 94.6291 70.8462 94.4025 70.7539C94.1758 70.6616 93.9698 70.5252 93.7961 70.3528C93.6225 70.1803 93.4848 69.9751 93.3909 69.7491C93.2971 69.5231 93.2489 69.2808 93.2493 69.0361C93.2493 68.0069 94.0867 67.1688 95.1046 67.1688C95.3507 67.1679 95.5945 67.2154 95.8221 67.3088C96.0498 67.4022 96.2567 67.5395 96.4313 67.7129C96.6058 67.8863 96.7444 68.0924 96.8392 68.3195C96.934 68.5465 96.9831 68.79 96.9837 69.0361Z" fill="#898989"/>
<path fill-rule="evenodd" clip-rule="evenodd" d="M94.3264 70.137H94.6262V69.1316H95.3918C95.8708 69.1316 95.739 69.5625 95.7871 69.8379L95.8346 70.137H96.1936C96.0625 69.9334 96.11 69.8853 96.0869 69.5743C96.0493 69.1671 96.0382 69.1309 95.7983 68.9873C96.0263 68.8081 96.1212 68.7 96.11 68.4002C96.0737 67.8738 95.7278 67.8138 95.3674 67.8138H94.3264V70.137Z" fill="black"/>
<path fill-rule="evenodd" clip-rule="evenodd" d="M95.3674 68.078C95.5592 68.078 95.8464 68.1261 95.7983 68.5214C95.7753 68.8205 95.5717 68.868 95.3674 68.868H94.6262V68.078H95.3674Z" fill="#898989"/>
</svg>
