<svg width="88" height="88" viewBox="0 0 88 88" fill="none" xmlns="http://www.w3.org/2000/svg">
<path fill-rule="evenodd" clip-rule="evenodd" d="M29.2786 22.3625C31.5572 22.2514 33.8358 22.2175 36.1144 22.1885C36.4282 22.1644 36.7227 22.2997 37.0172 22.3867C37.2875 22.493 37.553 22.2804 37.8282 22.3335C38.1613 22.5994 38.1372 23.0489 38.1372 23.4308C38.1275 27.1527 38.1517 30.8794 38.142 34.6013C38.1324 35.1234 38.171 35.6502 38.1179 36.1771C38.1179 36.4429 37.8379 36.5638 37.6061 36.5638C34.531 36.5638 31.4268 36.9263 28.3855 36.3124C27.3813 36.0804 26.3917 35.5487 25.822 34.6642C25.1992 33.7603 24.9868 32.6147 25.1751 31.5368C25.3875 30.8311 25.7448 30.1592 26.271 29.6372C26.4496 29.4583 26.5944 29.2456 26.7248 29.0281C26.4351 28.5689 26.0537 28.1677 25.8268 27.6747C25.402 26.6355 25.4455 25.4367 25.9475 24.4313C26.353 23.7401 26.9565 23.1746 27.6758 22.8169C28.1875 22.6042 28.7186 22.406 29.2786 22.3625ZM31.2048 25.5721C30.751 25.6736 30.2103 25.5624 29.8482 25.9201C29.5392 26.1859 29.5634 26.6161 29.573 26.9835C29.7806 27.3509 30.0992 27.6989 30.5434 27.7279C31.2241 27.7762 31.9096 27.7279 32.5903 27.694C33.1165 27.6699 33.7779 27.8826 34.1255 27.3509C34.1641 26.8675 34.1641 26.3841 34.1206 25.9008C34.0048 25.7783 33.8857 25.6607 33.7634 25.5479C32.9089 25.4947 32.0544 25.5527 31.2048 25.5721ZM30.8813 30.6764C30.1765 30.6281 29.433 31.0679 29.2255 31.7591C29.1289 32.199 29.1627 32.7065 29.4668 33.0594C29.6261 33.2189 29.853 33.2817 30.051 33.3784C30.8572 33.4074 31.6682 33.3929 32.4744 33.4171C32.9186 33.4026 33.4013 33.4848 33.8165 33.2672C33.9613 33.1464 34.0192 32.9579 34.1061 32.7984C34.111 32.2812 34.1448 31.7591 34.1013 31.2419C34.0724 30.9423 33.8117 30.7296 33.5172 30.7247C32.6386 30.6667 31.7599 30.6909 30.8813 30.6764ZM51.1475 22.4012C51.3793 22.0048 51.891 22.116 52.2724 22.1209C54.2855 22.2175 56.2986 22.2997 58.3117 22.2465C59.2144 22.2224 60.1703 22.3142 60.9427 22.8362C61.6137 23.2858 62.2124 23.832 62.8013 24.3927C62.8174 24.5216 62.8335 24.6521 62.8496 24.7842C62.8351 25.3401 63.4386 25.5237 63.5786 26.0071C63.6606 26.5243 63.6848 27.0512 63.7041 27.5732C63.3227 27.5925 62.9365 27.607 62.5551 27.6409C62.7241 28.0517 63.2551 28.0807 63.482 28.4481C63.593 28.7865 63.3275 29.0668 63.1489 29.323C62.4924 30.2124 61.5993 30.8698 60.8172 31.6335C62.0144 33.2817 63.2889 34.8768 64.4524 36.5493C63.202 36.6266 61.9468 36.675 60.6917 36.6218C60.2041 36.617 59.7213 36.3849 59.4317 35.9886C58.5386 34.8188 57.7275 33.5863 56.8586 32.3972C56.6896 32.1362 56.4096 31.9863 56.1392 31.851C55.9365 31.8316 55.7386 31.8171 55.5406 31.8075C55.2992 31.9767 55.111 32.228 55.0917 32.5325C55.0241 33.7506 55.251 34.9639 55.1882 36.1868C55.1641 36.4865 54.8455 36.6605 54.5703 36.6411C53.9186 36.646 53.2668 36.588 52.6151 36.6073C52.1082 36.5928 51.5772 36.675 51.0944 36.4768C51.0124 36.2834 50.9303 36.0853 50.9448 35.8726C50.9592 33.5089 51.0075 31.1453 50.9641 28.7816C50.9641 28.4191 50.9641 28.0469 51.1089 27.7085C51.2006 27.5104 51.2537 27.2445 51.5048 27.1913C51.3599 27.0463 51.2248 26.8868 51.0993 26.7225C51.3149 26.6935 51.5289 26.6661 51.7413 26.6403L51.7317 26.4518C51.5048 26.3986 51.2779 26.3455 51.051 26.302C50.9689 25.3836 51.0268 24.4603 51.0075 23.5371C51.0124 23.1601 50.9737 22.7541 51.1475 22.4012ZM52.0551 24.644C51.8958 25.0355 51.6689 25.4802 51.8813 25.8959C52.0889 26.3745 52.6055 26.5678 53.0206 26.8192C53.0206 26.766 53.0206 26.6548 53.0206 26.5968C52.7358 26.273 52.393 25.9926 52.2096 25.5914C52.3593 25.3739 52.5427 25.1805 52.7455 25.0065C52.5137 24.8857 52.2868 24.7649 52.0551 24.644ZM55.0675 25.6639C55.0579 26.1038 55.0868 26.5436 55.1013 26.9883C55.1979 27.5152 55.1158 28.0614 55.193 28.5883C55.2751 28.7333 55.4199 28.859 55.5937 28.8445C56.4289 28.8638 57.2593 28.8396 58.0944 28.8106C58.3165 28.7671 58.5482 28.7526 58.7703 28.6849C59.7937 28.1822 59.9917 26.5485 59.0648 25.8524C58.3068 25.2482 57.2737 25.4512 56.3758 25.4464C55.9365 25.4947 55.4006 25.2821 55.0675 25.6639ZM60.8172 29.8305C60.8124 30.0529 61.0344 30.1785 61.1551 30.3381C61.2227 30.3381 61.3482 30.3381 61.4158 30.3381C61.5172 30.2462 61.6234 30.1544 61.7199 30.0577C61.4979 29.8644 61.2565 29.7 61.0199 29.526C60.9524 29.6275 60.8799 29.7242 60.8172 29.8305Z" fill="#545454"/>
<path fill-rule="evenodd" clip-rule="evenodd" d="M39.9765 5.27557C40.3289 5.24173 40.6813 5.22723 41.0289 5.20306C43.404 4.98555 45.7985 4.98555 48.1737 5.19339C48.5165 5.23206 48.8592 5.24656 49.202 5.27073C50.7661 5.46408 52.3206 5.74443 53.8558 6.10695C58.7027 7.2767 63.284 9.49534 67.2523 12.5115C69.1737 13.952 70.9551 15.5761 72.6109 17.321C74.1027 18.8484 75.4013 20.5596 76.5792 22.3432C78.4282 25.1129 79.9102 28.1339 80.9771 31.2903C83.8689 39.8216 83.6323 49.3778 80.2723 57.74C78.4861 62.2449 75.8213 66.3922 72.4902 69.9111C69.473 73.1641 65.9006 75.9145 61.942 77.9301C60.2234 78.8002 58.4323 79.5252 56.6075 80.1294C55.5165 80.463 54.4254 80.7916 53.3102 81.0333C52.3592 81.2363 51.4082 81.4442 50.4427 81.5795C50.182 81.6327 49.9116 81.6569 49.6509 81.6907C48.1061 81.9179 46.5468 82.0097 44.9875 81.9711C44.2778 81.9421 43.5537 82.0532 42.8537 81.8937C42.4337 81.6762 42.0089 81.4538 41.5599 81.3088C41.5116 81.5215 41.4633 81.7342 41.4151 81.9469C40.7489 81.884 40.0923 81.7874 39.4309 81.6859C39.1606 81.6569 38.8902 81.6375 38.6296 81.5795C35.7378 81.1783 32.9089 80.3663 30.1958 79.298C29.7371 79.1095 29.2882 78.9162 28.8392 78.7132C24.4896 76.7652 20.5213 73.9714 17.1516 70.5975C12.6523 66.1215 9.413 60.442 7.6461 54.3564C7.453 53.6652 7.25024 52.9788 7.09576 52.278C6.76748 50.7699 6.44886 49.2521 6.31369 47.7102C6.15438 46.4969 6.1061 45.274 6.07714 44.0511C6.01438 43.5242 6.06748 42.9974 6.09162 42.4753C6.12059 40.015 6.43438 37.5643 6.96059 35.162C7.173 34.1566 7.46266 33.1754 7.74748 32.1893C7.97921 31.4208 8.26403 30.6667 8.53438 29.9078C11.2716 22.6719 16.2875 16.3736 22.5682 11.8977C24.4992 10.5297 26.5509 9.331 28.704 8.34977C32.262 6.72083 36.0951 5.72026 39.9765 5.27557ZM41.024 10.6699C35.984 11.221 31.0358 12.8789 26.7778 15.6534C24.0502 17.408 21.6123 19.6025 19.4882 22.0483C16.524 25.4464 14.2937 29.4728 12.9806 33.7844C12.9661 33.8521 12.9371 33.9826 12.9227 34.0454C12.6716 34.8188 12.4882 35.6164 12.3047 36.4091C11.8896 38.5311 11.5516 40.682 11.5564 42.8523C19.8213 42.8378 28.0813 42.8668 36.3461 42.8427C36.8578 42.8572 37.3937 42.7653 37.8765 42.9877C38.0599 43.3792 38.0502 43.8336 37.9682 44.2493C37.8668 44.4861 37.6254 44.636 37.3696 44.6021C36.3799 44.5828 35.3902 44.6215 34.4006 44.5876C33.493 44.5635 32.4937 44.8196 31.6923 44.2589C31.282 44.3991 30.8765 44.607 30.4371 44.5925C24.142 44.5973 17.8516 44.607 11.5564 44.5973C11.5758 46.4051 11.8413 48.208 12.1792 49.982C12.7875 53.1335 13.8737 56.1932 15.3751 59.0257C16.6978 61.5199 18.3682 63.8159 20.2316 65.9233C20.024 66.1215 19.8165 66.3197 19.6233 66.5324C19.7537 66.6629 19.8551 66.8466 20.0385 66.9094C20.333 66.9529 20.6227 66.7741 20.9171 66.8514C21.3902 67.0061 21.6992 67.4169 22.0564 67.736C24.4316 69.9256 27.1109 71.7914 30.0075 73.2366C30.524 73.4928 30.9585 73.8699 31.4171 74.2179C31.7744 74.2179 32.1413 74.1985 32.4792 74.3339C33.4158 74.6529 34.3523 74.9526 35.2889 75.2619C38.0502 76.132 40.9371 76.5429 43.824 76.6009C43.8192 68.113 43.8289 59.6251 43.8144 51.142C43.7999 50.8955 43.8675 50.6587 43.9351 50.4267C44.4033 50.1947 45.0116 50.1367 45.4751 50.417C45.504 50.4798 45.562 50.6103 45.5909 50.678C45.6102 54.8253 45.5861 58.9726 45.5909 63.1198C45.6151 63.7192 45.2482 64.2219 45.0358 64.7536C45.2385 64.7729 45.4413 64.7874 45.644 64.8068C45.6247 66.3777 45.5909 67.9486 45.5813 69.5196C45.4365 71.5594 45.5668 73.6137 45.4268 75.6535C45.4171 76.0257 45.4171 76.3979 45.4075 76.7701C45.6682 76.7701 46.0109 76.6347 46.1992 76.8812C46.1799 77.0891 46.1751 77.3066 46.1075 77.5096C46.2185 77.6788 46.3392 77.8383 46.4599 78.0026C46.6192 77.8528 46.7882 77.7078 46.9475 77.5579C47.0601 77.5773 47.1728 77.5998 47.2854 77.6256C47.3691 77.5902 47.4544 77.5579 47.5413 77.5289C47.5654 77.3404 47.5847 77.1519 47.604 76.9634C47.2661 76.9586 46.9282 76.9634 46.5902 76.9489C46.9233 76.683 47.3289 76.5622 47.7344 76.4607C50.9109 75.784 54.1599 75.32 57.1868 74.097C60.3102 72.8451 63.1682 71.0083 65.7171 68.8284C69.1833 65.8992 72.104 62.2933 74.0978 58.2088C74.3102 57.7593 74.5275 57.3146 74.7302 56.8603C75.3385 55.4392 75.8599 53.9842 76.2702 52.4955C76.6033 51.2629 76.893 50.0158 77.1054 48.7591C77.3275 47.3815 77.453 45.9894 77.5109 44.5973C69.0965 44.5973 60.682 44.6021 52.2675 44.5973C51.9875 44.607 51.7171 44.5441 51.4516 44.4523C51.4178 44.0076 51.3792 43.5581 51.4468 43.1134C51.6158 42.8523 51.9971 42.891 52.2723 42.862C60.682 42.8475 69.0916 42.8523 77.5013 42.8523C77.482 41.0832 77.2744 39.3189 76.9751 37.5788C76.6082 35.6019 76.0385 33.6684 75.3965 31.764C75.7296 31.8703 76.0434 32.0395 76.3909 32.083C76.6227 32.1023 76.7675 31.9138 76.922 31.7833C76.8801 31.6769 76.8399 31.5722 76.8013 31.4691C76.473 31.3483 76.1399 31.2468 75.8068 31.1259C75.6201 31.2548 75.4367 31.3853 75.2565 31.5174C75.1309 31.1936 75.0102 30.8697 74.8702 30.5555C75.4109 30.2269 75.8406 30.9326 76.3909 30.8117C76.6227 30.7876 76.7047 30.5169 76.8544 30.367C76.7096 30.3525 76.4199 30.3139 76.2751 30.2945C75.8744 30.1979 75.464 30.1495 75.0633 30.0528C74.9475 30.0238 74.8799 29.9223 74.8268 29.8257C73.2675 27.201 71.4668 24.731 69.7771 22.1933C69.5792 21.8695 69.922 21.6423 70.1633 21.4925C70.4578 21.3233 70.5399 20.9753 70.6654 20.6804C70.2937 20.5451 69.9268 20.4001 69.5647 20.255C69.3201 20.1584 69.0739 20.0714 68.8261 19.994C68.9034 20.2309 68.9227 20.5112 69.1254 20.6804C69.3523 20.8834 69.613 21.0478 69.8302 21.2701C69.5068 21.3281 69.1158 21.4441 68.8261 21.2218C68.4206 20.9463 68.2709 20.4629 68.0489 20.052C67.7399 19.7813 67.3296 19.6557 67.0302 19.3705C64.5296 17.0648 61.7054 15.1072 58.6351 13.6474C56.3806 12.584 54.0102 11.7527 51.5675 11.2451L51.5096 11.2065C50.3992 11.0179 49.2985 10.7521 48.1689 10.6651C47.7537 10.5829 47.3289 10.5926 46.9089 10.5684C46.4744 10.4911 46.0351 10.4911 45.5958 10.4717C45.5958 15.6727 45.5909 20.8737 45.5958 26.0699C45.4896 26.5098 45.0068 26.4808 44.6496 26.5001C44.7719 26.5259 44.8925 26.5517 45.0116 26.5775C45.2916 26.7853 45.6827 27.0125 45.6247 27.4185C45.5185 28.042 45.8227 28.8734 45.1758 29.2746C45.3544 29.5791 45.5813 29.8885 45.5861 30.2559C45.6006 32.2038 45.5909 34.1469 45.5909 36.0949C45.5909 36.3463 45.5571 36.6363 45.3496 36.8006C45.0068 36.9891 44.553 37.023 44.2296 36.7861C43.9109 36.5493 43.824 36.1191 43.8192 35.7469C43.824 32.895 43.8289 30.048 43.8289 27.1962C43.8289 27.0076 43.853 26.824 43.8771 26.6355C43.8723 25.2627 43.8965 23.8851 43.8723 22.5124C43.7178 21.9855 43.8144 21.4151 44.244 21.0526C44.104 20.5934 43.8289 20.1584 43.824 19.6702C43.8192 16.596 43.8192 13.5266 43.8192 10.4572C43.2689 10.4911 42.7137 10.4669 42.1682 10.5636C41.7868 10.5926 41.4006 10.5926 41.024 10.6699ZM70.0523 17.7802C70.2213 18.0799 70.3951 18.3989 70.6944 18.5923C70.9937 18.3941 71.2785 18.1621 71.5682 17.9446C71.0661 17.8962 70.564 17.6835 70.0523 17.7802ZM74.2234 20.1777C74.0689 20.5499 73.9482 21.0526 74.3392 21.3233C74.484 21.2234 74.6321 21.1251 74.7834 21.0284C74.7592 20.7094 74.6096 20.4242 74.484 20.1342C74.3971 20.1503 74.3102 20.1648 74.2234 20.1777ZM71.5778 20.5789C72.0896 20.6369 72.5965 20.7384 73.113 20.7771C72.8571 20.5306 72.5965 20.1584 72.1958 20.1825C71.9254 20.1777 71.7468 20.4049 71.5778 20.5789ZM74.1992 26.6403C74.1831 26.8046 74.1686 26.9674 74.1558 27.1285C74.1268 27.1382 74.0689 27.1575 74.0399 27.1672C74.2909 27.3025 74.5371 27.4572 74.8075 27.5538C75.0585 27.6505 75.3144 27.52 75.5558 27.4475C75.0923 27.1962 74.6289 26.9496 74.1992 26.6403ZM76.9075 27.5055C77.0765 27.7665 77.2165 28.042 77.3613 28.3176C77.482 28.2402 77.593 28.1581 77.6992 28.0565C77.5061 27.7907 77.3371 27.5103 77.1778 27.2252C77.0234 27.259 76.9027 27.3315 76.9075 27.5055ZM79.8813 45.2305C79.9151 45.2885 79.9827 45.4142 80.0164 45.4722C80.282 45.4915 80.5427 45.5108 80.8034 45.535C80.7792 45.2063 80.8806 44.8341 80.6682 44.549C80.3978 44.7665 80.142 45.0033 79.8813 45.2305ZM16.5964 64.0769C16.5723 64.4877 16.5337 64.9034 16.5047 65.3143C16.804 65.1741 17.0985 65.0243 17.3833 64.8599C17.1371 64.5796 17.084 63.9512 16.5964 64.0769ZM67.7061 72.6615C67.9378 72.8355 68.1744 72.9998 68.4254 73.1497C68.5509 72.9321 68.6813 72.7146 68.7875 72.4874C68.5702 72.3521 68.3578 72.2119 68.1454 72.0766C68.0006 72.2699 67.8558 72.4681 67.7061 72.6615ZM27.333 72.9515C27.1447 73.488 26.9275 74.0149 26.7151 74.5369C26.9468 74.4837 27.1785 74.4209 27.4054 74.3436C27.5309 73.9037 27.6033 73.4493 27.6613 72.995C27.5502 72.9805 27.444 72.966 27.333 72.9515ZM44.4275 73.3478C44.3213 73.5025 44.2151 73.6572 44.1089 73.8119C44.2875 74.2034 44.4565 74.5997 44.6351 74.9913C44.7702 74.8753 44.9102 74.7689 45.0358 74.6432C44.9827 74.1502 44.8475 73.662 44.6785 73.1932C44.5948 73.2447 44.5112 73.2963 44.4275 73.3478ZM50.7468 78.8437C50.75 78.9726 50.7516 79.1031 50.7516 79.2352C51.1475 79.2352 51.5433 79.2352 51.9392 79.2304C51.7123 78.9549 51.4902 78.6455 51.1282 78.544C50.9994 78.6439 50.8723 78.7438 50.7468 78.8437ZM44.9344 79.8297C44.9505 80.0585 44.9666 80.2873 44.9827 80.5161C45.0631 80.529 45.1468 80.5419 45.2337 80.5548C45.4268 80.2454 45.6392 79.9409 45.7599 79.5929C45.4751 79.6412 45.2047 79.7331 44.9344 79.8297ZM25.5227 51.9444C27.8061 49.8515 31.3399 49.3391 34.1544 50.6055C35.7716 51.3016 37.104 52.6163 37.8089 54.2308C38.6054 56.256 38.7647 58.5907 38.002 60.6498C37.4275 62.2401 36.1868 63.5694 34.6613 64.2896C33.7537 64.7053 32.7737 64.9856 31.7696 65.034C31.1854 65.121 30.582 65.1161 29.993 65.0291C29.684 65.0098 29.3702 64.9904 29.0661 64.9469C27.6758 64.7004 26.2854 64.1591 25.2716 63.1537C25.0109 62.9023 25.0882 62.4721 25.3489 62.2594C25.9716 61.6504 26.4158 60.8818 27.0916 60.3308C27.1882 60.3356 27.3861 60.3405 27.4875 60.3453C28.2696 60.8383 29.0468 61.3845 29.9689 61.5827C31.1758 61.8824 32.5227 61.4957 33.4351 60.6643C34.2461 59.8909 34.4682 58.7212 34.4537 57.6433C34.4344 56.6234 34.2992 55.4972 33.5509 54.7286C32.4696 53.5444 30.6496 53.3172 29.1771 53.8054C28.6075 53.9697 28.1633 54.3999 27.6033 54.5933C27.3378 54.6609 27.1496 54.4048 26.9709 54.2501C26.4978 53.7039 25.9668 53.206 25.4647 52.6888C25.233 52.4906 25.2909 52.1184 25.5227 51.9444ZM33.1406 61.7567C33.0762 61.8792 33.0119 62.0016 32.9475 62.1241C33.2854 62.2594 33.6282 62.3803 33.9709 62.5011C34.0192 62.3593 34.0691 62.2175 34.1206 62.0758C33.7923 61.9646 33.4737 61.8437 33.1406 61.7567ZM55.3668 50.6007C56.8054 49.9095 58.442 49.7935 60.0061 50.0061C61.493 50.2382 62.8399 51.0067 64.0033 51.9348C64.2447 52.0943 64.2737 52.4761 64.0709 52.6791C63.7089 53.0803 63.3082 53.4429 62.9461 53.8441C62.6758 54.1099 62.444 54.4434 62.0868 54.6029C61.6475 54.6271 61.3144 54.2694 60.9427 54.0906C60.0833 53.5734 59.0502 53.4864 58.0751 53.6265C57.8965 53.6845 57.7082 53.7281 57.5296 53.7861C56.7475 54.0422 55.9896 54.5063 55.5937 55.2555C55.0723 56.2657 54.9468 57.45 55.1013 58.5714C55.1399 58.726 55.1785 58.8807 55.2123 59.0402C55.5116 60.1568 56.3516 61.1284 57.462 61.4909C58.3985 61.8631 59.4509 61.6891 60.3392 61.2685C60.933 61.0027 61.4882 60.6643 62.053 60.3453C62.1882 60.3356 62.3233 60.3308 62.4585 60.326C62.9268 60.732 63.284 61.2395 63.6944 61.7036C63.9889 62.0854 64.3509 62.4141 64.5827 62.8395C63.2744 64.2026 61.4302 65.0001 59.5475 65.034C59.0309 65.1113 58.5047 65.1065 57.993 65.0291C56.7958 65.005 55.6275 64.6714 54.5654 64.1349C53.2089 63.3808 52.0696 62.1869 51.5337 60.7127C50.9109 58.9726 50.8916 57.0391 51.3889 55.2652C51.9682 53.2399 53.4358 51.4659 55.3668 50.6007ZM59.7261 63.5065C59.7583 63.7095 59.7921 63.9142 59.8275 64.1204C60.0689 64.0576 60.3102 63.9947 60.5516 63.9367C60.5468 63.8352 60.5468 63.6419 60.542 63.5452C60.2716 63.5307 59.9965 63.5162 59.7261 63.5065Z" fill="#545454"/>
</svg>
