<svg width="216" height="88" viewBox="0 0 216 88" fill="none" xmlns="http://www.w3.org/2000/svg">
<path d="M208.267 73.8922C210.309 73.8922 212.058 72.3141 212.058 70.1547C212.058 68.0163 210.312 66.4355 208.267 66.4355C206.204 66.4355 204.458 68.0137 204.458 70.1547C204.458 72.3141 206.204 73.8922 208.267 73.8922ZM212.989 49.9099L205.387 50.3202C205.276 49.6153 204.162 45.3912 201.327 42.2717L203.424 39.51L201.303 36.9797H194.825L183.496 49.9441H178.246C178.246 49.9441 178.169 53.942 178.13 54.3576C177.217 55.6753 175.109 56.1251 174.4 56.2119C174.397 56.1892 174.395 56.1664 174.395 56.1435C174.395 55.3571 177.267 51.8194 177.267 51.8194V47.5427L173.419 44.9493C173.25 43.8339 173.092 42.7169 172.945 41.5984C171.371 39.918 169.196 38.9197 166.888 38.8183C161.053 38.6052 155.126 43.9419 154.708 44.3259C150.206 47.4427 144.506 56.5433 143.776 57.719C141.194 59.8837 138.327 60.8016 136.227 61.1856C134.693 61.1093 135.039 59.9862 135.047 59.9547C145.032 54.0761 152.851 45.5122 152.93 45.4254C158.53 39.8993 161.368 34.4942 161.368 29.3521C161.355 25.795 159.938 22.3852 157.422 19.857C155.813 17.8449 153.93 17.1979 153.793 17.1558L153.623 17.1006L153.449 17.1216C136.269 19.0338 124.652 53.2029 123.475 56.8037C117.431 61.3566 113.879 61.6775 112.027 61.2225C123.287 58.7448 124.44 51.7379 124.509 51.2539C126.308 43.0292 117.976 40.2728 117.976 40.2728C108.075 38.2764 100.167 49.8494 98.6961 52.164C98.0798 52.164 95.6146 52.0298 94.5275 52.0298C94.5487 51.7484 94.7762 46.8141 92.5781 44.7494C99.3098 37.6478 101.286 29.0233 101.368 28.6604C100.069 17.1663 92.3057 14.7413 91.983 14.6492C78.0383 16.1747 65.6647 51.7142 64.5988 54.8889C62.1971 57.5507 61.4406 56.6406 61.3533 56.588C61.3824 55.9594 64.3554 52.4586 64.3554 52.4586L64.1703 47.5401L60.3323 45.0414C60.7159 40.4332 57.6185 39.3233 57.6185 39.3233C44.3721 35.4411 33.7787 52.6322 32.681 54.4838C29.9169 56.3881 27.494 57.6138 25.3965 58.3766C22.1272 59.0473 19.7361 58.7632 18.2681 57.5296C16.3108 55.8805 16.7472 53.0425 16.7525 53.0135C17.7047 38.834 33.6544 25.2779 33.8131 25.1438C36.995 22.6845 38.5715 22.5688 39.3465 22.8739C40.4706 23.3158 37.3759 28.8261 37.3759 28.8261L39.5819 33.9971L46.5172 38.5316C46.7579 38.0818 52.7913 27.0559 49.7971 19.6229C48.6518 16.7849 46.4194 14.7991 43.158 13.7181C42.5682 13.484 27.5125 7.96581 8.41793 31.7035C8.32271 31.8193 0.205052 41.701 0.0966049 53.5659C-0.15732 55.0783 -0.374214 65.7096 7.72493 70.8464C7.80957 70.9043 17.2259 77.0011 32.4535 66.4487C32.5778 66.6538 32.8238 70.9279 36.384 72.3483C39.3465 73.5319 43.2321 72.9558 48.2497 69.9706C48.5275 70.5965 49.6543 72.7244 52.302 73.3714C55.7908 74.2236 60.3403 72.1536 65.8182 67.2351C66.4001 68.4266 69.9524 74.7996 78.9799 73.9185C79.0831 73.9054 89.1396 72.4745 94.8344 60.7411C95.0063 60.7832 95.7734 60.7595 95.9453 60.8016C95.9506 61.5486 95.9744 66.7012 99.2992 69.9758C101.521 72.1668 104.661 73.211 108.626 73.0847C108.689 73.0926 117.14 73.8291 124.723 67.8953C125.165 68.5871 127.353 71.6828 131.482 72.5587C135.423 73.3951 140.102 71.5513 144.998 67.9795C145.635 68.616 150.7 74.1289 154.499 72.3772L160.765 69.2604C161.293 70.1092 161.994 70.8385 162.824 71.4012C163.653 71.9639 164.591 72.3474 165.579 72.5271C169.536 73.2899 174.437 71.1699 180.142 66.2462C180.772 67.3061 184.628 73.3057 190.784 72.6665C190.863 72.6613 199.483 71.9985 202.85 62.698H208.728C208.857 62.6586 215.43 59.9521 215.993 54.3813L212.989 49.9099Z" fill="#545454"/>
<path d="M206.849 57.0246L199.184 57.1456C199.158 57.2403 196.558 66.6038 188.371 66.9563C188.101 66.9878 182.036 67.5665 180.621 59.7021L180.595 59.5654H178.936L178.889 59.6048C178.786 59.6916 168.618 68.1083 163.513 66.4118C162.177 65.9699 161.193 64.7416 160.783 62.9768C160.709 63.0241 153.11 67.5402 150.407 66.8405C150.354 66.83 146.101 65.8726 144.81 62.3692C144.717 62.4323 135.137 68.5607 129.117 66.567C127.149 65.9147 125.641 64.3603 124.832 62.1298C124.686 62.2166 110.049 70.778 101.815 67.5744C101.746 67.556 96.5959 66.0278 97.8999 56.8457L91.5015 56.7405C91.4328 56.8589 84.4974 68.5239 75.2027 68.1688C65.2759 68.9 64.9664 60.8621 64.9664 60.8621C57.7957 67.3324 53.1906 68.5818 51.1143 67.9452C48.7946 67.2325 47.8027 63.7132 47.7762 63.6106C42.5205 66.9405 37.6087 68.5949 35.2122 67.2772C32.591 65.8358 32.5963 60.4307 32.5963 60.4307C32.5963 60.4307 19.4319 70.1888 8.42053 66.7801C4.81798 65.6648 3.74144 63.1504 3.69912 63.0478C-2.9717 48.187 9.57378 32.895 9.70074 32.7424C27.9833 10.02 42.457 15.2068 42.5999 15.262C42.6766 15.2883 46.8901 16.6271 47.1784 23.2052C47.3715 27.5425 45.1603 31.8902 44.782 32.6714C42.9253 31.442 41.0738 30.2049 39.2274 28.9602C39.8649 27.866 41.436 24.9254 41.436 22.4136C41.436 21.1379 41.0287 19.9727 39.8834 19.2231C39.648 19.0442 38.3493 18.1579 35.8391 18.4524C32.345 18.8628 26.3672 21.6876 17.7364 32.8266C17.1836 33.4631 3.59067 49.4048 13.4964 59.1077C13.753 59.3602 20.1196 65.173 33.8977 55.6122C34.0008 55.4307 44.6418 37.3611 57.0418 40.875C59.8482 42.7004 58.2612 45.6568 58.2612 45.6568L62.5118 48.4238C57.4783 52.1929 56.0076 55.3149 55.6849 57.306C55.3252 59.5154 56.2351 60.7805 56.2721 60.8358C56.899 61.4381 57.6396 61.6958 58.4887 61.6275C61.8558 61.3539 66.1011 55.5964 66.1011 55.5964C66.2254 55.2176 78.6678 18.0264 91.848 16.3088C95.2628 16.9927 97.2281 25.3226 97.3392 25.8881C96.8842 33.6078 87.2033 42.6399 87.1161 42.7241C94.2762 44.6652 92.7897 53.6842 92.7897 53.6842H99.3706C99.3706 53.6842 108.017 39.9834 117.606 41.8798C117.91 41.9824 120.24 42.824 121.769 44.8914C122.226 47.4664 120.875 49.9335 120.859 49.9625C117.053 57.2981 105.658 57.0824 105.544 57.0772C104.946 65.344 113.437 63.3529 115.566 62.7821C118.201 62.1851 121.412 60.3886 124.84 57.7768C124.956 57.4086 136.851 20.888 153.443 18.7865C154.224 19.1021 157.966 20.9222 158.067 27.0375C158.067 27.048 158.072 27.1085 158.072 27.2163C158.072 28.8339 157.517 39.8203 130.984 56.7537C127.961 61.7248 133.143 62.89 133.143 62.89C133.412 62.9057 139.713 63.3345 145.021 58.8105C145.082 58.7105 151.322 48.6105 155.752 45.5963C155.85 45.5042 165.568 36.6851 171.287 42.469L171.906 45.9251L175.053 48.045C169.438 52.5111 167.986 55.7805 167.785 57.7558C167.605 59.5128 168.359 60.4097 168.39 60.4465C171.766 62.7032 178.868 55.9515 179.333 55.194C179.333 55.194 179.658 52.5795 179.748 51.5906H184.242L195.574 38.6262H198.335C196.124 41.3274 197.978 43.3475 197.999 43.3685C200.597 46.4222 200.216 52.2139 200.21 52.2744C200.21 52.2744 210.844 51.7484 211.256 51.7221C211.105 52.4138 210.259 55.2124 206.849 57.0246Z" fill="#898989"/>
<path d="M186.866 25.8486C186.866 25.8486 184.081 34.2942 182.409 35.9565L185.612 39.1391L191.601 38.9997L197.031 29.7255L193.828 24.4651L186.866 25.8486Z" fill="#545454"/>
<path d="M188.257 27.3715C188.257 27.3715 185.89 33.8786 185.054 34.7098L189.231 34.8492C189.231 34.8492 191.738 29.8649 192.294 26.9585C192.294 26.9559 189.231 27.3715 188.257 27.3715Z" fill="#898989"/>
<path d="M74.2266 49.247C74.2266 49.247 85.0846 23.7707 90.7952 25.988C90.7926 25.988 98.4526 27.9238 74.2266 49.247ZM131.973 52.1534C131.973 52.1534 143.667 24.7176 151.708 28.8391C151.708 28.8391 158.77 36.23 131.973 52.1534ZM184.724 56.5827C184.724 56.5827 189.665 57.3033 191.91 57.0666C191.91 57.0666 192.886 62.0325 187.771 61.6695C187.768 61.6695 183.369 62.0298 184.724 56.5827ZM187.813 52.2112C187.813 52.2112 192.519 52.7031 193.981 52.2191C193.981 52.2191 195.626 49.6994 193.799 45.3385L187.813 52.2112ZM82.1406 47.4953L72.5153 54.6416C72.5153 54.6416 70.6082 61.1513 74.5387 63.2818C78.9242 65.2177 84.5767 60.9409 86.4044 57.1876C86.4044 57.1876 88.5972 50.2833 82.1406 47.4953Z" fill="#545454"/>
<path d="M76.7791 57.7926C77.7524 57.1877 83.3573 52.4612 83.3573 52.4612C83.3573 52.4612 86.7694 55.1282 82.868 59.6101C82.868 59.6101 78.4825 63.2451 77.3874 61.0646C77.3901 61.0646 76.7791 59.2471 76.7791 57.7926Z" fill="#898989"/>
<path d="M52.778 45.0728C52.778 45.0728 57.8962 46.7693 52.6563 53.9156C52.6563 53.9156 46.5648 63.003 41.5709 60.2176C41.5709 60.2176 37.6721 57.1902 44.007 50.2833C44.007 50.2833 49.2442 44.5862 52.778 45.0728Z" fill="#545454"/>
<path d="M52.2914 49.3127C52.2914 49.3127 54.4841 49.5547 50.4637 54.4022C50.4637 54.4022 48.0276 58.6421 46.1998 57.3086C46.1998 57.3086 45.446 56.5695 48.3688 51.843C48.3688 51.843 50.4637 49.1917 52.2914 49.3127Z" fill="#898989"/>
<path d="M166.203 44.5863C166.203 44.5863 171.321 46.2854 166.081 53.4317C166.081 53.4317 159.99 62.5191 154.996 59.7311C154.996 59.7311 151.097 56.7037 157.435 49.7968C157.435 49.7968 162.672 44.1024 166.203 44.5863Z" fill="#545454"/>
<path d="M165.711 48.8367C165.711 48.8367 167.885 49.2102 163.574 53.8052C163.574 53.8052 160.638 58.508 158.895 57.0693C158.895 57.0693 158.001 56.0356 161.209 51.4958C161.209 51.4958 163.894 48.6052 165.711 48.8367Z" fill="#898989"/>
<path d="M106.75 54.1576C106.75 54.1576 105.531 52.8241 109.551 48.5842C109.551 48.5842 113.937 43.7367 115.767 45.1912C115.767 45.1912 118.933 46.8877 113.574 51.6116C113.574 51.6116 112.355 53.7946 106.75 54.1576Z" fill="#545454"/>
</svg>
