<?xml version="1.0" encoding="UTF-8"?>
<svg id="Layer_1" data-name="Layer 1" xmlns="http://www.w3.org/2000/svg" viewBox="0 0 231 88">
  <defs>
    <style>
      .cls-1 {
        fill: #545454;
      }
    </style>
  </defs>
  <path class="cls-1" d="m178,1.7c0,.7-.7,1.9-1.6,2.7-1,1-1.1,1.6-.3,1.6s.9.3,0,1.3c-.6.8-.8,1.7-.4,2,.3.4.1.7-.5.7-.7,0-1.2.5-1.2,1.1,0,.5.6.7,1.3.3.6-.4.3.3-.8,1.6l-2,2.3,2-.6c1.8-.6,1.8-.5-.2,1.2-2.7,2.3-2.9,3.3-.5,2.4,1.3-.5,1.1.1-.8,2.2l-2.5,2.7,2.5-.6,2.5-.7-2.7,2.3c-3.3,2.8-3.7,4.3-.7,2.8,2.8-1.5,3.7-.5,1,1.2-2.8,1.7-2.7,3.1.1,2.2,2.1-.6,2.2-.5.8,1.1-1.4,1.7-1.3,1.8.8,1.2,2.3-.5,2.4-.3,2,3.3-.2,2.4.1,4.1.8,4.4,1.9.7,2.5-.5,1.8-4.2-.6-3.2-.5-3.4,1.7-2.7,2.1.7,2.2.6,1.1-.8-1.6-1.9-.8-3.7,1.6-3.7,1.3,0,1.3-.2-.4-1.6-1.8-1.4-1.8-1.5.6-.9s2.4.6-.5-1.9c-2.9-2.4-2.9-2.5-.5-1.9l2.5.6-2.5-2.2-2.5-2.2,2.5.7,2.5.6-2.5-2.7c-1.9-2.1-2.1-2.7-.7-2.2,2.4.9,2.1-.1-.5-2.4-2.2-1.7-2.2-1.8-.4-1.9q2,0,0-1.5c-1.4-1.1-1.5-1.4-.4-1.5,1.2,0,1.3-.2.1-.9-.7-.5-1.1-1.3-.8-1.7.3-.5-.1-1.8-.9-2.9-.8-1-1.4-1.4-1.4-.8Z"/>
  <path class="cls-1" d="m107.1,9l-10.3,7.1-6.4-3.6-6.5-3.7-16.8,9c-18,9.7-21.8,11.2-35.6,14.2l-9,1.9,9-.4,9-.5-5,2.5c-5.8,2.9-4.7,2.7,9-1.4,13.2-3.9,16.1-4.2,15.7-1.6-.3,1.4.8.7,3.8-2.5,2.5-2.7,3.9-3.7,3.5-2.5-.5,1.5.2,1.2,2.7-1.3,3.7-3.5,5.4-4.1,4.4-1.6-1.1,2.9,1.6.9,5.1-3.9,3.8-5.2,3.3-5.7-2.8-2.6-2.2,1.1-4.6,1.8-5.2,1.6s2-2,5.8-4l6.9-3.7,4.9,3.2,4.9,3.1-6.9,4.4c-8,5.3-24.5,13.3-32.3,15.8-7.2,2.4-5,3,3.5,1,3.6-.8,7.6-1.5,8.7-1.5,2,0,2,.2-.7,3-3.6,3.7-3,3.7,4.2.1,3.2-1.6,8.6-3.7,12-4.7,4.7-1.3,7.6-2.9,11.7-6.6,4.9-4.3,7.6-5.8,7.6-4.2,0,.3-1.2,2.6-2.6,5-1.5,2.5-2.4,4.8-2,5.1.4.4,2.8-1.4,5.4-4,2.7-2.6,5.1-4.5,5.4-4.2.3.4,0,2.9-.7,5.6-.8,2.8-1,4.9-.5,4.7s3.4-3.9,6.5-8.2c4.9-6.8,5.5-8,4.1-8.8-1.3-.8-1.5-1.9-1-6l.7-5.1-5.9,3.3c-3.2,1.9-7.6,4.4-9.7,5.7s-4.4,2.2-5,2c-.9-.3,11.6-9.1,20-14,.6-.4,8.3,4.1,17.6,10.2,14.1,9.3,18.3,11.6,28.2,15.1,6.4,2.3,11.9,4,12.1,3.8s-4.8-2.5-11.1-5.1c-11.9-5-15-7.2-12-8.3,1.2-.5,1.3-.9.5-1.4-.9-.6-.9-1.3-.1-2.9,1.4-2.5,1.3-2.5-3.9-.5-2.3.9-4.4,1.4-4.7,1-.6-.6,7.4-4.5,9.5-4.6.7,0,4.4,1.6,8.2,3.5,3.9,1.9,7,3.3,7,3.1s-3.3-2.5-7.4-5l-7.3-4.6-6.9,2.8-6.9,2.8-10.6-7.3c-5.9-4-10.9-7.3-11.1-7.3-.3,0-5.1,3.2-10.7,7Z"/>
  <path class="cls-1" d="m191,14.5c-.1.5-.4,1.9-.6,3s-.5,2.8-.6,3.7c-.1,1-.7,1.8-1.3,1.8-.5,0-.3.5.5,1.1,1.1.8,1.2,1.2.3,1.6-.7.2-1.3.9-1.3,1.4,0,.6.5.7,1,.4,1.7-1,1.1.7-.7,2.2q-1.7,1.4,0,.9c2.5-.8,2.1.3-.5,1.4-2,.7-2,.9-.4.9,1.5.1,1.6.4.6,1.6-1.1,1.3-1,1.4.5.9,1.3-.5,1.6-.4,1.1.4-.4.7-.1,1.2.8,1.2,2.1,0,.9,3-1.3,3.1-1.2,0-1.2.2.4.9,3.4,1.5,4.2,1.1,3.8-1.4-.4-1.8,0-2.6,1.7-3.1,2.1-.7,2.1-.8.4-2.6-1.7-1.9-1.7-2,.2-1.3s1.9.7,0-1.5q-2-2.2,0-1.6,1.8.6.2-.8c-2-1.6-2.5-3.2-.6-2.1.7.5.8.3.2-.7-.4-.8-.9-2.3-1-3.4-.1-2.4-3.2-9.4-3.4-8Z"/>
  <path class="cls-1" d="m182,30.4c0,.2.7.7,1.6,1,.8.3,1.2.2.9-.4-.6-1-2.5-1.4-2.5-.6Z"/>
  <path class="cls-1" d="m183,39c.8.5,2.2,1,3,1,1.3,0,1.3-.1,0-1-.8-.5-2.2-1-3-1-1.3,0-1.3.1,0,1Z"/>
  <path class="cls-1" d="m82.2,55.7c-.5,1-3.5,7.8-6.7,15.1-3.2,7.4-6.4,13.6-7.2,13.9-2.9,1.1-1,2.3,3.7,2.3,5,0,6.7-1.3,3-2.3-1.8-.5-1.9-.6-.3-4.6l1.6-4.2,7.1.3,7,.3,1.5,3.8c1.3,3.5,1.3,3.9-.5,5.2-1.7,1.3-1.4,1.4,3.4,1.5,2.8,0,5.2-.5,5.2-1,0-.6-.4-1-.9-1-.4,0-1.6-2.1-2.6-4.7-3-8.2-11.8-26.3-12.6-26.3-.5,0-1.2.8-1.7,1.7Zm4.1,11l2.6,5.8-5,.3c-2.8.2-5.3.1-5.5-.1-.6-.6,3.8-11.7,4.6-11.7.4,0,1.9,2.6,3.3,5.7Z"/>
  <path class="cls-1" d="m143.4,55.9c-14.4,6.6-12.7,27,2.6,31.1,5,1.3,11.7.5,15.9-2.1,2.8-1.7,3.1-2.3,3.1-6.9,0-2.7.5-5,1-5,.6,0,1-.5,1-1,0-.6-2.7-1-6-1-5.8,0-8.4,1.5-3.7,2.2,1.8.2,2.3,1,2.5,4.1.5,5.6-1.8,7.7-8.3,7.7-6.1,0-9.9-2.4-12.1-7.6-1.9-4.6-1.7-8.8.6-13.5,4.3-8.3,13.6-10.3,19.2-4,1.5,1.7,3,3.1,3.3,3.1s.5-2,.5-4.5c0-4.1-1.3-6.1-2.2-3.4-.2.7-1.2.7-3.1,0-4.2-1.6-9.7-1.3-14.3.8Z"/>
  <path class="cls-1" d="m.8,57.5c-.6,2.8,1.2,3.4,3.2,1,.7-.9,2.9-1.5,5.1-1.5h3.9v13.5c0,11.1-.3,13.7-1.5,14.1-3.1,1.2-1.3,2.4,3.5,2.4,2.8,0,5-.5,5-1,0-.6-.7-1-1.5-1-1.3,0-1.5-2.2-1.5-14v-14h4c2.7,0,4.3.5,4.6,1.5,1,2.5,3.4,1.7,3.4-1v-2.5H1.2l-.4,2.5Z"/>
  <path class="cls-1" d="m34,56c0,.5.7,1,1.5,1,1.3,0,1.5,2.2,1.5,13.5,0,11.1-.3,13.7-1.5,14.1-3.1,1.2-1.3,2.4,3.5,2.4,2.8,0,5-.5,5-1,0-.6-.7-1-1.5-1-1.2,0-1.5-1.3-1.5-5.9v-5.9l3.6-.7c4-.7,4.7-.1,8.6,7.4,1.7,3.2,2,4.5,1.1,4.8-3,1.1-.9,2.3,3.7,2.3,2.8,0,5-.5,5-1,0-.6-.4-1-.9-1s-2.7-3.1-5-6.9l-4.1-6.9,3.5-3.5c4.1-4.1,4.4-6.9,1-10.2-2.3-2.3-3.1-2.5-13-2.5-6.3,0-10.5.4-10.5,1Zm18,2.3c5.2,2.6,2.4,9.9-4.4,11.2-1.7.4-3.9.9-4.8,1.1-1.6.5-1.8-.3-1.8-6.5v-7.1h4.3c2.3,0,5.3.6,6.7,1.3Z"/>
  <path class="cls-1" d="m105.3,56.4c1.5,1.1,1.7,3.1,1.7,14.6s-.2,13.5-1.7,14.6c-1.5,1.2.1,1.3,11.2,1.1l13-.2.3-2.8c.4-3.3-1.7-3.7-3.6-.7-1.1,1.8-2.1,2.1-8,1.8l-6.7-.3-.3-6.4-.3-6.3,7,.4c6.6.3,7.1.2,7.1-1.7s-.5-2-7-1.7l-7,.4v-12.2h6.5c4.9,0,6.7.4,7.1,1.5,1,2.5,3.4,1.7,3.4-1v-2.5h-12.2c-10.5.1-12,.3-10.5,1.4Z"/>
  <path class="cls-1" d="m171,56c0,.5.7,1,1.5,1,1.3,0,1.5,2.2,1.5,13.5,0,11.1-.3,13.7-1.5,14.1-4.1,1.6-.3,2.4,11,2.4,10.1,0,12.5-.3,12.5-1.4,0-.8.3-2.1.6-3,.9-2.3-1.9-2-3.4.4-1,1.7-2.3,2-8.2,2h-7v-13.2l7,.4c6.6.3,7,.2,7-1.8s-.3-2.1-7-1.6l-7,.5v-12.3h6.5c4.9,0,6.7.4,7.1,1.5.4.8,1.3,1.5,2.1,1.5,1,0,1.3-.6.9-1.6-.3-.9-.6-2-.6-2.5s-5.2-.9-11.5-.9c-7,0-11.5.4-11.5,1Z"/>
  <path class="cls-1" d="m202,56c0,.5.7,1,1.5,1,1.3,0,1.5,2.2,1.5,13.5,0,11.1-.3,13.7-1.5,14.1-3.1,1.2-1.3,2.4,3.5,2.4,2.8,0,5-.5,5-1,0-.6-.7-1-1.5-1-1.2,0-1.5-1.3-1.5-5.9v-5.9l3.6-.7c4-.7,4.7-.1,8.6,7.4,1.7,3.2,2,4.5,1.1,4.8-3,1.1-.9,2.3,3.7,2.3,2.8,0,5-.5,5-1,0-.6-.4-1-.8-1-.5,0-2.7-3.1-5-6.9l-4.1-7,3.4-3.4c4.1-4.1,4.4-6.9,1-10.2-2.3-2.3-3.1-2.5-13-2.5-6.3,0-10.5.4-10.5,1Zm17.5,2c3,1.1,3.9,3.1,3.1,6.4-.6,2.5-4.8,4.9-10.3,5.9l-3.3.6v-13.9h3.9c2.2,0,5.1.4,6.6,1Z"/>
</svg>