<svg width="88" height="88" viewBox="0 0 88 88" fill="none" xmlns="http://www.w3.org/2000/svg">
<path d="M3.44553 73.6603H2.47114L1.01107 68.3575C0.970723 68.2024 0.954737 68.1457 0.807055 68.0814C0.682972 68.0239 0.609131 67.9846 0.609131 67.8363C0.609131 67.567 0.945602 67.567 1.13515 67.567H3.03598C3.21564 67.567 3.50263 67.5428 3.50263 67.8023C3.50263 68.0814 3.13571 68.008 3.13571 68.3083C3.13571 68.3825 3.15169 68.4316 3.17605 68.5126L3.98754 71.5021L3.44553 73.6603ZM5.3418 67.567L6.41363 71.633L5.89827 73.6603H4.92235L3.85661 69.735L4.4146 67.567H5.3418ZM6.34969 70.0527L6.66104 68.7811C6.68616 68.6669 6.71813 68.5693 6.71813 68.446C6.71813 68.0239 6.20125 68.0875 6.20125 67.7864C6.20125 67.6003 6.37405 67.567 6.52097 67.567H7.57986C7.73516 67.567 7.91481 67.5844 7.91481 67.7962C7.91481 67.918 7.85011 67.9498 7.74277 67.9997C7.33322 68.1775 7.22741 68.4634 7.11855 68.8696L6.59557 70.9408L6.57806 70.9325L6.34969 70.0527Z" fill="#545454"/>
<path d="M10.5236 67.9177C10.1369 68.0562 10.1041 68.3005 10.1041 68.5025V72.725C10.1041 72.9277 10.1369 73.1721 10.5236 73.3113V73.7841C8.78414 73.6282 7.97266 72.2348 7.97266 70.6137C7.97266 68.9934 8.78414 67.6 10.5236 67.4449V67.9177ZM10.8905 73.3113C11.2765 73.1721 11.3092 72.9277 11.3092 72.725V68.5025C11.3092 68.3005 11.2765 68.0562 10.8905 67.9177V67.4449C12.6292 67.6 13.4422 68.9934 13.4422 70.6137C13.4422 72.2348 12.6292 73.6282 10.8905 73.7841V73.3113Z" fill="#545454"/>
<path d="M16.9911 73.7841C16.3425 73.7841 15.8439 73.7765 15.2783 73.4679C14.5406 73.0594 14.4417 72.75 14.4417 72.3415V68.479C14.4417 68.178 14.45 68.1288 14.1631 68.041C14.055 68.0078 13.9834 67.9351 13.9834 67.8194C13.9834 67.5841 14.2521 67.5667 14.2864 67.5667H16.6059C16.6386 67.5667 16.9096 67.5841 16.9096 67.8194C16.9096 67.9351 16.835 68.0078 16.7285 68.041C16.4422 68.1288 16.4498 68.178 16.4498 68.479V72.4005C16.4498 72.4807 16.3768 73.1229 16.9911 73.3037V73.7841ZM18.4588 68.855C18.3278 67.8368 17.8026 68.1538 17.8026 67.8028C17.8026 67.5509 18.139 67.5667 18.2296 67.5667H19.1637C19.2558 67.5667 19.5915 67.5509 19.5915 67.8028C19.5915 68.1538 19.067 67.8368 18.9345 68.855V71.927C18.8691 73.2712 17.8939 73.7599 17.3595 73.7682V73.2871C18.1154 73.0594 18.4093 72.635 18.4588 71.9111V68.855Z" fill="#545454"/>
<path d="M20.7945 69.099H20.812L21.2718 69.9137V72.3744C21.4028 73.3934 21.9273 73.0749 21.9273 73.4251C21.9273 73.6778 21.5923 73.6604 21.501 73.6604H20.5669C20.4748 73.6604 20.1406 73.6778 20.1406 73.4251C20.1406 73.0749 20.6651 73.3934 20.7945 72.3744V69.099ZM25.0682 71.6898V73.6604H23.8456L20.8455 68.5203C20.7131 68.2926 20.6735 68.1708 20.4017 68.0808C20.2639 68.0308 20.1566 67.9998 20.1566 67.8198C20.1566 67.5755 20.4017 67.5755 20.5753 67.5671H22.6817L25.0682 71.6898ZM24.5916 69.0415C24.5916 67.8773 23.9187 68.1867 23.9187 67.8115C23.9187 67.5845 24.1912 67.5671 24.2727 67.5671H25.3879C25.4694 67.5671 25.7396 67.5845 25.7396 67.8115C25.7396 68.1867 25.0682 67.8773 25.0682 69.0415V71.0226H25.0514L24.5916 70.1988V69.0415Z" fill="#545454"/>
<path d="M28.7087 73.6603H26.6259C26.444 73.6603 26.2407 73.6451 26.2407 73.4091C26.2407 73.2949 26.3138 73.2223 26.4204 73.189C26.7074 73.1005 26.699 73.0513 26.699 72.7495V68.4793C26.699 68.3575 26.715 68.1374 26.5597 68.0875C26.3968 68.0315 26.2407 68.008 26.2407 67.8023C26.2407 67.5905 26.444 67.567 26.6084 67.567H28.7087V73.6603ZM29.0771 67.567C30.4717 67.5504 31.6364 68.5126 31.7331 70.614C31.8237 72.5286 30.4382 73.6603 29.0771 73.6603V73.189C29.5773 73.1232 29.6024 72.6595 29.6024 72.3493V68.878C29.6024 68.5693 29.5773 68.1041 29.0771 68.0413V67.567Z" fill="#545454"/>
<path d="M32.5945 67.5669H34.7572V73.6602H32.5945C32.5625 73.6602 32.2922 73.6458 32.2922 73.4098C32.2922 73.2948 32.3646 73.2229 32.4719 73.1889C32.7589 73.1004 32.7497 73.0512 32.7497 72.7501V68.4792C32.7497 68.1781 32.7589 68.1289 32.4719 68.0412C32.3646 68.0079 32.2922 67.9345 32.2922 67.8196C32.2922 67.5843 32.5625 67.5669 32.5945 67.5669ZM35.1279 67.5669H36.9572V69.2213C36.9572 69.2621 36.9473 69.4172 36.7029 69.4172C36.5621 69.4172 36.5217 69.337 36.4806 69.2122C36.2675 68.5533 35.8488 68.1532 35.1279 68.0412V67.5669ZM35.1279 70.2886C35.472 70.1986 35.628 69.8824 35.7011 69.5708C35.743 69.4331 35.7917 69.303 35.9645 69.303C36.2187 69.303 36.1769 69.5957 36.1769 69.6608V71.421C36.1769 71.4869 36.2187 71.7788 35.9645 71.7788C35.7917 71.7788 35.743 71.6487 35.7011 71.5111C35.628 71.2017 35.472 70.8847 35.1279 70.7947V70.2886ZM35.1279 73.1889C35.7917 73.1087 36.3017 72.6594 36.5217 72.0081C36.5796 71.8855 36.6291 71.7546 36.776 71.7546C37.0371 71.7546 37.0142 71.9997 37.0142 72.0323V73.6602H35.1279V73.1889Z" fill="#545454"/>
<path d="M40.0634 73.6603H37.9806C37.8002 73.6603 37.5955 73.6451 37.5955 73.4091C37.5955 73.2949 37.6693 73.2223 37.7751 73.189C38.0629 73.1005 38.0537 73.0513 38.0537 72.7495V68.4793C38.0537 68.3575 38.0712 68.1374 37.9152 68.0875C37.7508 68.0315 37.5955 68.008 37.5955 67.8023C37.5955 67.5905 37.8002 67.567 37.9639 67.567H40.0634V73.6603ZM40.4319 67.567C41.8257 67.5504 42.9904 68.5126 43.0894 70.614C43.1784 72.5286 41.7945 73.6603 40.4319 73.6603V73.189C40.9328 73.1232 40.9571 72.6595 40.9571 72.3493V68.878C40.9571 68.5693 40.9328 68.1041 40.4319 68.0413V67.567Z" fill="#545454"/>
<path d="M49.0905 73.6603H48.1146L46.6561 68.3575C46.615 68.2024 46.5997 68.1457 46.4505 68.0814C46.3287 68.0239 46.2549 67.9846 46.2549 67.8363C46.2549 67.567 46.5891 67.567 46.7786 67.567H48.681C48.8606 67.567 49.1476 67.5428 49.1476 67.8023C49.1476 68.0814 48.7807 68.008 48.7807 68.3083C48.7807 68.3825 48.7959 68.4316 48.821 68.5126L49.631 71.5021L49.0905 73.6603ZM50.9837 67.567L52.0586 71.633L51.5433 73.6603H50.5658L49.4986 69.735L50.0581 67.567H50.9837ZM51.9932 70.0527L52.306 68.7811C52.3312 68.6669 52.3624 68.5693 52.3624 68.446C52.3624 68.0239 51.8447 68.0875 51.8447 67.7864C51.8447 67.6003 52.019 67.567 52.1644 67.567H53.2233C53.3794 67.567 53.559 67.5844 53.559 67.7962C53.559 67.918 53.4936 67.9498 53.3878 67.9997C52.9775 68.1775 52.8709 68.4634 52.7635 68.8696L52.239 70.9408L52.2231 70.9325L51.9932 70.0527Z" fill="#545454"/>
<path d="M55.1331 69.6279L54.3635 72.4155C54.2326 72.9124 54.3475 73.0509 54.6239 73.1727C54.7563 73.2302 54.872 73.2786 54.872 73.4404C54.872 73.6704 54.6094 73.6606 54.4457 73.6606H53.5018C53.3389 73.6606 53.042 73.6538 53.042 73.4178C53.042 73.2226 53.1821 73.2302 53.3625 73.1401C53.5353 73.0509 53.7568 72.864 53.9121 72.2846L54.8956 68.7088H54.9207L55.1331 69.6279ZM56.0109 72.0803H54.8142L54.9284 71.6083H55.9302L55.1012 68.0076L55.2077 67.5666H57.0195L58.2504 72.7158C58.2969 72.9457 58.3068 73.1008 58.5367 73.1969C58.6516 73.2453 58.7407 73.3035 58.7407 73.4503C58.7407 73.6704 58.4468 73.6606 58.29 73.6606H56.2476C56.0855 73.6606 55.8472 73.6454 55.8472 73.4336C55.8472 73.3035 55.8959 73.2619 56.0025 73.2052C56.2164 73.0826 56.2476 73.0259 56.176 72.709L56.0109 72.0803Z" fill="#545454"/>
<path d="M59.6751 68.4793C59.6751 68.1782 59.6835 68.129 59.3965 68.0413C59.2907 68.008 59.2153 67.9346 59.2153 67.8196C59.2153 67.5844 59.4863 67.567 59.5198 67.567H61.6848V72.7502C61.6848 73.0513 61.6757 73.1005 61.9627 73.189C62.07 73.223 62.1438 73.2949 62.1438 73.4099C62.1438 73.6459 61.8736 73.6602 61.8424 73.6602H59.5198C59.4863 73.6602 59.2153 73.6459 59.2153 73.4099C59.2153 73.2949 59.2907 73.223 59.3965 73.189C59.6835 73.1005 59.6751 73.0513 59.6751 72.7502V68.4793ZM62.0533 67.567H62.0959C62.6272 67.567 63.1852 67.5503 63.677 67.7864C64.2259 68.0557 64.506 68.5027 64.5136 69.123C64.5296 70.061 63.9077 70.4695 63.0703 70.6639V70.6798C63.7996 70.7865 64.4976 70.999 64.5136 71.8614V72.5793C64.5136 72.6519 64.4877 72.8153 64.5943 72.8153C64.7283 72.8153 64.7511 72.5793 64.9483 72.5793C65.0549 72.5793 65.1873 72.7003 65.1873 72.8153C65.1873 73.0513 64.9155 73.3516 64.7351 73.4916C64.4565 73.7208 64.1604 73.7843 63.8095 73.7843C63.4555 73.7843 63.1358 73.6943 62.883 73.4401C62.5945 73.1489 62.5526 72.7896 62.5526 72.4068V71.8531C62.5526 71.4786 62.5465 71.0225 62.0533 70.9733V70.4937C62.4963 70.4514 62.5526 70.1828 62.5526 69.7842V68.797C62.5526 68.3893 62.4636 68.1948 62.0533 68.0481V67.567Z" fill="#545454"/>
<path d="M65.9564 68.4793C65.9564 68.1782 65.9655 68.129 65.6785 68.0413C65.5712 68.008 65.4966 67.9346 65.4966 67.8196C65.4966 67.5844 65.7683 67.567 65.8003 67.567H67.9661V72.7502C67.9661 73.0513 67.9569 73.1005 68.2447 73.189C68.3513 73.223 68.4259 73.2949 68.4259 73.4099C68.4259 73.6459 68.1541 73.6602 68.1221 73.6602H65.8003C65.7683 73.6602 65.4966 73.6459 65.4966 73.4099C65.4966 73.2949 65.5712 73.223 65.6785 73.189C65.9655 73.1005 65.9564 73.0513 65.9564 72.7502V68.4793ZM68.3337 67.567H68.3749C68.9092 67.567 69.4665 67.5503 69.9582 67.7864C70.5079 68.0557 70.7857 68.5027 70.7941 69.123C70.8093 70.061 70.1881 70.4695 69.3508 70.6639V70.6798C70.0808 70.7865 70.7781 70.999 70.7941 71.8614V72.5793C70.7941 72.6519 70.7697 72.8153 70.8763 72.8153C71.008 72.8153 71.0324 72.5793 71.2288 72.5793C71.3346 72.5793 71.467 72.7003 71.467 72.8153C71.467 73.0513 71.196 73.3516 71.0156 73.4916C70.7362 73.7208 70.4424 73.7843 70.0899 73.7843C69.7375 73.7843 69.4155 73.6943 69.162 73.4401C68.8758 73.1489 68.8346 72.7896 68.8346 72.4068V71.8531C68.8346 71.4786 68.8263 71.0225 68.3337 70.9733V70.4937C68.7776 70.4514 68.8346 70.1828 68.8346 69.7842V68.797C68.8346 68.3893 68.7441 68.1948 68.3337 68.0481V67.567Z" fill="#545454"/>
<path d="M74.3522 72.7497C74.3522 73.0508 74.3446 73.1007 74.6316 73.1892C74.7374 73.2225 74.812 73.2952 74.812 73.4094C74.812 73.6454 74.5418 73.6605 74.5068 73.6605H72.1873C72.156 73.6605 71.8843 73.6454 71.8843 73.4094C71.8843 73.2952 71.9581 73.2225 72.0655 73.1892C72.3524 73.1007 72.3441 73.0508 72.3441 72.7497V68.4788C72.3441 68.1777 72.3524 68.1293 72.0655 68.0408C71.9581 68.0075 71.8843 67.9349 71.8843 67.8192C71.8843 67.5839 72.156 67.5665 72.1873 67.5665H74.5068C74.5418 67.5665 74.812 67.5839 74.812 67.8192C74.812 67.9349 74.7374 68.0075 74.6316 68.0408C74.3446 68.1293 74.3522 68.1777 74.3522 68.4788V72.7497Z" fill="#545454"/>
<path d="M77.911 67.9177C77.5266 68.0562 77.4923 68.3005 77.4923 68.5025V72.725C77.4923 72.9277 77.5266 73.1721 77.911 73.3113V73.7841C76.1731 73.6282 75.3616 72.2348 75.3616 70.6137C75.3616 68.9934 76.1731 67.6 77.911 67.4449V67.9177ZM78.2802 73.3113C78.6646 73.1721 78.6989 72.9277 78.6989 72.725V68.5025C78.6989 68.3005 78.6646 68.0562 78.2802 67.9177V67.4449C80.0189 67.6 80.8304 68.9934 80.8304 70.6137C80.8304 72.2348 80.0189 73.6282 78.2802 73.7841V73.3113Z" fill="#545454"/>
<path d="M81.8786 68.4793C81.8786 68.1782 81.8885 68.129 81.6008 68.0413C81.495 68.008 81.4219 67.9346 81.4219 67.8196C81.4219 67.5844 81.6914 67.567 81.7226 67.567H83.8891V72.7502C83.8891 73.0513 83.8815 73.1005 84.1677 73.189C84.2727 73.223 84.3466 73.2949 84.3466 73.4099C84.3466 73.6459 84.0771 73.6602 84.0451 73.6602H81.7226C81.6914 73.6602 81.4219 73.6459 81.4219 73.4099C81.4219 73.2949 81.495 73.223 81.6008 73.189C81.8885 73.1005 81.8786 73.0513 81.8786 72.7502V68.4793ZM84.256 67.567H84.2994C84.833 67.567 85.388 67.5503 85.8813 67.7864C86.4301 68.0557 86.7095 68.5027 86.7163 69.123C86.7331 70.061 86.1112 70.4695 85.273 70.6639V70.6798C86.0046 70.7865 86.6996 70.999 86.7163 71.8614V72.5793C86.7163 72.6519 86.6912 72.8153 86.7986 72.8153C86.931 72.8153 86.9561 72.5793 87.1525 72.5793C87.2576 72.5793 87.39 72.7003 87.39 72.8153C87.39 73.0513 87.1198 73.3516 86.9379 73.4916C86.66 73.7208 86.3639 73.7843 86.0122 73.7843C85.6605 73.7843 85.34 73.6943 85.0858 73.4401C84.7988 73.1489 84.7561 72.7896 84.7561 72.4068V71.8531C84.7561 71.4786 84.7485 71.0225 84.256 70.9733V70.4937C84.7006 70.4514 84.7561 70.1828 84.7561 69.7842V68.797C84.7561 68.3893 84.6678 68.1948 84.256 68.0481V67.567Z" fill="#545454"/>
<path d="M36.5397 9.01384C35.7678 9.00552 35.9581 9.28087 35.7236 9.42384C35.4069 9.61825 35.053 9.73626 33.6896 9.73626C32.9207 9.73626 32.8111 10.1947 32.2059 10.3308C31.4644 10.5033 31.3396 11.2666 30.4969 11.3891C30.4634 11.3936 30.2426 11.3422 30.1718 11.3468C28.239 11.489 28.676 12.5866 27.8965 13.6872C27.7914 13.8347 27.7526 13.5745 26.9974 13.2697C25.9081 12.8287 25.3912 12.7749 23.8999 13.0609C23.6472 13.3362 22.4376 13.4709 21.6824 14.7387C20.9501 15.9664 19.9871 16.9627 20.536 19.1473C21.0886 21.3501 22.9233 22.0854 22.9233 22.0854L23.5376 22.9992C23.5376 22.9992 24.6079 22.618 24.8378 21.9349C25.0662 21.2518 25.2199 22.0854 24.8378 22.5438C24.4549 22.9992 23.4683 24.1331 23.297 24.7655C22.7619 26.7422 22.3584 28.4586 22.3881 28.653C22.5518 29.6795 21.9824 30.7166 21.6345 32.8173C21.349 34.5488 23.2788 32.8407 22.2838 34.7417C21.9793 37.1533 22.4536 37.5277 22.8197 38.0459C22.7314 37.9211 23.157 38.6889 23.6982 38.7592C23.8139 38.1609 23.4683 37.6283 23.4683 37.6283C23.4683 37.6283 23.3838 36.6313 23.4417 36.4218C23.5269 36.1086 23.6327 35.3627 23.7561 35.2258C24.0819 34.8642 23.8428 36.0799 24.1291 36.2228C24.2973 36.306 24.4762 35.9407 24.4838 35.8234C24.5127 35.3673 24.6871 35.396 24.5782 34.8544C24.5516 34.7122 24.3156 34.4686 24.33 34.2833C24.1291 33.5147 24.5812 33.5094 24.9931 33.461C25.2222 33.4315 25.3859 32.548 25.3927 31.4034C25.3988 30.7257 26.7112 26.9313 27.9726 25.7913C29.5339 24.3797 29.6907 23.9554 31.3084 21.8721C31.7316 21.3282 32.3703 21.5967 31.7925 22.5226C31.2764 23.3479 29.3421 24.6316 28.2786 25.9638C27.9787 26.339 26.8886 28.8617 29.0056 30.0675C29.5689 30.3868 29.2127 31.3543 28.3502 33.778C27.8105 35.2924 27.5174 34.4111 27.3042 34.8128C27.0896 35.2167 26.4889 37.4294 26.0801 38.679C25.6904 39.8652 24.4587 43.8426 24.4587 43.8426L24.4876 44.7995L22.4459 50.8739C22.4459 50.8739 22.6264 51.5971 23.007 50.9117C23.4721 50.0675 25.3707 44.6611 25.3707 44.6611L25.9835 44.5514L27.8196 39.7207L28.2992 39.0263L29.0597 39.0058C29.0597 39.0058 29.1921 39.5278 29.5712 39.1382C29.7478 38.9567 29.4334 38.8598 29.6352 38.5565C29.7806 38.3394 29.9861 38.5414 30.1909 38.3106C30.5738 37.881 30.9803 37.1548 30.9803 37.1548L31.0655 34.2901L32.1891 35.7674C32.1891 35.7674 32.601 35.5753 33.1217 35.3166C33.755 35.0012 33.4985 36.0973 33.0638 36.3726C32.8035 37.7032 32.9892 37.6064 33.2891 38.0761C33.4201 38.7653 33.1354 38.76 33.0592 39.0648C32.9824 39.3674 33.178 39.9514 32.7776 40.0142C31.8732 40.1556 31.9935 41.046 31.9219 41.4915C31.8428 41.9704 33.0029 42.1035 32.3612 42.5181C31.8443 42.8509 30.8699 43.183 30.793 43.7155C30.7161 44.2458 30.7245 46.9403 30.7245 46.9403C30.7245 46.9403 31.4104 47.4827 31.3624 47.6726C31.3152 47.8609 30.4969 48.2323 30.4969 48.2323L30.1155 50.0577C30.1155 50.0577 29.1967 51.6538 28.66 52.1848C28.1256 52.7159 27.5516 53.7227 27.5516 53.7227C27.5516 53.7227 26.903 54.1395 27.0553 54.2916C27.1626 54.399 27.2837 54.5972 27.2837 54.5972L25.4483 56.2886C25.4483 56.2886 23.7728 58.415 24.7358 59.8046C25.5328 60.9544 26.3846 61.1677 26.8429 60.9408C27.3004 60.7124 29.8072 59.4914 29.98 58.1744C30.1208 57.1192 30.9179 57.4482 30.9179 57.4482L33.175 55.1486L33.4041 54.3127C33.4041 54.3127 35.3118 53.1206 36.309 51.9564C37.2606 50.8504 39.2573 48.1272 39.335 46.5326C39.4103 44.9357 40.6649 41.9106 40.6649 41.9106C40.6649 41.9106 42.3335 44.826 42.4279 45.7232C42.5109 46.5031 41.8174 52.6425 42.1995 53.2492C42.5817 53.8566 43.2554 54.722 43.126 55.8098C42.9851 56.9898 42.6487 60.058 42.5063 61.3062C42.4546 61.7449 41.8889 62.7578 42.4233 63.2147C42.9593 63.6686 44.9339 63.6936 45.3937 63.5438C45.852 63.3902 49.7191 63.8766 50.7856 63.6406C51.9953 63.3736 51.8255 62.658 51.5301 61.8372C51.317 61.2472 49.0066 61.3062 48.7759 60.9249C48.5476 60.5444 47.0411 59.8734 47.2413 58.2108C47.3935 56.9611 47.2474 55.7182 47.6295 55.1486C48.0101 54.579 48.9944 54.0571 49.4557 52.9292C49.9787 51.6432 50.9189 50.1469 50.9189 48.8398C50.9189 48.1968 50.2215 46.7648 49.8196 45.3911C49.4824 44.2382 49.4329 44.146 49.2685 43.0113C49.1018 41.8577 48.5476 39.2335 48.3184 37.6677C48.1296 36.3893 47.3714 35.1925 47.3714 35.1925C47.3714 35.1925 50.2284 36.4483 51.1815 37.3265C52.3279 37.3961 53.7613 38.6942 53.7613 38.6942C53.7613 38.6942 56.7081 43.6588 56.7302 44.205C56.7553 44.7489 57.4945 44.6611 57.4945 44.6611C57.4945 44.6611 58.1834 45.1929 57.7252 45.9539C57.2661 46.7119 57.1466 48.3988 56.5376 49.0826C55.9233 49.7657 54.8469 49.948 54.8469 49.948C54.8469 49.948 54.2592 51.591 54.6429 51.8179C55.0258 52.0479 57.4633 51.8217 58.1081 51.4231C58.7376 51.0343 60.3789 50.3512 60.6841 49.8186C60.9917 49.2868 61.6075 48.4033 61.9128 48.5553C62.218 48.7074 64.6236 47.1642 64.3944 46.404C64.1645 45.6422 63.0676 44.3706 62.9275 44.1286C62.4274 43.2738 64.7857 41.2714 65.0499 39.1322C65.1039 38.679 63.5091 38.6306 63.5091 38.6306C63.5091 38.6306 61.8884 38.4181 61.0571 38.2085C60.2883 38.0134 60.0447 37.3976 59.4935 37.098C58.9683 36.8136 58.2367 34.0896 57.4009 33.0215C56.5528 31.9413 55.9172 31.1092 55.4635 29.8164C55.1011 28.7801 54.8164 27.5917 54.9093 26.3518C54.9892 25.2746 56.224 25.5545 56.0626 24.5136C55.889 23.4198 55.9301 22.4341 55.312 22.0854C54.3574 21.5521 55.1651 21.4893 55.6142 20.928C56.1045 20.3115 56.7218 19.1761 56.7972 18.4143C56.8764 17.6548 56.1951 17.2986 56.1197 16.7675C56.0428 16.2342 56.6396 16.2478 56.5643 15.8688C56.4881 15.4891 55.4285 14.272 54.432 13.9679C53.4355 14.2818 52.6606 12.8703 51.9442 12.7522C51.2294 12.6335 50.8991 12.865 50.9737 12.4852C51.0117 12.3006 50.3236 11.6221 50.1439 11.0669C50.2687 10.3021 50.877 10.0313 51.2112 9.3603C51.7273 8.32017 51.3353 7.95934 50.8892 7.42755C50.3715 6.80725 48.6024 5.4827 47.9272 5.61281C47.0707 5.77847 46.3537 6.0803 44.6782 6.45853C44.2785 6.5493 43.8042 7.11438 42.9631 7.03873C42.1211 6.96157 41.5098 6.58258 40.8993 6.88592C40.288 7.18926 40.1335 7.87462 39.7529 8.25511C39.3692 8.6341 38.6377 9.03578 36.5397 9.01384ZM30.5624 34.4331C30.7245 35.2137 30.6606 36.679 30.6941 36.9392C30.7245 37.2002 29.3809 38.3084 29.1548 38.5051C28.9226 38.6995 28.3981 38.7653 28.3981 38.4385C28.3981 38.1132 29.0559 36.6464 29.2857 36.2894C29.5126 35.9308 29.4822 35.1494 29.5126 34.3672C29.5453 33.5851 29.8742 33.6501 30.3013 33.4882C30.7245 33.3241 30.3995 33.6501 30.5624 34.4331ZM50.2627 12.5109L49.4755 12.3801C49.4755 12.3801 49.6415 11.9572 49.7717 11.8263C49.9041 11.6962 50.2627 12.5109 50.2627 12.5109ZM45.8923 12.9867C45.8923 12.9867 45.7195 14.2115 45.7774 13.7697C45.836 13.3415 46.7373 12.7462 46.4252 13.834C46.1656 14.7379 45.6343 15.3492 45.6343 15.3492C45.6404 16.2425 45.1516 17.0126 45.1516 17.0126C45.0245 17.0557 44.8997 16.5746 44.8083 16.3424C44.7946 16.3061 45.1143 16.2683 45.0961 16.2425C45.077 16.2153 44.7946 16.1434 44.7946 16.1434C44.7946 16.1434 44.7155 15.775 44.7512 15.5867C44.7893 15.3855 44.8685 15.3265 45.0839 15.3106C45.3001 15.297 44.9743 15.2236 44.9316 15.039C44.8898 14.8544 45.0108 14.5783 44.8669 14.3083C44.7246 14.0367 44.6431 13.8605 44.6431 13.8605L44.7322 13.0851L44.9522 13.1948C44.9522 13.1948 44.8715 13.3498 44.9096 13.4467C44.9492 13.5443 45.1037 13.5828 45.1372 13.6176C45.2011 13.6872 45.2209 13.6683 45.3146 13.6872C45.3519 13.6948 45.4607 13.6388 45.4737 13.5117C45.4797 13.4421 45.5132 13.306 45.5186 13.2318C45.5231 13.0722 45.4067 12.9467 45.4067 12.9467L45.7249 12.8877L45.8923 12.9867ZM41.4086 7.8557C41.4086 7.8557 41.7831 7.78384 41.9559 7.71273C42.1272 7.64238 43.3049 7.6038 43.9192 7.74148C44.8768 7.9548 45.5475 8.47449 46.1869 9.032C46.7731 9.54563 47.0989 10.405 47.3045 10.6849C47.9363 11.5404 47.5914 11.579 47.4194 11.7499C47.255 11.9126 46.869 12.0397 46.7259 12.1539C46.5843 12.2689 45.8748 12.3967 45.8748 12.3967C45.9228 12.1917 45.8292 12.1085 45.7599 11.7318C45.498 10.3142 45.4029 10.4556 44.9522 9.54563C44.7139 9.06225 44.0478 8.51382 43.7479 8.34892C43.5066 8.21502 42.6144 7.99792 42.3426 7.98279C42.0709 7.96842 41.4086 7.8557 41.4086 7.8557ZM37.8003 26.8556C38.1421 26.457 38.2974 25.82 38.6422 25.525C39.1774 25.0696 39.0434 25.9244 39.0434 25.9244C39.0434 25.9244 38.8912 26.4562 38.9688 26.836C39.0381 27.1862 39.9029 28.1772 40.8605 26.2732C41.0135 25.9691 41.4444 26.0697 41.5776 26.4282C41.8813 27.2467 41.6819 28.0312 41.3553 28.6318C41.1338 29.038 40.5347 29.504 40.5347 29.504C40.9343 29.3035 41.1247 28.3753 41.2503 28.0191C41.7961 26.4608 40.977 25.786 40.6702 26.3223C40.5187 26.5856 39.2482 27.482 38.9437 27.5009C38.6377 27.5206 38.8394 26.2618 38.6864 26.2043C38.5318 26.1468 37.8003 26.8556 37.8003 26.8556ZM38.4131 14.6177C39.3852 15.0201 40.4898 15.3703 40.7661 16.4392C40.942 17.1223 40.8986 17.9067 40.8993 18.6087C40.8993 19.1814 40.9366 22.5045 40.7653 23.3404C40.6885 22.124 40.6268 17.6851 40.2683 16.614C39.8861 15.4702 39.0061 15.2834 37.9152 14.5435L38.4131 14.6177Z" fill="#545454"/>
<path d="M6.99683 65.0822H80.5896L76.4606 63.3415H73.5823L71.4546 62.719L71.0793 62.5949L70.0775 63.2175C70.0775 63.2175 70.8273 62.719 68.7004 62.719C66.572 62.719 64.4443 62.9679 64.4443 62.9679L63.6937 62.719H62.6927H61.8157L56.3096 63.3415C56.3096 63.3415 57.3107 63.0927 56.5593 62.8446C55.8102 62.5949 53.5562 62.5949 53.5562 62.5949H52.8056C52.8056 62.5949 51.6797 62.9679 51.3021 62.9679H44.5445L42.4481 63.2515L41.4151 63.7145H40.7901L34.6575 63.4656C34.6575 63.4656 35.0305 63.8393 33.4037 63.8393C31.7792 63.8393 30.5254 63.4656 30.5254 63.4656L22.8917 64.3355L24.6456 63.8393H22.8917L20.2638 64.0874C20.2638 64.0874 20.3872 64.2122 19.887 64.2122C19.3861 64.2122 13.5047 64.5859 13.5047 64.5859L9.8751 64.2122L6.99683 65.0822Z" fill="#545454"/>
<path d="M27.3691 81.4165C27.3691 81.6631 27.4064 81.7092 27.7094 81.7819C27.8472 81.8098 27.921 81.8915 27.921 82.0111C27.921 82.1291 27.8289 82.2297 27.7094 82.2478C27.6363 82.266 27.6279 82.266 27.3798 82.266H25.3655C25.1638 82.266 25.1554 82.266 25.0823 82.2478C24.9712 82.2206 24.9072 82.1381 24.9072 82.0194C24.9072 81.9097 24.9712 81.8272 25.0907 81.7917C25.3389 81.7092 25.3655 81.682 25.3655 81.4528V76.9882C25.3655 76.7597 25.3389 76.7325 25.0907 76.6508C24.9712 76.6137 24.9072 76.5313 24.9072 76.4224C24.9072 76.3036 24.9712 76.2211 25.0823 76.1939C25.1554 76.1758 25.1638 76.1758 25.3655 76.1758H27.3691V81.4165ZM27.7375 76.1758C28.1319 76.1758 28.4813 76.203 28.7576 76.2484C29.6483 76.4133 30.2002 77.0971 30.2002 78.0389C30.2002 79.0057 29.6308 79.6918 28.6838 79.8642C28.4166 79.9104 28.0953 79.9285 27.7375 79.9285V79.4527C28.1319 79.3627 28.2422 79.1978 28.2422 78.7417V77.3074C28.2422 76.8883 28.1052 76.7144 27.7375 76.6599V76.1758Z" fill="#545454"/>
<path d="M32.9372 81.4165C32.9372 81.6631 32.9745 81.7092 33.2775 81.7819C33.416 81.8099 33.4891 81.8916 33.4891 82.0111C33.4891 82.1291 33.3977 82.2297 33.2775 82.2478C33.2044 82.266 33.1952 82.266 32.9471 82.266H30.9343C30.7326 82.266 30.7235 82.266 30.6496 82.2478C30.5393 82.2206 30.4761 82.1382 30.4761 82.0194C30.4761 81.9097 30.5393 81.8273 30.6595 81.7917C30.9077 81.7092 30.9343 81.682 30.9343 81.4528V76.9882C30.9343 76.7598 30.9077 76.7325 30.6595 76.6508C30.5393 76.6138 30.4761 76.5313 30.4761 76.4224C30.4761 76.3036 30.5393 76.2212 30.6496 76.1939C30.7235 76.1758 30.7326 76.1758 30.9343 76.1758H32.9372V81.4165ZM33.2866 76.1758C34.2054 76.1848 34.4536 76.2121 34.7939 76.349C35.4364 76.6054 35.7584 77.0707 35.7584 77.7462C35.7584 78.2031 35.584 78.6048 35.2628 78.8506C35.0321 79.0337 34.8304 79.1252 34.2975 79.2803C34.803 79.3627 34.9964 79.4164 35.2445 79.5632C35.5475 79.7357 35.731 80.0382 35.731 80.3582V81.2796C35.731 81.3802 35.7584 81.4165 35.8231 81.4165C35.8695 81.4165 35.887 81.3991 35.9525 81.3257C36.0256 81.2342 36.1078 81.1797 36.19 81.1797C36.2829 81.1797 36.4108 81.3159 36.4108 81.4165C36.4108 81.6359 36.126 82.0111 35.8231 82.2017C35.6122 82.3303 35.3724 82.3848 35.0428 82.3848C34.2519 82.3848 33.7829 81.9097 33.7829 81.1071V80.3582C33.7829 79.8461 33.636 79.6176 33.2866 79.5813V79.098C33.6459 79.0518 33.7829 78.8877 33.7829 78.4852V77.3074C33.7829 76.933 33.6733 76.7877 33.2866 76.6697V76.1758Z" fill="#545454"/>
<path d="M39.048 76.5409C38.745 76.6415 38.6347 76.8064 38.6347 77.1612V81.1515C38.6347 81.6356 38.7359 81.8187 39.048 81.9011V82.3845C37.4859 82.2567 36.5032 81.0327 36.5032 79.2256C36.5032 77.4078 37.5324 76.1301 39.048 76.0568V76.5409ZM39.4149 76.0568C40.9329 76.1301 41.9613 77.4078 41.9613 79.2256C41.9613 81.0327 40.9778 82.2567 39.4149 82.3845V81.9011C39.7095 81.8187 39.8291 81.6182 39.8291 81.1515V77.1612C39.8291 76.8064 39.7187 76.6415 39.4149 76.5409V76.0568Z" fill="#545454"/>
<path d="M43.6794 82.357C43.257 82.2843 43.0088 82.2019 42.7606 82.0287C42.3754 81.7639 42.1448 81.3622 42.1448 80.9515C42.1448 80.3849 42.5673 79.9461 43.1009 79.9461C43.5881 79.9461 43.9916 80.3486 43.9916 80.8319C43.9916 81.1882 43.8089 81.4439 43.4313 81.636C43.3856 81.6633 43.3491 81.6913 43.3491 81.7003C43.3491 81.7548 43.4869 81.8274 43.6794 81.8645V82.357ZM44.0654 81.8645C44.2953 81.7639 44.3783 81.599 44.3783 81.2434V77.0247C44.3783 76.7698 44.3501 76.7418 44.0464 76.6692C43.8994 76.6321 43.8264 76.5496 43.8264 76.4309C43.8264 76.3129 43.9185 76.2123 44.038 76.1941C44.1111 76.185 44.121 76.185 44.3783 76.1759H46.3811C46.7404 76.1759 46.8409 76.2304 46.8409 76.4225C46.8409 76.5315 46.7762 76.6139 46.6574 76.651C46.4093 76.7319 46.3811 76.7599 46.3811 76.9884V80.7139C46.3811 81.773 45.6275 82.3948 44.36 82.3948C44.277 82.3948 44.2039 82.3948 44.0654 82.3849V81.8645Z" fill="#545454"/>
<path d="M49.9187 82.266H47.9151C47.7134 82.266 47.7042 82.266 47.6296 82.2478C47.5208 82.2198 47.4561 82.1382 47.4561 82.0194C47.4561 81.9097 47.5208 81.8272 47.6403 81.7917C47.8884 81.7092 47.9151 81.682 47.9151 81.4528V76.9882C47.9151 76.7597 47.8884 76.7325 47.6403 76.6508C47.5208 76.6137 47.4561 76.5313 47.4561 76.4224C47.4561 76.3036 47.5208 76.2211 47.6296 76.1939C47.7042 76.1758 47.7134 76.1758 47.9151 76.1758H49.9187V82.266ZM52.1141 76.1758V77.7643C52.1141 77.9466 52.0502 78.0291 51.8941 78.0291C51.7563 78.0291 51.7099 77.9935 51.6551 77.8286C51.4252 77.1251 50.9753 76.7597 50.2955 76.7053V76.1758H52.1141ZM50.2955 78.9058C50.6266 78.7598 50.7911 78.5594 50.8543 78.2477C50.9114 78.0208 50.9753 77.9466 51.1215 77.9466C51.2973 77.9466 51.3422 78.0291 51.3422 78.3218V80.0193C51.3422 80.2939 51.2874 80.3847 51.1215 80.3847C50.9936 80.3847 50.9197 80.3121 50.8733 80.1108C50.7728 79.7182 50.5794 79.4807 50.2955 79.4263V78.9058ZM50.2955 81.7819C50.9555 81.7183 51.4899 81.2705 51.7015 80.6131C51.7647 80.4217 51.8294 80.3665 51.9489 80.3665C52.1233 80.3665 52.1788 80.449 52.1788 80.6956V82.266H50.2955V81.7819Z" fill="#545454"/>
<path d="M55.3212 76.5956C54.9718 76.6508 54.8066 76.9065 54.8066 77.3717V81.061C54.8066 81.3991 54.8264 81.4808 54.9353 81.6359C55.0358 81.7728 55.1286 81.828 55.3212 81.8371V82.3848C53.6572 82.3477 52.666 81.1979 52.666 79.3257C52.666 78.1569 53.0527 77.2356 53.7774 76.6319C54.2555 76.2484 54.761 76.0661 55.3212 76.057V76.5956ZM55.6798 76.0661C55.9561 76.1031 56.0574 76.1304 56.5255 76.3036C56.6999 76.3672 56.7737 76.3861 56.8376 76.3861C56.9389 76.3861 56.9853 76.349 57.0858 76.1569C57.1216 76.1031 57.1962 76.057 57.2875 76.057C57.4428 76.057 57.5357 76.1569 57.5357 76.3407V78.1932C57.5357 78.4043 57.4345 78.5314 57.2693 78.5314C57.1322 78.5314 57.0493 78.4398 56.9937 78.2394C56.7828 77.3437 56.2309 76.6508 55.6798 76.5956V76.0661ZM55.6889 81.8371C56.3322 81.7728 56.8468 81.3522 57.031 80.7599C57.0949 80.5678 57.1589 80.4951 57.2974 80.4951C57.4345 80.4951 57.5441 80.6139 57.5441 80.7682C57.5441 81.0791 57.2693 81.5443 56.9016 81.8825C56.5255 82.2206 56.1655 82.3666 55.6889 82.3848V81.8371Z" fill="#545454"/>
<path d="M59.2538 76.176V76.7237C58.9219 76.8878 58.7209 77.2986 58.6196 78.0293C58.593 78.2033 58.4918 78.3122 58.3448 78.3122C58.188 78.3122 58.0776 78.1935 58.0776 78.0202V76.176H59.2538ZM61.6243 81.4167C61.6243 81.6633 61.6608 81.7087 61.9646 81.7821C62.1023 81.8093 62.1754 81.8918 62.1754 82.0106C62.1754 82.1293 62.0833 82.2299 61.9646 82.2481C61.8915 82.2662 61.8816 82.2662 61.6342 82.2662H59.6214C59.3641 82.2662 59.355 82.2662 59.2819 82.2481C59.1624 82.2299 59.0695 82.1293 59.0695 82.0106C59.0695 81.8918 59.1434 81.8093 59.2819 81.7821C59.5849 81.7087 59.6214 81.6724 59.6214 81.4167V76.176H61.6243V81.4167ZM63.1689 78.0202C63.1689 78.1935 63.0569 78.3122 62.9017 78.3122C62.7821 78.3122 62.6916 78.2396 62.6451 78.1027C62.6345 78.083 62.6078 77.965 62.5796 77.7555C62.47 77.2169 62.2774 76.8606 61.992 76.7237V76.176H63.1689V78.0202Z" fill="#545454"/>
</svg>
